<svg width="106" height="77" viewBox="0 0 106 77" fill="none" xmlns="http://www.w3.org/2000/svg">
<path d="M98.2009 52.1139C99.0719 56.2979 96.3859 60.3959 92.2009 61.2659L18.8759 76.5199C14.6909 77.3909 10.5939 74.7039 9.7229 70.5189L0.163909 24.5699C-0.707091 20.3859 1.97992 16.2879 6.16492 15.4179L79.4909 0.163912C83.6749 -0.707088 87.7719 1.97991 88.6429 6.16391L98.2009 52.1139Z" fill="#3CD1E5"/>
<path d="M105.476 61.8087C105.476 66.0827 102.012 69.5467 97.738 69.5467H22.842C18.568 69.5467 15.103 66.0827 15.103 61.8087V14.8757C15.103 10.6017 18.568 7.13672 22.842 7.13672H97.738C102.012 7.13672 105.476 10.6017 105.476 14.8757V61.8087Z" fill="#C7CED8"/>
<path d="M45.143 45.1328C45.143 51.0688 40.33 55.8808 34.395 55.8808C28.459 55.8808 23.647 51.0688 23.647 45.1328C23.647 39.1968 28.459 34.3857 34.395 34.3857C40.331 34.3857 45.143 39.1978 45.143 45.1328Z" fill="white"/>
<path d="M62.2528 45.1328C62.2528 51.0688 57.4398 55.8808 51.5048 55.8808C45.5698 55.8808 40.7578 51.0688 40.7578 45.1328C40.7578 39.1968 45.5698 34.3857 51.5048 34.3857C57.4398 34.3857 62.2528 39.1978 62.2528 45.1328Z" stroke="white" stroke-width="1.5477" stroke-miterlimit="10"/>
<path d="M100.258 17.9839H19.0029V24.4369H100.258V17.9839Z" fill="white"/>
<path d="M94.8478 52.4197C94.8478 53.8527 93.6858 55.0147 92.2518 55.0147H78.9598C77.5258 55.0147 76.3638 53.8527 76.3638 52.4197V40.9417C76.3638 39.5087 77.5258 38.3467 78.9598 38.3467H92.2518C93.6858 38.3467 94.8478 39.5087 94.8478 40.9417V52.4197Z" fill="white"/>
</svg>
