<svg width="65" height="65" viewBox="0 0 65 65" fill="none" xmlns="http://www.w3.org/2000/svg">
<g clip-path="url(#clip0_197_478)">
<path d="M42.4245 28.0673C42.3686 28.0673 42.3113 28.0536 42.2606 28.0237C42.1005 27.9326 42.0446 27.7296 42.1343 27.5696L42.7928 26.4108C42.8852 26.2501 43.0908 26.1929 43.2469 26.2859C43.407 26.377 43.4629 26.58 43.3731 26.74L42.7147 27.8988C42.6522 28.0068 42.5403 28.0673 42.4245 28.0673Z" fill="#312E4B"/>
<path d="M44.1577 24.0063L45.524 21.6016C45.7459 21.2157 46.3181 21.5497 46.1044 21.9308L44.7381 24.3355C44.5161 24.7194 43.9436 24.388 44.1577 24.0063Z" fill="#312E4B"/>
<path d="M46.8889 19.1963L47.5473 18.0376C47.7143 17.7473 48.0166 17.9166 49.17 17.8691C49.6107 17.8691 49.6107 18.5353 49.17 18.5353H48.0314L47.4693 19.5255C47.2473 19.9094 46.6748 19.5781 46.8889 19.1963Z" fill="#312E4B"/>
<path d="M53.5838 18.5354H51.3769C50.9362 18.5354 50.9362 17.8691 51.3769 17.8691H53.5838C54.0246 17.8691 54.0246 18.5354 53.5838 18.5354Z" fill="#312E4B"/>
<path d="M57.1232 18.5354H55.7908C55.35 18.5354 55.35 17.8691 55.7908 17.8691H57.1232C57.3067 17.8691 57.4564 18.0181 57.4564 18.2023C57.4564 18.3864 57.3067 18.5354 57.1232 18.5354Z" fill="#312E4B"/>
<path d="M58.7894 21.6276C60.7895 21.6276 62.411 20.0061 62.411 18.0059C62.411 16.0057 60.7895 14.3843 58.7894 14.3843C56.7892 14.3843 55.1677 16.0057 55.1677 18.0059C55.1677 20.0061 56.7892 21.6276 58.7894 21.6276Z" fill="#FCB73E"/>
<path d="M58.7893 19.4609C59.5929 19.4609 60.2443 18.8094 60.2443 18.0058C60.2443 17.2022 59.5929 16.5508 58.7893 16.5508C57.9857 16.5508 57.3342 17.2022 57.3342 18.0058C57.3342 18.8094 57.9857 19.4609 58.7893 19.4609Z" fill="#DEDDFF"/>
<path d="M58.5894 15.313H58.9904V16.2297H58.5894V15.313Z" fill="#DEDDFF"/>
<path d="M58.5894 19.7808H58.9904V20.6975H58.5894V19.7808Z" fill="#DEDDFF"/>
<path d="M57.3926 16.8913L56.7446 16.2433L57.0283 15.9609L57.6763 16.609L57.3926 16.8913Z" fill="#DEDDFF"/>
<path d="M60.5506 20.0505L59.9026 19.4025L60.1863 19.1201L60.8343 19.7681L60.5506 20.0505Z" fill="#DEDDFF"/>
<path d="M56.0977 17.8062H57.0144V18.2059H56.0977V17.8062Z" fill="#DEDDFF"/>
<path d="M60.5654 17.8062H61.4822V18.2059H60.5654V17.8062Z" fill="#DEDDFF"/>
<path d="M56.7363 19.7715L57.3846 19.1233L57.6672 19.4059L57.019 20.0541L56.7363 19.7715Z" fill="#DEDDFF"/>
<path d="M59.8953 16.6147L60.5435 15.9665L60.8262 16.2492L60.1779 16.8974L59.8953 16.6147Z" fill="#DEDDFF"/>
<path d="M22.6873 28.7072H21.3548C21.1714 28.7072 21.0217 28.5583 21.0217 28.3741C21.0217 28.19 21.1714 28.041 21.3548 28.041H22.6873C22.8708 28.041 23.0204 28.19 23.0204 28.3741C23.0204 28.5583 22.8708 28.7072 22.6873 28.7072Z" fill="#312E4B"/>
<path d="M18.5429 28.7072H15.731C15.2902 28.7072 15.2902 28.041 15.731 28.041H18.5429C18.7264 28.041 18.876 28.19 18.876 28.3741C18.876 28.5583 18.7264 28.7072 18.5429 28.7072Z" fill="#312E4B"/>
<path d="M12.919 28.7072H11.5865C11.2536 28.7072 11.2508 28.3615 10.6379 27.3806C10.4236 26.9986 10.994 26.6668 11.2182 27.0514L11.7804 28.041H12.919C13.3597 28.041 13.3597 28.7072 12.919 28.7072Z" fill="#312E4B"/>
<path d="M9.13362 24.7343L7.62809 22.0889C7.41064 21.7068 7.98593 21.3756 8.20583 21.7597L9.71136 24.4051C9.93194 24.7927 9.349 25.1146 9.13362 24.7343Z" fill="#312E4B"/>
<path d="M6.1224 19.4437L5.46398 18.2856C5.37419 18.1256 5.43015 17.9226 5.5889 17.8315C5.74765 17.7391 5.95194 17.7957 6.04433 17.9564L6.70275 19.1145C6.91769 19.4977 6.34401 19.8269 6.1224 19.4437Z" fill="#312E4B"/>
<path d="M5.99445 18.7804C7.99462 18.7804 9.61609 17.1589 9.61609 15.1588C9.61609 13.1586 7.99462 11.5371 5.99445 11.5371C3.99427 11.5371 2.3728 13.1586 2.3728 15.1588C2.3728 17.1589 3.99427 18.7804 5.99445 18.7804Z" fill="#3E7FFF"/>
<path d="M7.19152 16.6839C7.19152 17.3519 6.65164 17.8918 5.98358 17.8918C5.33578 17.8918 4.7959 17.3519 4.7959 16.6839C4.7959 16.2317 5.04558 15.8471 5.41 15.6379V13.0129C5.41 12.689 5.67319 12.4258 5.99033 12.4258H5.99709C6.31423 12.4258 6.57742 12.689 6.57742 13.0129V15.6379C6.94185 15.8471 7.19152 16.2317 7.19152 16.6839Z" fill="#DEDDFF"/>
<path d="M6.10498 13.3052H6.87115V13.5464H6.10498V13.3052Z" fill="#3E7FFF"/>
<path d="M6.10498 14.1045H6.87115V14.3457H6.10498V14.1045Z" fill="#3E7FFF"/>
<path d="M6.10498 14.9043H6.87115V15.1455H6.10498V14.9043Z" fill="#3E7FFF"/>
<path d="M5.99437 17.2505C6.30933 17.2505 6.56466 16.9951 6.56466 16.6802C6.56466 16.3652 6.30933 16.1099 5.99437 16.1099C5.6794 16.1099 5.42407 16.3652 5.42407 16.6802C5.42407 16.9951 5.6794 17.2505 5.99437 17.2505Z" fill="#3E7FFF"/>
<path d="M0.711182 49.6694H64.6669V64.0108H0.711182V49.6694Z" fill="#46CC6B"/>
<path d="M18.6014 52.5253C18.6014 53.0338 14.7507 53.4406 9.99375 53.4406C5.25017 53.4406 1.38599 53.0338 1.38599 52.5253C1.38599 52.0294 5.25017 51.6099 9.99375 51.6099C14.7507 51.6099 18.6014 52.0294 18.6014 52.5253Z" fill="#34BA5D"/>
<path d="M18.8513 58.1669C18.8513 58.5808 15.717 58.912 11.8452 58.912C7.98429 58.912 4.83911 58.5808 4.83911 58.1669C4.83911 57.7634 7.98429 57.4219 11.8452 57.4219C15.717 57.4219 18.8513 57.7634 18.8513 58.1669Z" fill="#34BA5D"/>
<path d="M62.9892 57.8864C62.9892 58.3201 59.855 58.6672 55.9832 58.6672C52.1222 58.6672 48.9771 58.3201 48.9771 57.8864C48.9771 57.4634 52.1222 57.1055 55.9832 57.1055C59.855 57.1055 62.9892 57.4634 62.9892 57.8864Z" fill="#34BA5D"/>
<path d="M41.0096 61.0336C41.0096 61.5666 37.1589 61.993 32.4019 61.993C27.6584 61.993 23.7942 61.5666 23.7942 61.0336C23.7942 60.514 27.6584 60.0742 32.4019 60.0742C37.1589 60.0742 41.0096 60.514 41.0096 61.0336Z" fill="#34BA5D"/>
<path d="M63.3917 51.9731C63.3917 52.506 59.5409 52.9324 54.784 52.9324C50.0405 52.9324 46.1763 52.506 46.1763 51.9731C46.1763 51.4534 50.0405 51.0137 54.784 51.0137C59.5409 51.0137 63.3917 51.4534 63.3917 51.9731Z" fill="#34BA5D"/>
<path d="M54.25 40.374C53.0375 41.3467 51.252 41.1335 50.1593 40.0276L45.549 35.4172L45.5357 35.4039L45.2292 35.0974V58.5222H20.1522V35.0974L19.8324 35.4172L15.2088 40.0542C14.1161 41.1468 12.3173 41.3467 11.1314 40.3607C9.75895 39.2547 9.69235 37.2294 10.9049 36.0035C11.0381 35.869 17.2722 29.5794 16.8744 29.9807C18.5932 28.2619 20.8317 27.1693 23.2302 26.8628C23.6832 26.7962 24.1496 26.7695 24.616 26.7695H40.8853C41.1119 26.7695 41.3384 26.7829 41.5649 26.7962C44.2698 26.9561 46.8148 28.1153 48.7202 30.074C48.8509 30.2086 54.8552 36.3936 54.4765 36.0035C55.6891 37.2294 55.6225 39.2547 54.25 40.374Z" fill="#DEDDFF"/>
<path d="M41.565 26.7962V58.5222H23.2302V26.8628C23.6833 26.7962 24.1496 26.7695 24.616 26.7695H26.4148V35.7637C26.4148 36.3633 26.8812 36.843 27.4675 36.843H37.3677C37.9274 36.843 38.4204 36.3633 38.4204 35.7637V26.7695H40.8854C41.112 26.7695 41.3385 26.7829 41.565 26.7962Z" fill="#E83D62"/>
<path d="M27.1173 36.9408L25.5829 44.8266L20.1523 43.6919V35.4839L27.1173 36.9408Z" fill="#C6C6F7"/>
<path d="M27.1211 36.9363L25.5887 44.8245L23.2302 44.3315V36.1235L27.1211 36.9363Z" fill="#CE2955"/>
<path d="M19.8324 35.4172L15.2088 40.0542C14.1161 41.1468 12.3173 41.3467 11.1314 40.3607C9.75895 39.2548 9.69235 37.2294 10.9049 36.0035L12.8236 34.0581C14.1259 34.145 12.0125 33.7993 19.8324 35.4172Z" fill="#C6C6F7"/>
<path d="M38.6582 36.8585L45.2292 35.4839V43.6919L39.7005 44.7962L38.6582 36.8585Z" fill="#C6C6F7"/>
<path d="M41.5649 36.2432V44.4245L39.6995 44.7976L38.6602 36.8561L41.5649 36.2432Z" fill="#CE2955"/>
<path d="M54.2499 40.3741C53.0374 41.3467 51.2519 41.1335 50.1593 40.0276L45.5356 35.4039C49.6763 34.6073 51.9381 33.9394 52.5977 34.0714L54.4764 36.0035C55.689 37.2294 55.6224 39.2548 54.2499 40.3741Z" fill="#C6C6F7"/>
<path d="M55.2719 37.4722C55.6065 39.0673 54.5847 40.6317 52.9896 40.9664L42.4777 43.1779L41.2659 37.4015L51.7778 35.1899C53.3729 34.8553 54.9373 35.8771 55.2719 37.4722Z" fill="#DEDDFF"/>
<path d="M10.106 37.4722C9.77131 39.0673 10.7931 40.6317 12.3883 40.9664L22.9002 43.1779L24.112 37.4015L13.6001 35.1899C12.005 34.8553 10.4406 35.8771 10.106 37.4722Z" fill="#DEDDFF"/>
<path d="M36.895 25.1938V28.5102C36.895 30.8009 35.0317 32.6557 32.7581 32.6557C30.5279 32.6557 28.6125 30.8672 28.6125 28.5102V25.1938H36.895Z" fill="#FFAF93"/>
<path d="M31.1169 31.4164L31.1426 31.4421C31.7494 32.0489 32.5273 32.4677 33.4162 32.5959C33.2025 32.6387 32.9803 32.6558 32.7581 32.6558C30.5279 32.6558 28.6125 30.8673 28.6125 28.5103V26.5016C30.1931 27.5363 32.0633 27.9123 33.8607 27.6555C32.2025 27.4162 30.7238 26.6384 29.5955 25.5102C29.4417 25.3563 29.2878 25.1939 29.151 25.0229H36.895V27.8179C35.426 28.598 33.7612 28.924 32.3392 28.8351C30.9631 28.7667 30.1511 30.442 31.1169 31.4164Z" fill="#EE8778"/>
<path d="M40.3428 10.0518V20.1462C40.3428 24.3372 36.9454 27.7346 32.7544 27.7346C28.5635 27.7346 25.166 24.3372 25.166 20.1462V10.0518H40.3428Z" fill="#FFAF93"/>
<path d="M40.3396 10.0479V20.1423C40.3396 20.3817 40.3311 20.621 40.3054 20.8518C40.2798 21.1851 40.2199 21.5099 40.143 21.8347C38.8422 27.6227 31.6135 29.7334 27.3903 25.5101C26.0142 24.134 25.168 22.2365 25.168 20.1423V10.0479H40.3396Z" fill="#FFAF93"/>
<path d="M23.5042 12.8091V18.523H25.1706V13.3975C25.1706 13.196 25.1935 13 25.2299 12.8091H23.5042Z" fill="#AB604B"/>
<path d="M40.1289 12.8091C40.2499 12.9828 40.3368 13.1823 40.3368 13.4101V18.523H41.9611V12.8091H40.1289Z" fill="#AB604B"/>
<path d="M25.168 14.6719V18.5268H23.5012V15.2446C23.9628 14.8856 24.5354 14.6719 25.168 14.6719Z" fill="#AB604B"/>
<path d="M43.012 18.1952C43.012 19.6829 41.8188 20.8759 40.3313 20.8759V15.5293C41.8188 15.5293 43.012 16.7223 43.012 18.1952Z" fill="#FFAF93"/>
<path d="M41.0465 15.6367C40.8177 15.5738 40.581 15.5293 40.3313 15.5293V20.8759C40.581 20.8759 40.8177 20.8314 41.0465 20.7684V15.6367Z" fill="#EE8778"/>
<path d="M33.8607 27.6554C32.0638 27.9121 30.1936 27.5365 28.6126 26.5015C28.1681 26.2109 27.7664 25.8861 27.3903 25.51C26.0142 24.1339 25.168 22.2364 25.168 20.1422V20.8773C23.6807 20.8773 22.4841 19.6807 22.4841 18.1935C22.4841 17.3472 22.8773 16.5951 23.5013 16.0993C23.9628 15.7403 24.5355 15.5266 25.168 15.5266V13.3983C25.168 11.9966 26.0911 10.8085 27.3732 10.4067V20.1422C27.3732 21.997 28.0399 23.698 29.1511 25.0228C29.2878 25.1938 29.4417 25.3561 29.5956 25.51C30.7238 26.6383 32.2025 27.4161 33.8607 27.6554Z" fill="#EE8778"/>
<path d="M33.3548 19.1237V20.2073C33.3548 20.5752 33.057 20.873 32.6891 20.873C32.3213 20.873 32.0234 20.5752 32.0234 20.2073V19.1237C32.0234 18.7558 32.3213 18.458 32.6891 18.458C33.0607 18.458 33.3548 18.7605 33.3548 19.1237Z" fill="#EE8778"/>
<path d="M30.3774 22.8208C30.6149 23.9128 31.5859 24.7311 32.749 24.7311C33.9122 24.7311 34.8832 23.9128 35.1207 22.8208L30.3774 22.8208Z" fill="#EE8778"/>
<path d="M30.6056 17.0734C30.4525 16.3691 29.8262 15.8413 29.076 15.8413C28.3258 15.8413 27.6996 16.3691 27.5464 17.0734H30.6056Z" fill="#312E4B"/>
<path d="M37.9611 17.0734C37.8079 16.3691 37.1817 15.8413 36.4315 15.8413C35.6813 15.8413 35.055 16.3691 34.9019 17.0734H37.9611Z" fill="#312E4B"/>
<path d="M43.9673 13.0283C43.9673 13.9148 43.2648 14.6173 42.3783 14.6173H22.9996C22.1299 14.6173 21.4106 13.9148 21.4106 13.0283C21.4106 12.1585 22.1299 11.4561 22.9996 11.4561H42.3783C43.2648 11.4561 43.9673 12.1585 43.9673 13.0283Z" fill="#AB604B"/>
<path d="M27.8647 14.6239H22.9938C22.1288 14.6239 21.4102 13.9185 21.4102 13.0269C21.4102 12.1618 22.1288 11.4565 22.9938 11.4565H27.8647C26.9996 11.4565 26.281 12.1618 26.281 13.0269C26.281 13.9185 26.9996 14.6239 27.8647 14.6239Z" fill="#8B4F4F"/>
<path d="M41.5373 8.89659V11.4558H23.8408V8.89659C23.8408 4.00984 27.8023 0.0483398 32.6891 0.0483398C37.5758 0.0483398 41.5373 4.00984 41.5373 8.89659Z" fill="#AB604B"/>
<path d="M33.9067 0.131115C29.5948 0.729999 26.2678 4.4163 26.2678 8.90114V11.4564H23.8457V8.90114C23.8457 4.00375 27.7983 0.0512695 32.6957 0.0512695C33.1082 0.0512699 33.5074 0.0779122 33.9067 0.131115Z" fill="#8B4F4F"/>
<path d="M23.8494 8.53906H41.5458V11.4558H23.8494V8.53906Z" fill="#FCB73E"/>
<path d="M23.8455 8.5415H26.2812V11.4556H23.8455V8.5415Z" fill="#FD982E"/>
<path d="M20.1519 58.5225H45.2289V64.0122H20.1519V58.5225Z" fill="#5B5E8B"/>
<path d="M45.2291 58.5225V60.3745H25.6419C23.6299 60.3745 22.0042 62.0002 22.0042 64.0122H20.1521V58.5225H45.2291Z" fill="#312E4B"/>
<path d="M30.0283 22.8208C30.2658 23.9128 31.2367 24.7311 32.3999 24.7311C33.5631 24.7311 34.5341 23.9128 34.7715 22.8208L30.0283 22.8208Z" fill="#EE8778"/>
<path d="M33.3546 19.1237V20.2073C33.3546 20.5752 33.0567 20.873 32.6889 20.873C32.321 20.873 32.0232 20.5752 32.0232 20.2073V19.1237C32.0232 18.7558 32.321 18.458 32.6889 18.458C33.0605 18.458 33.3546 18.7605 33.3546 19.1237Z" fill="#EE8778"/>
<path d="M40.6761 35.6729V45.3686C40.6761 46.0015 40.163 46.5146 39.5301 46.5146H25.2244C24.5915 46.5146 24.0784 46.0015 24.0784 45.3686V35.6729C24.0784 35.0399 24.5915 34.5269 25.2244 34.5269H39.5301C40.163 34.5269 40.6761 35.0399 40.6761 35.6729Z" fill="#5B5E8B"/>
<path d="M27.4754 46.5166H25.2235C24.5972 46.5166 24.0776 45.9969 24.0776 45.3707V35.6703C24.0776 35.0441 24.5972 34.5244 25.2235 34.5244H27.4754C26.8358 34.5244 26.3295 35.0441 26.3295 35.6703V45.3707C26.3295 45.9969 26.8358 46.5166 27.4754 46.5166Z" fill="#312E4B"/>
<path d="M42.7321 42.9883C41.5203 44.8436 39.0444 45.363 37.1966 44.156C35.3487 42.9491 34.8219 40.4683 36.0337 38.6131C37.2407 36.7652 39.724 36.2507 41.5719 37.4576C43.4197 38.6646 43.9391 41.1405 42.7321 42.9883Z" fill="#FFAF93"/>
<path d="M41.1443 44.3975C39.9161 44.9996 38.4232 44.9607 37.1993 44.1613C35.3458 42.9506 34.8172 40.4672 36.0279 38.6137C36.8273 37.3899 38.1787 36.7543 39.5365 36.8062C38.9048 37.1147 38.3451 37.5842 37.9338 38.2138C36.7173 40.0762 37.2371 42.5539 39.0906 43.7645C39.7203 44.1758 40.4303 44.3865 41.1443 44.3975Z" fill="#EE8778"/>
<path d="M22.6459 42.9883C23.8577 44.8436 26.3336 45.363 28.1814 44.156C30.0293 42.9491 30.5561 40.4683 29.3442 38.6131C28.1373 36.7652 25.654 36.2507 23.8061 37.4576C21.9583 38.6646 21.4389 41.1405 22.6459 42.9883Z" fill="#FFAF93"/>
<path d="M24.2336 44.3975C25.4619 44.9996 26.9548 44.9607 28.1786 44.1613C30.0321 42.9506 30.5607 40.4672 29.3501 38.6137C28.5507 37.3899 27.1993 36.7543 25.8415 36.8062C26.4732 37.1147 27.0329 37.5842 27.4442 38.2138C28.6606 40.0762 28.1408 42.5539 26.2874 43.7645C25.6577 44.1758 24.9477 44.3865 24.2336 44.3975Z" fill="#EE8778"/>
<path d="M32.6911 42.5457C31.6331 42.5457 30.7717 41.6849 30.7717 40.627C30.7717 39.5619 31.6331 38.6953 32.6911 38.6953C33.749 38.6953 34.6104 39.5619 34.6104 40.627C34.6104 41.6849 33.749 42.5457 32.6911 42.5457ZM32.6911 39.0948C31.8531 39.0948 31.1725 39.7825 31.1725 40.627C31.1725 41.4643 31.8531 42.1462 32.6911 42.1462C33.529 42.1462 34.2096 41.4643 34.2096 40.627C34.2096 39.7825 33.529 39.0948 32.6911 39.0948Z" fill="#DEDDFF"/>
</g>
<defs>
<clipPath id="clip0_197_478">
<rect width="64" height="64" fill="white" transform="translate(0.688965 0.0302734)"/>
</clipPath>
</defs>
</svg>
