<svg viewBox="0 0 64 64" xmlns="http://www.w3.org/2000/svg"><g id="Layer_19" data-name="Layer 19"><path d="m32 2v7l8-3z" fill="#aa2b24"/><path d="m32 2v4h3a2 2 0 0 0 1.94-1.53z" fill="#d24034"/><path d="m4 32h56v26h-56z" fill="#ccc"/><path d="m4 32v24h47a3 3 0 0 0 3-3v-21z" fill="#f2f2f2"/><rect fill="#fff" height="17" rx="2" width="35" x="6" y="34"/><path d="m32 48a5 5 0 0 0 -5 5v5h10v-5a5 5 0 0 0 -5-5z" fill="#2763bb"/><path d="m32 48a5 5 0 0 0 -5 5v3h7a2 2 0 0 0 2-2v-4a5 5 0 0 0 -4-2z" fill="#3079e6"/><path d="m43 40h4v14h-4z" fill="#686868"/><path d="m32 12a16 16 0 0 0 -16 16h32a16 16 0 0 0 -16-16z" fill="#2763bb"/><path d="m39 25a3 3 0 0 0 3-3v-6.48a16 16 0 0 0 -25.71 9.48z" fill="#3079e6"/><path d="m2 28h60v4h-60z" fill="#686868"/><path d="m2 30h56a2 2 0 0 0 2-2h-58z" fill="#868686"/><path d="m51 36v-5l-19-7-19 7v5z" fill="#ccc"/><path d="m32 24-19 7v3h30a3 3 0 0 0 3-3v-1.84z" fill="#f2f2f2"/><rect fill="#5994eb" height="6" rx="2" width="11" x="24" y="16"/><path d="m35 26h-8.43l-7.57 2.79v1.21a2 2 0 0 0 2 2h14a2 2 0 0 0 2-2v-2a2 2 0 0 0 -2-2z" fill="#fff"/><path d="m2 58h60v4h-60z" fill="#686868"/><path d="m2 60h56a2 2 0 0 0 2-2h-58z" fill="#868686"/><g fill="#2763bb"><path d="m41 36h8v4h-8z"/><path d="m27 40h10v4h-10z"/><path d="m52 39h4v12h-4z"/><circle cx="32" cy="30" r="2"/></g><path d="m41 36v3h5a2 2 0 0 0 2-2v-1z" fill="#3079e6"/><path d="m41 54h8v4h-8z" fill="#2763bb"/><path d="m41 54v3h5a2 2 0 0 0 2-2v-1z" fill="#3079e6"/><path d="m43 40v12a2 2 0 0 0 2-2v-10z" fill="#868686"/><path d="m17 40h4v14h-4z" fill="#686868"/><path d="m15 36h8v4h-8z" fill="#2763bb"/><path d="m15 36v3h5a2 2 0 0 0 2-2v-1z" fill="#3079e6"/><path d="m15 54h8v4h-8z" fill="#2763bb"/><path d="m15 54v3h5a2 2 0 0 0 2-2v-1z" fill="#3079e6"/><path d="m17 40v12a2 2 0 0 0 2-2v-10z" fill="#868686"/><path d="m52 39v10a2 2 0 0 0 2-2v-8z" fill="#3079e6"/><path d="m8 39h4v12h-4z" fill="#2763bb"/><path d="m8 39v10a2 2 0 0 0 2-2v-8z" fill="#3079e6"/><path d="m27 40v3h7a2 2 0 0 0 2-2v-1z" fill="#3079e6"/><rect fill="#5994eb" height="4" rx="1" width="4" x="29" y="50"/><path d="m62 33a1 1 0 0 0 1-1v-4a1 1 0 0 0 -1-1h-13a17 17 0 0 0 -16-15.95v-1.36l7.35-2.75a1 1 0 0 0 .65-.89 1 1 0 0 0 -.55-.94l-8-4a1 1 0 0 0 -1.45.89v9.05a17 17 0 0 0 -15.95 15.95h-13.05a1 1 0 0 0 -1 1v4a1 1 0 0 0 1 1h1v24h-1a1 1 0 0 0 -1 1v4a1 1 0 0 0 1 1h60a1 1 0 0 0 1-1v-4a1 1 0 0 0 -1-1h-1v-24zm-29-29.38 4.5 2.25-4.5 1.69zm28 27.38h-9a1 1 0 0 0 -.65-.94l-2.89-1.06h12.54zm-19 26v-2h6v2zm-6 0h-8v-4a4 4 0 0 1 8 0zm-4-10a6 6 0 0 0 -6 6v4h-2v-3a1 1 0 0 0 -1-1h-1v-12h1a1 1 0 0 0 1-1v-3h16v3a1 1 0 0 0 1 1h1v12h-1a1 1 0 0 0 -1 1v3h-2v-4a6 6 0 0 0 -6-6zm-10-10v2h-6v-2zm-2 4v12h-2v-12zm2 14v2h-6v-2zm22-2v-12h2v12zm-2-14v-2h6v2zm-28-4v-3.3l18-6.63 18 6.63v3.3zm18-22a15 15 0 0 1 15 14h-4l-10.65-3.94a1.05 1.05 0 0 0 -.7 0l-10.65 3.94h-3.95a15 15 0 0 1 14.95-14zm-29 16h12.54l-2.89 1.06a1 1 0 0 0 -.65.94h-9zm2 4h7v3a1 1 0 0 0 1 1h1v3a1 1 0 0 0 1 1h1v12h-1a1 1 0 0 0 -1 1v3h-9zm56 28h-58v-2h58zm-2-4h-9v-3a1 1 0 0 0 -1-1h-1v-12h1a1 1 0 0 0 1-1v-3h1a1 1 0 0 0 1-1v-3h7z"/><path d="m38 40a1 1 0 0 0 -1-1h-10a1 1 0 0 0 -1 1v4a1 1 0 0 0 1 1h10a1 1 0 0 0 1-1zm-2 3h-8v-2h8z"/><path d="m12 38h-4a1 1 0 0 0 -1 1v12a1 1 0 0 0 1 1h4a1 1 0 0 0 1-1v-12a1 1 0 0 0 -1-1zm-1 12h-2v-10h2z"/><path d="m52 38a1 1 0 0 0 -1 1v12a1 1 0 0 0 1 1h4a1 1 0 0 0 1-1v-12a1 1 0 0 0 -1-1zm3 12h-2v-10h2z"/><path d="m32 27a3 3 0 1 0 3 3 3 3 0 0 0 -3-3zm0 4a1 1 0 1 1 1-1 1 1 0 0 1 -1 1z"/></g></svg>