<svg width="65" height="65" viewBox="0 0 65 65" fill="none" xmlns="http://www.w3.org/2000/svg">
<path d="M56.6899 26.0303H8.68994C5.37623 26.0303 2.68994 28.7166 2.68994 32.0303V56.0303C2.68994 59.344 5.37623 62.0303 8.68994 62.0303H56.6899C60.0037 62.0303 62.6899 59.344 62.6899 56.0303V32.0303C62.6899 28.7166 60.0037 26.0303 56.6899 26.0303Z" fill="#BF624C"/>
<path d="M56.6899 26.0303H8.68994C5.37623 26.0303 2.68994 28.7166 2.68994 32.0303V51.0303C2.68994 54.344 5.37623 57.0303 8.68994 57.0303H56.6899C60.0037 57.0303 62.6899 54.344 62.6899 51.0303V32.0303C62.6899 28.7166 60.0037 26.0303 56.6899 26.0303Z" fill="#51AF5E"/>
<path d="M24.1899 53.5303C24.1899 53.3977 24.1373 53.2705 24.0435 53.1767C23.9497 53.083 23.8225 53.0303 23.6899 53.0303C23.5573 53.0303 23.4302 53.083 23.3364 53.1767C23.2426 53.2705 23.1899 53.3977 23.1899 53.5303C23.0573 53.5303 22.9302 53.583 22.8364 53.6767C22.7426 53.7705 22.6899 53.8977 22.6899 54.0303C22.6899 54.1629 22.7426 54.2901 22.8364 54.3838C22.9302 54.4776 23.0573 54.5303 23.1899 54.5303C23.1899 54.6629 23.2426 54.7901 23.3364 54.8838C23.4302 54.9776 23.5573 55.0303 23.6899 55.0303C23.8225 55.0303 23.9497 54.9776 24.0435 54.8838C24.1373 54.7901 24.1899 54.6629 24.1899 54.5303C24.3225 54.5303 24.4497 54.4776 24.5435 54.3838C24.6373 54.2901 24.6899 54.1629 24.6899 54.0303C24.6899 53.8977 24.6373 53.7705 24.5435 53.6767C24.4497 53.583 24.3225 53.5303 24.1899 53.5303Z" fill="#FECA64"/>
<path d="M23.6899 54.5303C23.9661 54.5303 24.1899 54.3064 24.1899 54.0303C24.1899 53.7541 23.9661 53.5303 23.6899 53.5303C23.4138 53.5303 23.1899 53.7541 23.1899 54.0303C23.1899 54.3064 23.4138 54.5303 23.6899 54.5303Z" fill="#FFFCFC"/>
<path d="M51.1899 52.5303C51.1899 52.3977 51.1373 52.2705 51.0435 52.1767C50.9497 52.083 50.8225 52.0303 50.6899 52.0303C50.5573 52.0303 50.4302 52.083 50.3364 52.1767C50.2426 52.2705 50.1899 52.3977 50.1899 52.5303C50.0573 52.5303 49.9302 52.583 49.8364 52.6767C49.7426 52.7705 49.6899 52.8977 49.6899 53.0303C49.6899 53.1629 49.7426 53.2901 49.8364 53.3838C49.9302 53.4776 50.0573 53.5303 50.1899 53.5303C50.1899 53.6629 50.2426 53.7901 50.3364 53.8838C50.4302 53.9776 50.5573 54.0303 50.6899 54.0303C50.8225 54.0303 50.9497 53.9776 51.0435 53.8838C51.1373 53.7901 51.1899 53.6629 51.1899 53.5303C51.3225 53.5303 51.4497 53.4776 51.5435 53.3838C51.6373 53.2901 51.6899 53.1629 51.6899 53.0303C51.6899 52.8977 51.6373 52.7705 51.5435 52.6767C51.4497 52.583 51.3225 52.5303 51.1899 52.5303Z" fill="#FECA64"/>
<path d="M50.6899 53.5303C50.9661 53.5303 51.1899 53.3064 51.1899 53.0303C51.1899 52.7541 50.9661 52.5303 50.6899 52.5303C50.4138 52.5303 50.1899 52.7541 50.1899 53.0303C50.1899 53.3064 50.4138 53.5303 50.6899 53.5303Z" fill="#FFFCFC"/>
<path d="M5.18994 31.5303C5.18994 31.3977 5.13726 31.2705 5.04349 31.1767C4.94973 31.083 4.82255 31.0303 4.68994 31.0303C4.55733 31.0303 4.43016 31.083 4.33639 31.1767C4.24262 31.2705 4.18994 31.3977 4.18994 31.5303C4.05733 31.5303 3.93016 31.583 3.83639 31.6767C3.74262 31.7705 3.68994 31.8977 3.68994 32.0303C3.68994 32.1629 3.74262 32.2901 3.83639 32.3838C3.93016 32.4776 4.05733 32.5303 4.18994 32.5303C4.18994 32.6629 4.24262 32.7901 4.33639 32.8838C4.43016 32.9776 4.55733 33.0303 4.68994 33.0303C4.82255 33.0303 4.94973 32.9776 5.04349 32.8838C5.13726 32.7901 5.18994 32.6629 5.18994 32.5303C5.32255 32.5303 5.44973 32.4776 5.54349 32.3838C5.63726 32.2901 5.68994 32.1629 5.68994 32.0303C5.68994 31.8977 5.63726 31.7705 5.54349 31.6767C5.44973 31.583 5.32255 31.5303 5.18994 31.5303Z" fill="#FF6B81"/>
<path d="M4.68994 32.5303C4.96608 32.5303 5.18994 32.3064 5.18994 32.0303C5.18994 31.7541 4.96608 31.5303 4.68994 31.5303C4.4138 31.5303 4.18994 31.7541 4.18994 32.0303C4.18994 32.3064 4.4138 32.5303 4.68994 32.5303Z" fill="#FFFCFC"/>
<path d="M60.1899 34.5303C60.1899 34.3977 60.1373 34.2705 60.0435 34.1767C59.9497 34.083 59.8225 34.0303 59.6899 34.0303C59.5573 34.0303 59.4302 34.083 59.3364 34.1767C59.2426 34.2705 59.1899 34.3977 59.1899 34.5303C59.0573 34.5303 58.9302 34.583 58.8364 34.6767C58.7426 34.7705 58.6899 34.8977 58.6899 35.0303C58.6899 35.1629 58.7426 35.2901 58.8364 35.3838C58.9302 35.4776 59.0573 35.5303 59.1899 35.5303C59.1899 35.6629 59.2426 35.7901 59.3364 35.8838C59.4302 35.9776 59.5573 36.0303 59.6899 36.0303C59.8225 36.0303 59.9497 35.9776 60.0435 35.8838C60.1373 35.7901 60.1899 35.6629 60.1899 35.5303C60.3225 35.5303 60.4497 35.4776 60.5435 35.3838C60.6373 35.2901 60.6899 35.1629 60.6899 35.0303C60.6899 34.8977 60.6373 34.7705 60.5435 34.6767C60.4497 34.583 60.3225 34.5303 60.1899 34.5303Z" fill="#FECA64"/>
<path d="M59.6899 35.5303C59.9661 35.5303 60.1899 35.3064 60.1899 35.0303C60.1899 34.7541 59.9661 34.5303 59.6899 34.5303C59.4138 34.5303 59.1899 34.7541 59.1899 35.0303C59.1899 35.3064 59.4138 35.5303 59.6899 35.5303Z" fill="#FFFCFC"/>
<path d="M39.1899 53.5303C39.1899 53.3977 39.1373 53.2705 39.0435 53.1767C38.9497 53.083 38.8225 53.0303 38.6899 53.0303C38.5573 53.0303 38.4302 53.083 38.3364 53.1767C38.2426 53.2705 38.1899 53.3977 38.1899 53.5303C38.0573 53.5303 37.9302 53.583 37.8364 53.6767C37.7426 53.7705 37.6899 53.8977 37.6899 54.0303C37.6899 54.1629 37.7426 54.2901 37.8364 54.3838C37.9302 54.4776 38.0573 54.5303 38.1899 54.5303C38.1899 54.6629 38.2426 54.7901 38.3364 54.8838C38.4302 54.9776 38.5573 55.0303 38.6899 55.0303C38.8225 55.0303 38.9497 54.9776 39.0435 54.8838C39.1373 54.7901 39.1899 54.6629 39.1899 54.5303C39.3225 54.5303 39.4497 54.4776 39.5435 54.3838C39.6373 54.2901 39.6899 54.1629 39.6899 54.0303C39.6899 53.8977 39.6373 53.7705 39.5435 53.6767C39.4497 53.583 39.3225 53.5303 39.1899 53.5303Z" fill="#FF6B81"/>
<path d="M38.6899 54.5303C38.9661 54.5303 39.1899 54.3064 39.1899 54.0303C39.1899 53.7541 38.9661 53.5303 38.6899 53.5303C38.4138 53.5303 38.1899 53.7541 38.1899 54.0303C38.1899 54.3064 38.4138 54.5303 38.6899 54.5303Z" fill="#FFFCFC"/>
<path d="M8.18994 54.5303C8.18994 54.3977 8.13726 54.2705 8.04349 54.1767C7.94973 54.083 7.82255 54.0303 7.68994 54.0303C7.55733 54.0303 7.43016 54.083 7.33639 54.1767C7.24262 54.2705 7.18994 54.3977 7.18994 54.5303C7.05733 54.5303 6.93016 54.583 6.83639 54.6767C6.74262 54.7705 6.68994 54.8977 6.68994 55.0303C6.68994 55.1629 6.74262 55.2901 6.83639 55.3838C6.93016 55.4776 7.05733 55.5303 7.18994 55.5303C7.18994 55.6629 7.24262 55.7901 7.33639 55.8838C7.43016 55.9776 7.55733 56.0303 7.68994 56.0303C7.82255 56.0303 7.94973 55.9776 8.04349 55.8838C8.13726 55.7901 8.18994 55.6629 8.18994 55.5303C8.32255 55.5303 8.44973 55.4776 8.54349 55.3838C8.63726 55.2901 8.68994 55.1629 8.68994 55.0303C8.68994 54.8977 8.63726 54.7705 8.54349 54.6767C8.44973 54.583 8.32255 54.5303 8.18994 54.5303Z" fill="#FF6B81"/>
<path d="M7.68994 55.5303C7.96608 55.5303 8.18994 55.3064 8.18994 55.0303C8.18994 54.7541 7.96608 54.5303 7.68994 54.5303C7.4138 54.5303 7.18994 54.7541 7.18994 55.0303C7.18994 55.3064 7.4138 55.5303 7.68994 55.5303Z" fill="#FFFCFC"/>
<path d="M32.1899 53.0303C32.4661 53.0303 32.6899 52.8064 32.6899 52.5303C32.6899 52.2541 32.4661 52.0303 32.1899 52.0303C31.9138 52.0303 31.6899 52.2541 31.6899 52.5303C31.6899 52.8064 31.9138 53.0303 32.1899 53.0303Z" fill="#AEE892"/>
<path d="M45.1899 56.0303C45.4661 56.0303 45.6899 55.8064 45.6899 55.5303C45.6899 55.2541 45.4661 55.0303 45.1899 55.0303C44.9138 55.0303 44.6899 55.2541 44.6899 55.5303C44.6899 55.8064 44.9138 56.0303 45.1899 56.0303Z" fill="#AEE892"/>
<path d="M14.1899 52.0303C14.4661 52.0303 14.6899 51.8064 14.6899 51.5303C14.6899 51.2541 14.4661 51.0303 14.1899 51.0303C13.9138 51.0303 13.6899 51.2541 13.6899 51.5303C13.6899 51.8064 13.9138 52.0303 14.1899 52.0303Z" fill="#AEE892"/>
<path d="M60.1899 31.0303C60.4661 31.0303 60.6899 30.8064 60.6899 30.5303C60.6899 30.2541 60.4661 30.0303 60.1899 30.0303C59.9138 30.0303 59.6899 30.2541 59.6899 30.5303C59.6899 30.8064 59.9138 31.0303 60.1899 31.0303Z" fill="#AEE892"/>
<path d="M5.18994 37.0303C5.46608 37.0303 5.68994 36.8064 5.68994 36.5303C5.68994 36.2541 5.46608 36.0303 5.18994 36.0303C4.9138 36.0303 4.68994 36.2541 4.68994 36.5303C4.68994 36.8064 4.9138 37.0303 5.18994 37.0303Z" fill="#AEE892"/>
<path d="M57.1899 55.0303C57.4661 55.0303 57.6899 54.8064 57.6899 54.5303C57.6899 54.2541 57.4661 54.0303 57.1899 54.0303C56.9138 54.0303 56.6899 54.2541 56.6899 54.5303C56.6899 54.8064 56.9138 55.0303 57.1899 55.0303Z" fill="#AEE892"/>
<path d="M41.6899 10.0303V47.6303C41.6899 48.9603 45.2699 50.0303 49.6899 50.0303C54.1099 50.0303 57.6899 48.9603 57.6899 47.6303V10.0303H41.6899Z" fill="#FF4757"/>
<path d="M44.6899 10.0303H41.6899V47.6303C41.6899 48.3903 42.8599 49.0603 44.6899 49.5003V10.0303Z" fill="#FF2C46"/>
<path d="M49.6899 12.8103C45.2699 12.8103 41.6899 12.0103 41.6899 11.0303V12.0303C41.6899 13.0303 45.2699 13.8103 49.6899 13.8103C54.1099 13.8103 57.6899 13.0303 57.6899 12.0303V11.0303C57.6899 12.0303 54.1099 12.8103 49.6899 12.8103Z" fill="#FF2C46"/>
<path d="M49.6899 19.8103C45.2699 19.8103 41.6899 19.0103 41.6899 18.0303V19.0303C41.6899 20.0303 45.2699 20.8103 49.6899 20.8103C54.1099 20.8103 57.6899 20.0303 57.6899 19.0303V18.0303C57.6899 19.0303 54.1099 19.8103 49.6899 19.8103Z" fill="#FF2C46"/>
<path d="M49.6899 26.8103C45.2699 26.8103 41.6899 26.0103 41.6899 25.0303V26.0303C41.6899 27.0303 45.2699 27.8103 49.6899 27.8103C54.1099 27.8103 57.6899 27.0303 57.6899 26.0303V25.0303C57.6899 26.0303 54.1099 26.8103 49.6899 26.8103Z" fill="#FF2C46"/>
<path d="M49.6899 33.8103C45.2699 33.8103 41.6899 33.0103 41.6899 32.0303V33.0303C41.6899 34.0303 45.2699 34.8103 49.6899 34.8103C54.1099 34.8103 57.6899 34.0303 57.6899 33.0303V32.0303C57.6899 33.0303 54.1099 33.8103 49.6899 33.8103Z" fill="#FF2C46"/>
<path d="M49.6899 40.8103C45.2699 40.8103 41.6899 40.0103 41.6899 39.0303V40.0303C41.6899 41.0303 45.2699 41.8103 49.6899 41.8103C54.1099 41.8103 57.6899 41.0303 57.6899 40.0303V39.0303C57.6899 40.0303 54.1099 40.8103 49.6899 40.8103Z" fill="#FF2C46"/>
<path d="M57.6899 11.0303C57.6899 12.0303 54.1099 12.8103 49.6899 12.8103C45.2699 12.8103 41.6899 12.0303 41.6899 11.0303V10.0303H57.6899V11.0303Z" fill="#F1F2F6"/>
<path d="M49.6899 2.03027C47.5682 2.03027 45.5334 2.87313 44.0331 4.37342C42.5328 5.87371 41.6899 7.90854 41.6899 10.0303C41.6899 11.0303 45.2699 11.8103 49.6899 11.8103C54.1099 11.8103 57.6899 11.0303 57.6899 10.0303C57.6899 7.90854 56.8471 5.87371 55.3468 4.37342C53.8465 2.87313 51.8117 2.03027 49.6899 2.03027Z" fill="#41343B"/>
<path d="M9.68994 13.0303L5.68994 19.0303V31.0303L9.68994 25.0303L24.6899 19.0303V7.03027L9.68994 13.0303Z" fill="#51474D"/>
<path d="M39.6899 13.0303L24.6899 7.03027V19.0303L39.6899 25.0303L43.6899 31.0303V19.0303L39.6899 13.0303Z" fill="#41343B"/>
<path d="M38.6899 27.0303L24.6899 21.0303L10.6899 27.0303L7.68994 30.0303V50.0303H24.6899H41.6899V30.0303L38.6899 27.0303Z" fill="#FF4757"/>
<path d="M38.6899 27.0303L24.6899 21.0303L10.6899 27.0303L7.68994 32.0303L10.6899 29.0303L24.6899 23.0303L38.6899 29.0303L41.6899 32.0303L38.6899 27.0303Z" fill="#FF2C46"/>
<path d="M24.6899 21.0303L38.6899 27.0303L41.6899 32.0303L43.6899 31.0303L39.6899 25.0303L24.6899 19.0303L9.68994 25.0303L5.68994 31.0303L7.68994 32.0303L10.6899 27.0303L24.6899 21.0303Z" fill="#F1F2F6"/>
<path d="M24.6899 21.0303L38.6899 27.0303L41.6899 32.0303L43.6899 31.0303L39.6899 25.0303L24.6899 19.0303V21.0303Z" fill="#DFE4EA"/>
<path d="M14.6899 38.0303H24.6899V50.0303H14.6899V38.0303Z" fill="white"/>
<path d="M15.6899 39.0303H23.6899V49.0303H15.6899V39.0303Z" fill="#8E7578"/>
<path d="M15.6899 39.0303H23.6899V40.0303H15.6899V39.0303Z" fill="#6F5F6A"/>
<path d="M15.6899 38.0303L14.6899 39.0303L23.6899 50.0303L24.6899 49.0303L15.6899 38.0303Z" fill="white"/>
<path d="M23.6899 38.0303L24.6899 39.0303L15.6899 50.0303L14.6899 49.0303L23.6899 38.0303Z" fill="white"/>
<path d="M24.6899 38.0303H34.6899V50.0303H24.6899V38.0303Z" fill="white"/>
<path d="M25.6899 39.0303H33.6899V49.0303H25.6899V39.0303Z" fill="#8E7578"/>
<path d="M25.6899 39.0303H33.6899V40.0303H25.6899V39.0303Z" fill="#6F5F6A"/>
<path d="M25.6899 38.0303L24.6899 39.0303L33.6899 50.0303L34.6899 49.0303L25.6899 38.0303Z" fill="white"/>
<path d="M33.6899 38.0303L34.6899 39.0303L25.6899 50.0303L24.6899 49.0303L33.6899 38.0303Z" fill="white"/>
<path d="M19.6899 27.0303H29.6899V33.0303H19.6899V27.0303Z" fill="#8E7578"/>
<path d="M19.6899 33.0303H29.6899V34.0303H19.6899V33.0303Z" fill="white"/>
<path d="M19.6899 27.0303H29.6899V28.0303H19.6899V27.0303Z" fill="#6F5F6A"/>
<path d="M26.6899 27.0303H27.6899V33.0303H26.6899V27.0303Z" fill="white"/>
<path d="M21.6899 27.0303H22.6899V33.0303H21.6899V27.0303Z" fill="white"/>
<path d="M57.6899 52.0303C58.7945 52.0303 59.6899 51.5826 59.6899 51.0303C59.6899 50.478 58.7945 50.0303 57.6899 50.0303C56.5854 50.0303 55.6899 50.478 55.6899 51.0303C55.6899 51.5826 56.5854 52.0303 57.6899 52.0303Z" fill="#3C9954"/>
<path d="M57.6899 48.5303H56.6899C56.2921 48.5303 55.9106 48.3722 55.6293 48.0909C55.348 47.8096 55.1899 47.4281 55.1899 47.0303V46.0303H56.1899V47.0303C56.1899 47.1629 56.2426 47.2901 56.3364 47.3838C56.4302 47.4776 56.5573 47.5303 56.6899 47.5303H57.6899V48.5303Z" fill="#BF624C"/>
<path d="M57.6899 48.5303H58.6899C59.0878 48.5303 59.4693 48.3722 59.7506 48.0909C60.0319 47.8096 60.1899 47.4281 60.1899 47.0303V46.0303H59.1899V47.0303C59.1899 47.1629 59.1373 47.2901 59.0435 47.3838C58.9497 47.4776 58.8225 47.5303 58.6899 47.5303H57.6899V48.5303Z" fill="#BF624C"/>
<path d="M58.1899 51.0303H57.1899C57.0573 51.0303 56.9302 50.9776 56.8364 50.8838C56.7426 50.7901 56.6899 50.6629 56.6899 50.5303V45.0303H58.6899V50.5303C58.6899 50.6629 58.6373 50.7901 58.5435 50.8838C58.4497 50.9776 58.3225 51.0303 58.1899 51.0303Z" fill="#BF624C"/>
<path d="M59.69 47.0303C60.2984 47.0312 60.8928 46.847 61.3941 46.5023C61.8955 46.1575 62.2802 45.6685 62.4972 45.1C62.7141 44.5316 62.7531 43.9106 62.6089 43.3195C62.4648 42.7283 62.1443 42.195 61.69 41.7903C61.6413 41.213 61.4265 40.6623 61.0716 40.2044C60.7167 39.7466 60.2368 39.4013 59.69 39.2103C59.6949 39.1504 59.6949 39.0902 59.69 39.0303C59.69 38.4998 59.4792 37.9911 59.1042 37.6161C58.7291 37.241 58.2204 37.0303 57.69 37.0303C57.1595 37.0303 56.6508 37.241 56.2757 37.6161C55.9007 37.9911 55.69 38.4998 55.69 39.0303C55.685 39.0902 55.685 39.1504 55.69 39.2103C55.1431 39.4013 54.6632 39.7466 54.3083 40.2044C53.9534 40.6623 53.7386 41.213 53.69 41.7903C53.2356 42.195 52.9151 42.7283 52.771 43.3195C52.6268 43.9106 52.6658 44.5316 52.8828 45.1C53.0997 45.6685 53.4844 46.1575 53.9858 46.5023C54.4872 46.847 55.0815 47.0312 55.69 47.0303H59.69Z" fill="#3C9954"/>
<path d="M61.6899 41.7903C61.6413 41.213 61.4265 40.6623 61.0716 40.2044C60.7167 39.7466 60.2368 39.4013 59.6899 39.2103C59.6949 39.1504 59.6949 39.0902 59.6899 39.0303C59.6899 38.4998 59.4792 37.9911 59.1042 37.6161C58.7291 37.241 58.2204 37.0303 57.6899 37.0303C57.5211 37.0332 57.3531 37.0567 57.1899 37.1003C57.6182 37.2108 57.9977 37.4602 58.2691 37.8095C58.5405 38.1587 58.6885 38.588 58.6899 39.0303C58.6949 39.0902 58.6949 39.1504 58.6899 39.2103C59.2368 39.4013 59.7167 39.7466 60.0716 40.2044C60.4265 40.6623 60.6413 41.213 60.6899 41.7903C61.1443 42.195 61.4648 42.7283 61.6089 43.3195C61.7531 43.9106 61.7141 44.5316 61.4971 45.1C61.2802 45.6685 60.8955 46.1575 60.3941 46.5023C59.8927 46.847 59.2984 47.0312 58.6899 47.0303H59.6899C60.2984 47.0312 60.8927 46.847 61.3941 46.5023C61.8955 46.1575 62.2802 45.6685 62.4971 45.1C62.7141 44.5316 62.7531 43.9106 62.6089 43.3195C62.4648 42.7283 62.1443 42.195 61.6899 41.7903Z" fill="#307549"/>
<path d="M7.68994 52.0303C8.79451 52.0303 9.68994 51.5826 9.68994 51.0303C9.68994 50.478 8.79451 50.0303 7.68994 50.0303C6.58537 50.0303 5.68994 50.478 5.68994 51.0303C5.68994 51.5826 6.58537 52.0303 7.68994 52.0303Z" fill="#3C9954"/>
<path d="M7.68994 48.5303H6.68994C6.29212 48.5303 5.91059 48.3722 5.62928 48.0909C5.34798 47.8096 5.18994 47.4281 5.18994 47.0303V46.0303H6.18994V47.0303C6.18994 47.1629 6.24262 47.2901 6.33639 47.3838C6.43016 47.4776 6.55733 47.5303 6.68994 47.5303H7.68994V48.5303Z" fill="#BF624C"/>
<path d="M7.68994 48.5303H8.68994C9.08777 48.5303 9.4693 48.3722 9.7506 48.0909C10.0319 47.8096 10.1899 47.4281 10.1899 47.0303V46.0303H9.18994V47.0303C9.18994 47.1629 9.13726 47.2901 9.0435 47.3838C8.94973 47.4776 8.82255 47.5303 8.68994 47.5303H7.68994V48.5303Z" fill="#BF624C"/>
<path d="M8.18994 51.0303H7.18994C7.05733 51.0303 6.93016 50.9776 6.83639 50.8838C6.74262 50.7901 6.68994 50.6629 6.68994 50.5303V45.0303H8.68994V50.5303C8.68994 50.6629 8.63726 50.7901 8.54349 50.8838C8.44973 50.9776 8.32255 51.0303 8.18994 51.0303Z" fill="#BF624C"/>
<path d="M9.68996 47.0303C10.2984 47.0312 10.8928 46.847 11.3941 46.5023C11.8955 46.1575 12.2802 45.6685 12.4971 45.1C12.7141 44.5316 12.7531 43.9106 12.6089 43.3195C12.4648 42.7283 12.1443 42.195 11.69 41.7903C11.6413 41.213 11.4265 40.6623 11.0716 40.2044C10.7167 39.7466 10.2368 39.4013 9.68996 39.2103C9.69487 39.1504 9.69487 39.0902 9.68996 39.0303C9.68996 38.4998 9.47924 37.9911 9.10417 37.6161C8.7291 37.241 8.22039 37.0303 7.68996 37.0303C7.15952 37.0303 6.65082 37.241 6.27574 37.6161C5.90067 37.9911 5.68996 38.4998 5.68996 39.0303C5.68504 39.0902 5.68504 39.1504 5.68996 39.2103C5.14309 39.4013 4.66322 39.7466 4.30832 40.2044C3.95341 40.6623 3.73865 41.213 3.68996 41.7903C3.23564 42.195 2.91514 42.7283 2.77097 43.3195C2.62681 43.9106 2.66579 44.5316 2.88276 45.1C3.09973 45.6685 3.48442 46.1575 3.98579 46.5023C4.48716 46.847 5.0815 47.0312 5.68996 47.0303H9.68996Z" fill="#3C9954"/>
<path d="M11.6899 41.7903C11.6413 41.213 11.4265 40.6623 11.0716 40.2044C10.7167 39.7466 10.2368 39.4013 9.68994 39.2103C9.69486 39.1504 9.69486 39.0902 9.68994 39.0303C9.68994 38.4998 9.47923 37.9911 9.10415 37.6161C8.72908 37.241 8.22037 37.0303 7.68994 37.0303C7.52105 37.0332 7.35315 37.0567 7.18994 37.1003C7.61818 37.2108 7.99769 37.4602 8.2691 37.8095C8.54051 38.1587 8.68851 38.588 8.68994 39.0303C8.69486 39.0902 8.69486 39.1504 8.68994 39.2103C9.23681 39.4013 9.71667 39.7466 10.0716 40.2044C10.4265 40.6623 10.6413 41.213 10.6899 41.7903C11.1443 42.195 11.4648 42.7283 11.6089 43.3195C11.7531 43.9106 11.7141 44.5316 11.4971 45.1C11.2802 45.6685 10.8955 46.1575 10.3941 46.5023C9.89274 46.847 9.2984 47.0312 8.68994 47.0303H9.68994C10.2984 47.0312 10.8927 46.847 11.3941 46.5023C11.8955 46.1575 12.2802 45.6685 12.4971 45.1C12.7141 44.5316 12.7531 43.9106 12.6089 43.3195C12.4648 42.7283 12.1443 42.195 11.6899 41.7903Z" fill="#307549"/>
</svg>
