<svg id="Capa_1" enable-background="new 0 0 512 512" height="512" viewBox="0 0 512 512" width="512" xmlns="http://www.w3.org/2000/svg"><g><g><g><path d="m290.602 121.132h-69.203c-40.562 14.586-71.839 53.891-80.85 100.846h230.903c-9.011-46.955-40.288-86.26-80.85-100.846z" fill="#ffc344"/><path d="m290.602 121.132h-20c40.562 14.586 71.839 53.891 80.85 100.846h20c-9.011-46.955-40.288-86.26-80.85-100.846z" fill="#fe9901"/><path d="m485.24 216.978c-7.174-13.992-21.732-23.573-38.537-23.573s-31.362 9.581-38.537 23.573h-304.333c-7.174-13.992-21.732-23.573-38.537-23.573s-31.362 9.581-38.537 23.573h-14.259c-2.761 0-5 2.239-5 5v76.854h497v-76.854c0-2.761-2.239-5-5-5z" fill="#ffefd2"/><path d="m499.5 216.978h-14.26c-7.174-13.992-21.732-23.573-38.537-23.573-5.036 0-9.864.876-14.358 2.458 14.288 5.032 20.456 16.929 22.572 27.348.21 1.034 1.13 1.767 2.185 1.767h12.398c2.761 0 5 2.239 5 5v68.854h30v-76.854c0-2.762-2.239-5-5-5z" fill="#fedba6"/><path d="m7.5 327.893v147.054c0 2.761 2.239 5 5 5h487c2.761 0 5-2.239 5-5v-147.054z" fill="#fece85"/><path d="m474.5 327.893v147.054c0 2.761-2.239 5-5 5h30c2.761 0 5-2.239 5-5v-147.054z" fill="#fec165"/><path d="m7.5 298.832h497v29.061h-497z" fill="#c5d3dd"/><path d="m474.5 298.832h30v29.061h-30z" fill="#9facba"/><g fill="#ffefd2"><path d="m310.934 327.893h29.989v152.054h-29.989z"/><path d="m171.077 327.893h29.989v152.054h-29.989z"/></g><path d="m154.729 298.832h202.541v29.061h-202.541z" fill="#9facba"/><path d="m178.546 298.832 74.65-50.574c1.694-1.147 3.915-1.147 5.609 0l74.65 50.574z" fill="#ffc344"/><g fill="#2abcc8"><path d="m431.804 244.458v23.799c0 1.657 1.343 3 3 3h23.799c1.657 0 3-1.343 3-3v-23.799c0-1.657-1.343-3-3-3h-23.799c-1.657 0-3 1.343-3 3z"/><path d="m50.397 244.458v23.799c0 1.657 1.343 3 3 3h23.799c1.657 0 3-1.343 3-3v-23.799c0-1.657-1.343-3-3-3h-23.799c-1.657 0-3 1.343-3 3z"/><path d="m355.812 244.458v23.799c0 1.657 1.343 3 3 3h23.799c1.657 0 3-1.343 3-3v-23.799c0-1.657-1.343-3-3-3h-23.799c-1.657 0-3 1.343-3 3z"/><path d="m126.389 244.458v23.799c0 1.657 1.343 3 3 3h23.799c1.657 0 3-1.343 3-3v-23.799c0-1.657-1.343-3-3-3h-23.799c-1.657 0-3 1.343-3 3z"/></g><path d="m236.567 422.074h43.584v57.873h-43.584z" fill="#685e68"/><path d="m374.095 422.074h31.5v57.873h-31.5z" fill="#685e68"/><path d="m240.175 370.837v18.181h31.65v-18.181c0-8.74-7.085-15.825-15.825-15.825s-15.825 7.085-15.825 15.825z" fill="#7bacdf"/><path d="m374.02 370.837v18.181h31.65v-18.181c0-8.74-7.085-15.825-15.825-15.825s-15.825 7.085-15.825 15.825z" fill="#7bacdf"/><path d="m437.213 422.074h31.5v57.873h-31.5z" fill="#685e68"/><path d="m437.137 370.837v18.181h31.65v-18.181c0-8.74-7.085-15.825-15.825-15.825-8.739 0-15.825 7.085-15.825 15.825z" fill="#7bacdf"/><g><path d="m41.98 422.074h31.5v57.873h-31.5z" fill="#685e68"/><path d="m41.905 370.837v18.181h31.65v-18.181c0-8.74-7.085-15.825-15.825-15.825s-15.825 7.085-15.825 15.825z" fill="#7bacdf"/><path d="m105.097 422.074h31.5v57.873h-31.5z" fill="#685e68"/><path d="m105.022 370.837v18.181h31.65v-18.181c0-8.74-7.085-15.825-15.825-15.825s-15.825 7.085-15.825 15.825z" fill="#7bacdf"/></g><path d="m221.398 86.247h69.203v34.884h-69.203z" fill="#ffefd2"/><path d="m270.602 86.247h20v34.884h-20z" fill="#fedba6"/><path d="m252.379 53.711-30.98 32.537h69.203l-30.98-32.537c-1.971-2.07-5.273-2.07-7.243 0z" fill="#ffc344"/></g></g><g><path d="m499.5 209.479h-9.916c-7.938-12.532-20.825-20.852-35.38-23.002v-15.974c0-4.143-3.357-7.5-7.5-7.5s-7.5 3.357-7.5 7.5v15.974c-14.554 2.15-27.442 10.469-35.381 23.002h-27.576c-11.584-43.009-40.893-78.068-78.146-93.471v-29.76c0-1.839-.731-3.768-2.068-5.172l-30.979-32.535c-.478-.502-1.004-.948-1.554-1.36v-15.13c0-4.143-3.357-7.5-7.5-7.5s-7.5 3.357-7.5 7.5v15.13c-.549.412-1.075.858-1.553 1.359l-30.98 32.536c-1.343 1.409-2.068 3.338-2.068 5.172v29.748c-12.905 5.328-24.952 13.038-35.868 22.979-3.062 2.788-3.284 7.532-.495 10.595 2.783 3.057 7.528 3.289 10.595.495 10.506-9.567 22.151-16.769 34.625-21.434h1.594c-12.115 18.052-21.144 46.609-25.296 80.847h-47.71c3.633-12.115 8.854-23.549 15.589-34.09 2.23-3.491 1.208-8.128-2.282-10.358-3.489-2.229-8.128-1.207-10.358 2.282-8.28 12.96-14.5 27.121-18.54 42.166h-27.574c-7.939-12.533-20.826-20.853-35.381-23.002v-15.974c0-4.143-3.357-7.5-7.5-7.5s-7.5 3.357-7.5 7.5v15.974c-14.554 2.15-27.442 10.47-35.38 23.002h-9.918c-6.893 0-12.5 5.607-12.5 12.5v252.969c0 6.893 5.607 12.5 12.5 12.5h487c6.893 0 12.5-5.607 12.5-12.5v-39.576c0-4.143-3.357-7.5-7.5-7.5s-7.5 3.357-7.5 7.5v37.076h-20.787v-50.373c0-4.143-3.357-7.5-7.5-7.5h-31.5c-4.143 0-7.5 3.357-7.5 7.5v50.373h-16.617v-50.373c0-4.143-3.357-7.5-7.5-7.5h-31.5c-4.143 0-7.5 3.357-7.5 7.5v50.373h-18.173v-137.052h148.577v64.978c0 4.143 3.357 7.5 7.5 7.5s7.5-3.357 7.5-7.5v-178.394c0-6.892-5.607-12.5-12.5-12.5zm-337.271 110.916v-14.061h187.541v14.061zm110.421 152.053h-28.584v-42.873h28.584zm7.5-57.873h-43.584c-4.143 0-7.5 3.357-7.5 7.5v50.373h-20.5v-137.053h94.867v137.054h-15.783v-50.373c0-4.143-3.357-7.501-7.5-7.501zm-86.584-79.18v137.054h-14.989v-137.054zm-178.566-15v-14.061h132.229v14.061zm187.988-29.061 53.012-35.915 53.012 35.915zm161.783 15h132.229v14.061h-132.229zm-4.116-96.855h-47.708c-4.152-34.238-13.181-62.794-25.296-80.847h1.573c33.343 12.471 60.028 42.886 71.431 80.847zm-89.495-95.846h-42.261v-19.884h54.203v19.884zm-15.16-52.847 17.104 17.963h-34.208zm-12.334 67.847h24.669c13.524 12.928 24.72 43.698 29.497 80.847h-83.663c4.776-37.149 15.973-67.919 29.497-80.847zm-228.666 95.846h11.76c2.813 0 5.391-1.574 6.674-4.078 6.166-12.025 18.375-19.495 31.862-19.495s25.696 7.471 31.863 19.495c1.284 2.504 3.86 4.078 6.674 4.078h304.334c2.813 0 5.39-1.574 6.674-4.078 6.167-12.024 18.376-19.495 31.863-19.495s25.696 7.47 31.862 19.495c1.283 2.504 3.86 4.078 6.674 4.078h11.76v66.854h-161.244l-72.744-49.283c-4.259-2.887-9.763-2.887-14.023 0l-72.744 49.283h-161.245zm0 110.916h148.577v137.054h-19.479v-50.373c0-4.143-3.357-7.5-7.5-7.5h-31.5c-4.143 0-7.5 3.357-7.5 7.5v50.373h-16.619v-50.373c0-4.143-3.357-7.5-7.5-7.5h-31.5c-4.143 0-7.5 3.357-7.5 7.5v50.373h-19.479zm114.098 137.053h-16.5v-42.873h16.5zm-63.119 0h-16.5v-42.873h16.5zm378.734-42.873h16.5v42.873h-16.5zm-63.117 0h16.5v42.873h-16.5zm-48.173 42.873h-14.989v-137.053h14.989z"/><path d="m434.804 278.759h23.8c5.79 0 10.5-4.71 10.5-10.5v-23.799c0-5.79-4.71-10.5-10.5-10.5h-23.8c-5.79 0-10.5 4.71-10.5 10.5v23.799c0 5.79 4.71 10.5 10.5 10.5zm4.5-29.799h14.8v14.799h-14.8z"/><path d="m77.196 233.96h-23.8c-5.79 0-10.5 4.71-10.5 10.5v23.799c0 5.79 4.71 10.5 10.5 10.5h23.8c5.79 0 10.5-4.71 10.5-10.5v-23.799c0-5.79-4.71-10.5-10.5-10.5zm-4.5 29.799h-14.8v-14.799h14.8z"/><path d="m358.812 278.759h23.8c5.79 0 10.5-4.71 10.5-10.5v-23.799c0-5.79-4.71-10.5-10.5-10.5h-23.8c-5.79 0-10.5 4.71-10.5 10.5v23.799c0 5.79 4.709 10.5 10.5 10.5zm4.5-29.799h14.8v14.799h-14.8z"/><path d="m163.688 268.259v-23.799c0-5.79-4.71-10.5-10.5-10.5h-23.8c-5.79 0-10.5 4.71-10.5 10.5v23.799c0 5.79 4.71 10.5 10.5 10.5h23.8c5.791 0 10.5-4.71 10.5-10.5zm-15-4.5h-14.8v-14.799h14.8z"/><path d="m256 347.514c-12.861 0-23.325 10.464-23.325 23.325v18.182c0 4.143 3.357 7.5 7.5 7.5h31.65c4.143 0 7.5-3.357 7.5-7.5v-18.182c0-12.861-10.464-23.325-23.325-23.325zm8.325 34.007h-16.65v-10.682c0-4.591 3.734-8.325 8.325-8.325s8.325 3.734 8.325 8.325z"/><path d="m366.52 370.839v18.182c0 4.143 3.357 7.5 7.5 7.5h31.65c4.143 0 7.5-3.357 7.5-7.5v-18.182c0-12.861-10.464-23.325-23.325-23.325s-23.325 10.464-23.325 23.325zm31.65 0v10.682h-16.65v-10.682c0-4.591 3.734-8.325 8.325-8.325s8.325 3.734 8.325 8.325z"/><path d="m429.638 370.839v18.182c0 4.143 3.357 7.5 7.5 7.5h31.65c4.143 0 7.5-3.357 7.5-7.5v-18.182c0-12.861-10.464-23.325-23.325-23.325s-23.325 10.464-23.325 23.325zm31.65 0v10.682h-16.65v-10.682c0-4.591 3.734-8.325 8.325-8.325s8.325 3.734 8.325 8.325z"/><path d="m41.904 396.521h31.65c4.143 0 7.5-3.357 7.5-7.5v-18.182c0-12.861-10.464-23.325-23.325-23.325s-23.325 10.464-23.325 23.325v18.182c0 4.142 3.358 7.5 7.5 7.5zm7.5-25.682c0-4.591 3.734-8.325 8.325-8.325s8.325 3.734 8.325 8.325v10.682h-16.65z"/><path d="m105.021 396.521h31.65c4.143 0 7.5-3.357 7.5-7.5v-18.182c0-12.861-10.464-23.325-23.325-23.325s-23.325 10.464-23.325 23.325v18.182c0 4.142 3.358 7.5 7.5 7.5zm7.5-25.682c0-4.591 3.734-8.325 8.325-8.325s8.325 3.734 8.325 8.325v10.682h-16.65z"/></g></g></svg>