<svg id="&#x421;&#x43B;&#x43E;&#x439;_1" enable-background="new 0 0 300 300" viewBox="0 0 300 300" xmlns="http://www.w3.org/2000/svg"><g><g><g><path d="m293.245 267.09-24.019 25.243c-2.326 2.447-6.186 2.533-8.633.207l-8.529-8.116-2.395-2.533c-11.82 2.033-24.433-1.344-33.738-10.201l-26.622-25.312-.499-.31-.827-.758-.707-.672c-3.153-2.946-3.308-7.943-.362-11.079 1.533-1.654 3.636-2.481 5.738-2.481 1.912 0 3.842.689 5.341 2.102l2.843 2.653h18.523c8.667 0 15.697-7.013 15.714-15.663l.103-38.441 8.202 7.823 1.499 1.413 25.122 23.916c9.219 8.753 13.216 21.021 11.889 32.824l.276.396 10.873 10.355c2.448 2.328 2.534 6.187.208 8.634z" fill="#fae2c3"/></g><g opacity=".3"><path d="m200.838 235.834h18.523c8.667 0 15.697-7.013 15.714-15.663l.069-24.554.035-13.888 8.202 7.823 1.499 1.413v.017l25.122 23.899c9.219 8.753 13.216 21.021 11.889 32.824l.276.396 10.873 10.355c2.447 2.326 2.533 6.186.207 8.633l-24.019 25.243c-2.326 2.447-6.186 2.533-8.633.207l-3.239-3.084 18.333-19.419c2.326-2.447 2.24-6.306-.207-8.633l-2.223-2.154c-4.842-4.67-5.238-13.75-5.996-20.435-1-8.839-4.98-17.368-11.872-23.933l-3.257-3.098c-2.764-2.628-7.331-.68-7.347 3.134l-.234 11.681c-.017 8.736-13.544 19.057-22.331 19.023l-11.079-.224z" fill="#ff9e4a"/></g><g><path d="m216.157 274.454-30.641-28.656c-2.028-1.897-3.197-4.478-3.29-7.268s.9-5.444 2.797-7.472c3.927-4.2 10.539-4.421 14.74-.493l21.682 20.347c8.967-8.113 21.965-11.499 31.199-2.712l-3.564 3.745c-7.447-7.088-18.61-3.163-25.785 4.377l-1.825 1.917-4.737-4.728-20.502-19.172c-2.118-1.981-5.452-1.869-7.434.249-.954 1.02-1.453 2.358-1.405 3.768.047 1.41.635 2.712 1.654 3.665l30.641 28.656z" fill="#142e59"/></g><g><path d="m279.895 262.139c8.773-17.063 4.973-37.411-8.831-50.547-8.235-7.836-16.47-15.673-24.704-23.509-3.119-2.968-6.239-5.937-9.358-8.905-2.41-2.293-6.071 1.356-3.655 3.655 6.245 5.942 12.489 11.885 18.734 17.827 4.482 4.266 8.965 8.531 13.447 12.797 4.333 4.123 8.241 8.381 10.776 13.914 4.662 10.179 4.227 22.243-.871 32.159-1.52 2.954 2.939 5.572 4.462 2.609z" fill="#142e59"/></g><g><path d="m280.334 249.202c3.255 3.097 6.509 6.194 9.764 9.292 1.768 1.682 3.227 3.714 1.325 6.045-.597.732-1.323 1.39-1.973 2.074-6.971 7.325-13.942 14.651-20.913 21.976-1.02 1.072-1.947 2.261-3.578 2.328-2.182.09-3.874-2.198-5.308-3.563-1.809-1.722-3.644-3.421-5.43-5.167-1.297-1.269-2.596-3.497-4.553-3.609-1.021-.059-2.272.336-3.3.424-1.104.095-2.213.144-3.322.147-2.436.006-4.866-.209-7.254-.692-4.671-.944-9.088-2.745-13.071-5.361-3.463-2.275-6.366-5.288-9.355-8.133-7.407-7.049-14.814-14.097-22.221-21.146-2.41-2.293-6.071 1.356-3.655 3.655 5.314 5.057 10.629 10.115 15.943 15.172 6.269 5.966 12.454 12.987 20.23 16.987 8.266 4.252 17.555 5.512 26.692 4.023-.838-.222-1.676-.443-2.515-.665 3.472 3.679 7.119 7.255 10.893 10.624 3.652 3.26 8.847 3.212 12.371-.226 1.243-1.213 2.403-2.525 3.6-3.783 4.903-5.153 9.806-10.305 14.71-15.458 3.699-3.887 9.445-8.19 7.796-14.281-.908-3.352-4.152-5.688-6.56-7.98-2.22-2.113-4.44-4.225-6.66-6.338-2.411-2.293-6.072 1.356-3.656 3.655z" fill="#142e59"/></g><g><path d="m252.69 248.245c-5.366-5.942-14.586-6.643-21.591-3.681-4.374 1.849-8.148 4.828-11.503 8.149-2.368 2.344 1.287 5.999 3.655 3.655 3.202-3.169 6.888-6.164 11.232-7.59 2.688-.883 5.469-1.078 7.824-.543.61.139 1.212.313 1.802.522.208.074.415.153.621.234-.582-.23.245.113.348.162.822.391 1.612.849 2.36 1.368.165.114.325.235.488.352.382.273-.494-.436 0 .006.186.166.383.32.567.489.186.171.372.344.542.532 2.234 2.474 5.88-1.19 3.655-3.655z" fill="#142e59"/></g></g><path d="m235.159 117.177-.124 34.425-26.597-.096-.026 7.133c-.028 7.809-5.529 14.765-13.211 15.939-9.682 1.48-18.077-6.122-18.044-15.575l.027-7.609-26.093-.094.096-26.697 7.418.027c9.406.034 16.971-8.405 15.499-18.135-1.169-7.72-8.089-13.248-15.859-13.276l-6.944-.025.094-26.258 68.123.245c8.737.031 15.794 7.175 15.763 15.956l-.063 17.631z" fill="#fff45e"/><g opacity=".4"><path d="m206.928 67.136 12.588.045c8.736.034 15.8 7.168 15.766 15.955l-.069 17.627-.052 16.421-.121 34.41-12.819-.035.121-34.375.052-16.421.069-17.627c.035-8.788-7.03-15.921-15.766-15.955z" fill="#ff861c"/></g><path d="m116.708 66.809 34.425.124-.096 26.597 7.133.026c7.809.028 14.765 5.529 15.939 13.211 1.48 9.682-6.122 18.077-15.575 18.044l-7.609-.027-.094 26.093-26.697-.096.027-7.418c.034-9.406-8.405-16.971-18.135-15.499-7.72 1.169-13.248 8.089-13.276 15.859l-.025 6.944-26.258-.094.245-68.123c.031-8.737 7.175-15.794 15.956-15.763l17.632.063z" fill="#ff6969"/><g><path d="m235.04 151.645-.241 68.113c-.017 4.049-1.568 7.754-4.118 10.545-2.895 3.222-7.134 5.238-11.838 5.221l-15.418-1.533-4.403-4.051c-1.637-1.533-4.603-2.183-6.688-2.183-2.309 0-5.358 1.173-7.03 2.982-1.327 1.413-2.086 2.865-2.258 4.657l-32.661-.114.035-12.785.052-13.819-7.134-.017c-7.805-.034-14.767-5.531-15.938-13.216-1.482-9.684 6.117-18.075 15.577-18.04l7.616.017.086-26.087 26.69.103-.017 7.409c-.035 9.408 8.409 16.972 18.127 15.508 7.719-1.172 13.25-8.098 13.285-15.869l.017-6.944 13.371.052z" fill="#6ed6ff"/><g opacity=".3"><path d="m235.04 151.645-.241 68.113c-.017 4.049-1.568 7.754-4.118 10.545-2.895 3.222-7.134 5.238-11.838 5.221l-15.418-1.533-4.403-4.051c-1.637-1.533-4.603-2.183-6.688-2.183-2.309 0-5.358 1.173-7.03 2.982-1.327 1.413-2.086 2.865-2.258 4.657l-32.661-.114.035-12.785 21.538.069 16.421.052 17.627.069c8.787.034 15.921-7.03 15.956-15.766l.189-55.327z" fill="#233266"/></g></g><path d="m66.523 185.406.124-34.425 26.597.096.026-7.133c.028-7.809 5.529-14.765 13.211-15.939 9.682-1.48 18.077 6.122 18.043 15.575l-.027 7.609 26.093.094-.096 26.697-7.418-.027c-9.406-.034-16.971 8.405-15.499 18.135 1.169 7.72 8.089 13.248 15.859 13.276l6.944.025-.094 26.258-68.123-.245c-8.737-.031-15.794-7.175-15.763-15.956l.063-17.631z" fill="#fff45e"/><g opacity=".4"><path d="m150.335 209.385h.052l-.103 26.259-68.112-.241c-8.736-.034-15.8-7.168-15.766-15.955l.034-12.303c.534 8.253 7.357 14.818 15.731 14.853l68.112.241z" fill="#ff861c"/></g><g><path d="m72.889 127.19c-2.379 0-4.308-1.929-4.308-4.308v-35.568c-.707-5.962 1.113-11.579 4.897-15.074 3.606-3.33 8.687-4.502 14.305-3.298 2.326.498 3.808 2.788 3.31 5.114s-2.789 3.808-5.114 3.31c-2.883-.618-5.122-.213-6.655 1.203-1.765 1.63-2.594 4.661-2.164 7.911.025.187.037.376.037.565v35.837c-.001 2.379-1.929 4.308-4.308 4.308z" fill="#fff"/></g><g><path d="m68.962 175.989c.03-8.459.061-16.918.091-25.376-.862.862-1.723 1.723-2.585 2.585l26.661.096c1.401.005 2.58-1.188 2.585-2.585.013-3.614-.419-7.599.615-11.102 1.74-5.896 7.187-9.88 13.342-9.546 5.817.316 10.715 4.777 11.951 10.393.724 3.29.262 7.021.25 10.366-.005 1.401 1.188 2.58 2.585 2.585 8.719.031 17.437.063 26.156.094-.862-.862-1.723-1.723-2.585-2.585-.032 8.899-.064 17.798-.096 26.697l2.585-2.585c-3.033-.011-6.158-.247-9.18.064-5.683.585-10.777 3.741-13.818 8.587-6.533 10.41-.567 24.248 11.154 27.281 3.77.976 7.871.631 11.731.645-.862-.862-1.723-1.723-2.585-2.585-.031 8.753-.063 17.505-.094 26.258.862-.862 1.723-1.723 2.585-2.585-11.224-.04-22.447-.081-33.671-.121-1.621-.006-3.242-.012-4.863-.017-3.327-.012-3.331 5.157 0 5.169 11.224.04 22.447.081 33.671.121 1.621.006 3.242.012 4.863.017 1.401.005 2.58-1.188 2.585-2.585.031-8.753.063-17.505.094-26.258.005-1.401-1.188-2.58-2.585-2.585-3.558-.013-7.47.407-10.917-.616-5.776-1.713-9.746-7.047-9.531-13.091.203-5.704 4.339-10.713 9.828-12.148 3.38-.884 7.272-.397 10.733-.384 1.401.005 2.58-1.188 2.585-2.585.032-8.899.064-17.798.096-26.697.005-1.401-1.188-2.58-2.585-2.585-8.719-.031-17.437-.063-26.156-.094.862.862 1.723 1.723 2.585 2.585.011-3.001.23-6.077-.038-9.07-.511-5.711-3.551-10.844-8.36-13.99-10.315-6.748-24.164-.882-27.377 10.752-1.079 3.906-.707 8.183-.722 12.195.862-.862 1.723-1.723 2.585-2.585-8.887-.032-17.774-.064-26.661-.096-1.401-.005-2.58 1.188-2.585 2.585-.03 8.459-.061 16.918-.091 25.376-.012 3.332 5.157 3.336 5.169.005z" fill="#142e59"/></g><g><path d="m184.805 232.818c-11.475-.041-22.95-.082-34.425-.124l2.585 2.585c.032-8.866.064-17.731.096-26.597.005-1.401-1.188-2.58-2.585-2.585-3.614-.013-7.598.418-11.102-.613-5.885-1.732-9.881-7.156-9.546-13.305.317-5.81 4.787-10.686 10.393-11.917 3.291-.722 7.02-.261 10.366-.249 1.401.005 2.58-1.188 2.585-2.585.031-8.698.062-17.396.094-26.093-.862.862-1.723 1.723-2.585 2.585 8.899.032 17.798.064 26.697.096-.862-.862-1.723-1.723-2.585-2.585-.011 3.026-.246 6.143.065 9.158.586 5.676 3.745 10.759 8.587 13.791 10.399 6.51 24.242.585 27.281-11.131.976-3.761.631-7.853.645-11.705-.862.862-1.723 1.723-2.585 2.585 8.753.031 17.505.063 26.258.094-.862-.862-1.723-1.723-2.585-2.585-.047 13.207-.095 26.414-.142 39.621-.028 7.792-.056 15.584-.084 23.376-.006 1.65.01 3.302-.018 4.953-.082 4.927-2.608 9.369-6.968 11.756-3.819 2.09-8.293 1.589-12.488 1.574-3.849-.014-7.698-.028-11.547-.041-3.327-.012-3.331 5.157 0 5.169 3.364.012 6.727.024 10.091.036 3.747.013 7.734.366 11.431-.378 6.441-1.295 11.753-6.214 13.779-12.42.805-2.465.868-4.987.877-7.54.059-16.443.118-32.885.177-49.328.02-5.593.04-11.185.06-16.778.005-1.401-1.188-2.58-2.585-2.585-8.753-.031-17.505-.063-26.258-.094-1.401-.005-2.58 1.188-2.585 2.585-.013 3.548.406 7.452-.615 10.889-1.715 5.77-7.058 9.718-13.091 9.504-5.694-.202-10.711-4.316-12.148-9.8-.883-3.371-.397-7.254-.385-10.706.005-1.401-1.188-2.58-2.585-2.585-8.899-.032-17.798-.064-26.697-.096-1.401-.005-2.58 1.188-2.585 2.585-.031 8.698-.062 17.396-.094 26.093l2.585-2.585c-3.001-.011-6.077-.229-9.07.038-5.707.509-10.841 3.54-13.99 8.343-6.756 10.304-.864 24.12 10.752 27.32 3.907 1.077 8.182.706 12.195.72-.862-.862-1.723-1.723-2.585-2.585-.032 8.866-.064 17.731-.096 26.597-.005 1.401 1.188 2.58 2.585 2.585 11.475.041 22.95.082 34.425.124 3.331.014 3.336-5.155.005-5.167z" fill="#142e59"/></g><g><path d="m232.566 121.909c-.036 9.938-.071 19.875-.107 29.813.862-.862 1.723-1.723 2.585-2.585-8.853-.032-17.705-.064-26.558-.095-1.401-.005-2.58 1.188-2.585 2.585-.013 3.63.418 7.629-.612 11.148-1.724 5.888-7.119 9.929-13.282 9.591-5.822-.319-10.673-4.834-11.896-10.442-.721-3.306-.26-7.049-.248-10.41.005-1.401-1.188-2.58-2.585-2.585-8.685-.031-17.37-.062-26.055-.094l2.585 2.585c.032-8.934.064-17.868.096-26.802-.862.862-1.723 1.723-2.585 2.585 3.021.011 6.135.247 9.145-.065 5.677-.588 10.754-3.767 13.774-8.617 6.482-10.41.625-24.312-11.117-27.374-3.754-.979-7.843-.633-11.689-.647.862.862 1.723 1.723 2.585 2.585.032-8.787.063-17.574.095-26.362-.862.862-1.723 1.723-2.585 2.585 12.164.044 24.327.087 36.491.131 3.327.012 3.331-5.157 0-5.169-12.164-.044-24.327-.087-36.491-.131-1.401-.005-2.58 1.188-2.585 2.585-.032 8.787-.063 17.574-.095 26.362-.005 1.401 1.188 2.58 2.585 2.585 3.543.013 7.442-.407 10.872.618 5.784 1.729 9.7 7.115 9.487 13.153-.202 5.698-4.286 10.758-9.783 12.207-3.364.886-7.243.399-10.689.387-1.401-.005-2.58 1.188-2.585 2.585-.032 8.934-.064 17.868-.096 26.802-.005 1.401 1.188 2.58 2.585 2.585 8.685.031 17.37.062 26.055.094-.862-.862-1.723-1.723-2.585-2.585-.011 3.013-.229 6.101.037 9.106.508 5.718 3.528 10.869 8.333 14.036 10.314 6.799 24.103.826 27.286-10.789 1.075-3.924.705-8.212.72-12.241-.862.862-1.723 1.723-2.585 2.585 8.853.032 17.705.064 26.558.095 1.401.005 2.58-1.188 2.585-2.585.036-9.938.071-19.875.107-29.813.014-3.328-5.156-3.333-5.168-.002z" fill="#142e59"/></g><g><path d="m115.012 70.093c-1.533 1.637-3.636 2.464-5.721 2.464-1.93 0-3.86-.689-5.376-2.102l-2.843-2.653h-18.523c-8.667 0-15.697 7.013-15.714 15.68l-.086 38.424-8.219-7.806-3.635-3.463-22.986-21.866c-9.201-8.771-13.198-21.039-11.889-32.842l-.258-.396-10.873-10.338c-2.447-2.326-2.55-6.203-.224-8.65l24.019-25.243c2.326-2.429 6.203-2.533 8.633-.207l8.546 8.116 2.395 2.55c11.82-2.033 24.433 1.327 33.737 10.183l24.382 23.21 2.223 2.119.499.293 1.534 1.43c3.153 2.947 3.325 7.944.379 11.097z" fill="#fae2c3"/></g><g opacity=".3"><path d="m101.072 67.801h-18.523c-8.667 0-15.697 7.013-15.714 15.68l-.086 38.424-8.219-7.805-3.635-3.463.138-39.872c.034-8.736 7.168-15.783 15.956-15.766l9.51-7.155 8.117 7.224z" fill="#ff9e4a"/></g><g><path d="m116.914 69.184c11.407.041 22.813.082 34.22.123-.862-.862-1.723-1.723-2.585-2.585-.032 8.91-.064 17.82-.096 26.73-.005 1.401 1.188 2.58 2.585 2.585 3.614.013 7.599-.42 11.102.616 5.908 1.748 9.88 7.222 9.545 13.383-.316 5.824-4.765 10.746-10.393 11.989-3.289.726-7.022.263-10.366.251-1.401-.005-2.58 1.188-2.585 2.585-.031 8.741-.063 17.483-.094 26.224l2.585-2.585c-8.899-.032-17.798-.064-26.697-.096.862.862 1.723 1.723 2.585 2.585.011-3.041.247-6.174-.064-9.204-.585-5.692-3.737-10.797-8.587-13.848-10.422-6.557-24.254-.549-27.282 11.179-.976 3.78-.631 7.89-.645 11.76l2.585-2.585c-8.753-.031-17.505-.063-26.258-.094l2.585 2.585c.047-13.124.094-26.247.141-39.371.028-7.831.056-15.662.084-23.493.006-1.772.001-3.544.019-5.316.046-4.542 2.133-8.864 6.011-11.364 3.996-2.576 8.445-2.174 12.96-2.157 3.82.014 7.64.027 11.459.041 3.327.012 3.331-5.157 0-5.169-3.408-.012-6.816-.024-10.224-.037-3.788-.014-7.862-.385-11.564.572-6.34 1.638-11.503 6.778-13.185 13.102-.614 2.307-.625 4.627-.633 6.982-.059 16.49-.118 32.98-.178 49.47-.02 5.58-.04 11.16-.06 16.74-.005 1.401 1.188 2.58 2.585 2.585 8.753.031 17.505.063 26.258.094 1.401.005 2.58-1.188 2.585-2.585.013-3.568-.407-7.49.616-10.947 1.71-5.782 7.035-9.777 13.091-9.561 5.715.204 10.715 4.363 12.148 9.858.884 3.39.397 7.292.384 10.763-.005 1.401 1.188 2.58 2.585 2.585l26.697.096c1.401.005 2.58-1.188 2.585-2.585.031-8.741.063-17.483.094-26.224-.862.862-1.723 1.723-2.585 2.585 3.001.011 6.078.23 9.07-.038 5.715-.513 10.848-3.563 13.99-8.379 6.738-10.327.901-24.212-10.752-27.438-3.906-1.081-8.183-.709-12.195-.723.862.862 1.723 1.723 2.585 2.585.032-8.91.064-17.82.096-26.73.005-1.401-1.188-2.58-2.585-2.585-11.407-.041-22.813-.082-34.22-.123-3.328-.012-3.333 5.157-.002 5.169z" fill="#142e59"/></g><g><path d="m109.278 75.156c-2.553 0-5.112-.929-7.12-2.807l-21.682-20.347c-8.967 8.113-21.966 11.498-31.199 2.712l3.563-3.745c7.449 7.088 18.61 3.163 25.785-4.377l1.825-1.917 4.737 4.728 20.502 19.172c2.117 1.981 5.453 1.869 7.433-.249.954-1.02 1.453-2.358 1.405-3.768-.047-1.41-.635-2.712-1.654-3.665l-30.64-28.657 3.531-3.775 30.641 28.656c2.028 1.897 3.196 4.478 3.29 7.268.093 2.79-.9 5.444-2.797 7.472-2.05 2.191-4.832 3.299-7.62 3.299z" fill="#142e59"/></g><g><path d="m38.97 91.962c-1.066 0-2.135-.394-2.969-1.187-11.073-10.538-15.808-26.399-12.356-41.395.534-2.319 2.845-3.765 5.164-3.232 2.318.534 3.765 2.846 3.232 5.164-2.772 12.043 1.021 24.772 9.9 33.221 1.723 1.64 1.791 4.367.151 6.09-.848.89-1.984 1.339-3.122 1.339z" fill="#fff"/></g><g><path d="m22.026 40.775c-8.726 16.972-5.037 37.35 8.721 50.443 8.124 7.731 16.249 15.462 24.373 23.194l9.063 8.625c2.41 2.293 6.071-1.356 3.655-3.655-6.307-6.002-12.613-12.003-18.92-18.005-4.27-4.064-8.541-8.128-12.811-12.191-4.388-4.176-8.296-8.558-10.746-14.212-4.37-10.083-3.882-21.843 1.128-31.589 1.519-2.955-2.94-5.573-4.463-2.61z" fill="#142e59"/></g><g><path d="m21.587 53.712c-3.255-3.097-6.509-6.194-9.764-9.292-1.768-1.682-3.227-3.714-1.325-6.045.597-.732 1.323-1.39 1.973-2.074 6.971-7.325 13.942-14.651 20.913-21.976 1.02-1.072 1.947-2.261 3.578-2.328 2.182-.09 3.874 2.198 5.308 3.563 1.809 1.722 3.644 3.421 5.43 5.167 1.297 1.269 2.596 3.497 4.553 3.609 1.021.059 2.272-.336 3.3-.424 1.104-.095 2.213-.144 3.322-.147 2.436-.006 4.866.209 7.254.692 4.671.944 9.088 2.745 13.071 5.361 3.463 2.275 6.366 5.288 9.355 8.133 7.407 7.049 14.814 14.097 22.221 21.146 2.41 2.293 6.071-1.356 3.655-3.655-5.314-5.057-10.629-10.115-15.943-15.172-6.269-5.966-12.454-12.987-20.23-16.987-8.266-4.252-17.555-5.511-26.692-4.023.838.222 1.676.443 2.515.665-3.472-3.679-7.119-7.255-10.893-10.624-3.652-3.26-8.847-3.212-12.371.226-1.243 1.213-2.403 2.525-3.6 3.783-4.903 5.153-9.806 10.305-14.71 15.458-3.699 3.887-9.445 8.19-7.796 14.281.908 3.352 4.152 5.688 6.56 7.98 2.22 2.113 4.44 4.225 6.66 6.338 2.411 2.293 6.072-1.356 3.656-3.655z" fill="#142e59"/></g><g><path d="m49.231 54.669c5.366 5.942 14.586 6.643 21.591 3.681 4.374-1.849 8.148-4.828 11.503-8.149 2.368-2.344-1.287-5.999-3.655-3.655-3.202 3.169-6.888 6.164-11.232 7.59-2.688.883-5.469 1.078-7.824.543-.61-.139-1.212-.313-1.802-.522-.208-.074-.415-.153-.621-.234.582.23-.244-.113-.348-.162-.822-.391-1.612-.849-2.36-1.368-.165-.114-.325-.235-.488-.352-.382-.273.494.436 0-.006-.186-.166-.383-.32-.567-.489-.186-.171-.372-.344-.542-.532-2.234-2.474-5.88 1.191-3.655 3.655z" fill="#142e59"/></g><g><g><path d="m191.172 55.842 25.21-25.667c8.813-8.973 21.043-12.68 32.678-11.086l2.257-2.559 8.086-8.232c2.315-2.357 6.103-2.391 8.46-.076l24.34 23.908c2.357 2.315 2.391 6.103.076 8.46l-8.117 8.264-2.418 2.731c1.64 11.468-1.871 23.557-10.567 32.41l-25.21 25.667-.773.787-13.949 14.201c-2.96 3.014-7.848 3.057-10.861.097-3.014-2.96-3.057-7.848-.097-10.861l-.323.323-7.373 7.512c-2.96 3.014-7.848 3.057-10.861.097-3.014-2.96-3.057-7.848-.097-10.861l-.55.56-4.382 4.461c-2.96 3.014-7.848 3.057-10.861.097-3.014-2.96-3.057-7.848-.097-10.861l5.431-5.529.272-.265c-2.959 3.015-7.847 3.06-10.861.101-3.015-2.959-3.06-7.847-.101-10.861l19.703-20.065-.082-.13c-2.986 2.988-7.874 2.989-10.862.003-2.988-2.986-2.989-7.874-.003-10.862l29.04-29.056z" fill="#fae2c3"/></g><g><g opacity=".3"><path d="m292.28 40.594-8.116 8.254-2.412 2.74c1.637 11.458-1.878 23.554-10.579 32.411l-25.209 25.656-.775.793-13.94 14.198c-2.964 3.015-7.857 3.067-10.872.103-1.517-1.499-2.292-3.481-2.292-5.462.414-.293.81-.62 1.189-.999l15.284-15.559.844-.862 27.621-28.12c8.092-8.239 7.45-14.404 5.974-23.77-.527-3.349.559-6.75 2.911-9.192l5.346-5.549 8.891-9.046 6.065 5.945c2.345 2.308 2.379 6.098.07 8.459z" fill="#ff9e4a"/></g></g><g><path d="m194.671 73.295c-2.628 0-5.255-1-7.257-3-4.003-4.002-4.005-10.514-.004-14.517l29.04-29.056 3.656 3.654-29.04 29.056c-1.986 1.987-1.986 5.22.002 7.207 1.987 1.986 5.22 1.986 7.207-.002l19.487-19.498 3.656 3.654-19.487 19.498c-2.001 2.002-4.631 3.004-7.26 3.004z" fill="#142e59"/></g><g><path d="m185.959 104.295c-2.711 0-5.26-1.038-7.188-2.93-1.951-1.915-3.039-4.483-3.065-7.23-.025-2.748 1.015-5.335 2.93-7.286l39.042-39.759 3.688 3.622-39.042 39.759c-.947.965-1.462 2.25-1.45 3.617.013 1.367.551 2.642 1.517 3.589.965.948 2.256 1.465 3.617 1.45 1.367-.013 2.642-.551 3.589-1.517l7.643-7.786 3.689 3.621-7.643 7.786c-1.915 1.951-4.483 3.039-7.23 3.064-.031 0-.064 0-.097 0z" fill="#142e59"/></g><g><path d="m191.219 120.856c-2.598 0-5.197-.977-7.192-2.937-1.95-1.915-3.038-4.484-3.062-7.231-.024-2.748 1.017-5.335 2.932-7.285l30.498-31.05 3.688 3.622-30.498 31.05c-.948.965-1.463 2.249-1.451 3.617.012 1.367.55 2.642 1.515 3.59 2.006 1.969 5.238 1.94 7.207-.065l30.617-31.171 3.688 3.622-30.617 31.171c-2.006 2.043-4.665 3.067-7.325 3.067z" fill="#142e59"/></g><g><path d="m199.804 109.13c-3.295 3.502-3.973 8.976-1.16 12.999 2.806 4.012 8.06 5.533 12.565 3.596 2.102-.904 3.557-2.53 5.118-4.121 1.96-1.997 3.921-3.995 5.881-5.992 1.348-1.374 2.696-2.747 4.044-4.121 2.332-2.376-1.32-6.034-3.655-3.655-2.647 2.697-5.294 5.394-7.941 8.091-1.233 1.256-2.459 2.52-3.699 3.769-1.723 1.737-4.058 2.235-6.092 1.222-3.225-1.606-3.704-5.69-1.407-8.132 2.279-2.423-1.369-6.085-3.654-3.656z" fill="#142e59"/></g><g><path d="m244.163 85.827c-8.553 8.729-17.414 17.236-25.694 26.222-4.402 4.778-3.708 12.464 1.938 15.974 4.283 2.663 9.572 1.545 13.005-1.891 4.771-4.775 9.462-9.633 14.192-14.449 4.752-4.838 9.503-9.675 14.255-14.513 2.333-2.375-1.319-6.033-3.655-3.655-8.779 8.938-17.558 17.876-26.337 26.814-1.177 1.199-2.502 2.957-4.084 3.631-5.164 2.203-9.23-4.327-5.634-8.283 3.875-4.262 8.092-8.259 12.124-12.373 4.515-4.608 9.03-9.216 13.545-13.824 2.33-2.376-1.322-6.034-3.655-3.653z" fill="#142e59"/></g><g><path d="m218.398 40.729c-1.09 0-2.179-.411-3.018-1.234-1.697-1.667-1.722-4.394-.055-6.092 6.897-7.022 16.112-11.461 25.946-12.497 2.368-.25 4.486 1.467 4.735 3.832.249 2.366-1.466 4.486-3.833 4.735-7.85.827-15.203 4.367-20.702 9.966-.843.859-1.958 1.29-3.073 1.29z" fill="#fff"/></g><g><path d="m193 57.67c8.306-8.456 16.59-16.935 24.918-25.369 3.504-3.548 7.587-6.458 12.228-8.336 3.067-1.241 6.352-2.098 9.644-2.444 1.539-.162 3.092-.227 4.639-.2 1.59.027 3.421.519 4.975.308 1.641-.222 2.7-2.152 3.741-3.27.795-.854 1.638-1.667 2.455-2.499 1.359-1.384 2.718-2.768 4.078-4.151.935-.952 1.858-2.18 3.206-2.516 2.365-.588 4.044 1.735 5.529 3.193 2.502 2.457 5.003 4.914 7.505 7.372 4.713 4.629 9.497 9.196 14.144 13.892 2.492 2.518.802 4.696-1.168 6.702-2.184 2.223-4.43 4.4-6.558 6.676-.956 1.023-2.402 2.257-2.953 3.563-.554 1.315.056 3.242.123 4.651.085 1.778.047 3.561-.112 5.334-.595 6.621-3.169 13.108-7.218 18.374-3.58 4.656-8.208 8.699-12.309 12.874-4.934 5.023-9.868 10.046-14.801 15.069-.309.314-.617.628-.926.942-2.333 2.375 1.319 6.033 3.655 3.655 4.948-5.038 9.897-10.076 14.845-15.114 5.761-5.865 12.551-11.655 16.666-18.855 4.471-7.822 6.22-17.018 5.023-25.936-.252.609-.505 1.218-.757 1.828 3.359-3.794 7.081-7.225 10.5-10.959 3.267-3.567 3.24-8.676-.086-12.196-1.185-1.254-2.47-2.426-3.701-3.635-4.999-4.91-9.999-9.821-14.998-14.731-3.855-3.787-8.136-9.632-14.331-7.515-3.283 1.122-5.806 4.564-8.159 6.96-1.909 1.943-3.762 3.883-5.564 5.926.609-.252 1.218-.505 1.828-.757-13.412-1.72-26.123 3.309-35.492 12.848-6.072 6.181-12.143 12.363-18.215 18.544-2.003 2.039-4.006 4.079-6.009 6.118-2.333 2.374 1.319 6.032 3.655 3.654z" fill="#142e59"/></g><g><path d="m219.272 45.461c-2.307 2.355-4.615 4.71-6.922 7.065-.947.967-1.036 2.704 0 3.655 1.023.939 2.644 1.032 3.655 0 2.307-2.355 4.615-4.71 6.922-7.065.947-.967 1.036-2.704 0-3.655-1.023-.939-2.644-1.032-3.655 0z" fill="#142e59"/></g><g><path d="m215.811 70.833c-2.307 2.355-4.615 4.71-6.922 7.065-.947.967-1.036 2.704 0 3.655 1.023.939 2.644 1.032 3.655 0 2.307-2.355 4.615-4.71 6.922-7.065.947-.967 1.036-2.704 0-3.655-1.023-.94-2.645-1.032-3.655 0z" fill="#142e59"/></g><g><path d="m226.888 81.476c-2.307 2.355-4.615 4.71-6.922 7.065-.947.967-1.036 2.704 0 3.655 1.023.939 2.644 1.032 3.655 0 2.307-2.355 4.615-4.71 6.922-7.065.947-.967 1.036-2.704 0-3.655-1.023-.939-2.644-1.032-3.655 0z" fill="#142e59"/></g></g><g><g><path d="m107.829 244.158-25.21 25.667c-8.813 8.973-21.043 12.68-32.678 11.086l-2.257 2.559-8.086 8.232c-2.315 2.357-6.103 2.391-8.46.076l-24.34-23.908c-2.357-2.315-2.391-6.103-.076-8.46l8.117-8.264 2.418-2.731c-1.64-11.468 1.871-23.557 10.567-32.41l25.21-25.667.773-.787 13.949-14.201c2.96-3.014 7.848-3.057 10.861-.097 3.014 2.96 3.057 7.848.097 10.861l.323-.323 7.373-7.512c2.96-3.014 7.848-3.057 10.861-.097 3.014 2.96 3.057 7.848.097 10.861l.55-.56 4.382-4.461c2.96-3.014 7.848-3.057 10.861-.097 3.014 2.96 3.057 7.848.097 10.861l-5.431 5.529-.272.265c2.959-3.015 7.847-3.06 10.861-.101 3.015 2.959 3.06 7.847.101 10.861l-19.703 20.065.082.13c2.986-2.988 7.874-2.989 10.862-.003 2.988 2.986 2.989 7.874.003 10.862l-29.04 29.056z" fill="#fae2c3"/></g><g fill="#ff9e4a" opacity=".3"><path d="m101.366 236.73-10.029 10.217-17.988 17.989z"/><path d="m109.757 231.526c1.499 1.499 2.24 3.463 2.24 5.445 0 1.964-.741 3.929-2.24 5.428l-11.648 11.648-15.49 15.783c-8.805 8.96-21.038 12.682-32.686 11.079l-2.24 2.567-8.098 8.219c-2.309 2.361-6.1 2.395-8.46.086l-4.17-4.101c1.413-.103 2.808-.724 3.877-1.809l8.357-8.512 3.549-3.708c2.093-2.186 5.092-3.271 8.1-2.933 9.527 1.068 16.595.534 24.466-7.471l16.025-16.3 12.027-12.044c1.499-1.516 2.275-3.498 2.309-5.497 1.497.259 2.945.983 4.082 2.12z"/><path d="m120.715 205.956c0 1.947-.724 3.911-2.188 5.393l-13.853 14.095c-.345-.638-23.67 24.167-26.772 27.268l13.24-23.358c1.609-2.838 3.634-5.418 6.009-7.655l16.411-15.457c1.206-1.223 1.666-5.47 1.89-7.072 1.413.276 1.886.238 2.972 1.307 1.533 1.499 2.291 3.497 2.291 5.479z"/></g><g><path d="m82.552 273.278-3.656-3.654 29.04-29.056c1.986-1.988 1.985-5.22-.002-7.207-.957-.956-2.236-1.482-3.602-1.482-.001 0-.001 0-.002 0-1.367 0-2.646.528-3.603 1.484l-19.487 19.499-3.656-3.654 19.487-19.498c1.932-1.933 4.51-2.999 7.257-2.999h.003c2.747 0 5.324 1.064 7.256 2.995 4.004 4.001 4.006 10.513.005 14.517z" fill="#142e59"/></g><g><path d="m81.322 252.911-3.688-3.622 39.042-39.759c1.968-2.005 1.938-5.238-.067-7.206s-5.238-1.938-7.207.067l-7.643 7.786-3.689-3.621 7.643-7.786c3.964-4.039 10.477-4.1 14.517-.135 4.039 3.965 4.099 10.477.135 14.516z" fill="#142e59"/></g><g><path d="m84.606 227.647-3.688-3.622 30.498-31.05c1.969-2.005 1.94-5.237-.065-7.206-.965-.948-2.27-1.462-3.616-1.451-1.367.012-2.642.55-3.59 1.515l-30.617 31.171-3.688-3.622 30.617-31.171c1.915-1.95 4.483-3.038 7.231-3.062 2.801-.021 5.335 1.017 7.285 2.932 4.038 3.966 4.096 10.478.13 14.516z" fill="#142e59"/></g><g><path d="m99.198 190.87c3.295-3.502 3.973-8.976 1.16-12.999-2.806-4.012-8.06-5.533-12.565-3.596-2.102.904-3.557 2.53-5.118 4.121-1.96 1.997-3.921 3.995-5.881 5.992-1.348 1.374-2.696 2.747-4.044 4.121-2.332 2.376 1.32 6.034 3.655 3.655 2.647-2.697 5.294-5.394 7.941-8.091 1.233-1.256 2.459-2.52 3.699-3.769 1.723-1.737 4.058-2.235 6.092-1.222 3.225 1.606 3.704 5.69 1.407 8.132-2.28 2.423 1.368 6.085 3.654 3.656z" fill="#142e59"/></g><g><path d="m54.839 214.173c8.553-8.729 17.414-17.236 25.694-26.222 4.402-4.778 3.708-12.464-1.938-15.974-4.283-2.663-9.573-1.545-13.005 1.891-4.771 4.775-9.462 9.633-14.192 14.449-4.752 4.838-9.503 9.675-14.255 14.513-2.333 2.375 1.319 6.033 3.655 3.655 8.779-8.938 17.558-17.876 26.337-26.814 1.177-1.199 2.502-2.957 4.084-3.631 5.164-2.203 9.23 4.327 5.634 8.283-3.875 4.262-8.092 8.259-12.124 12.373-4.515 4.608-9.03 9.216-13.545 13.824-2.331 2.376 1.322 6.034 3.655 3.653z" fill="#142e59"/></g><g><path d="m23.321 248.588c-.037 0-.074 0-.112-.001-2.378-.061-4.257-2.038-4.196-4.416.278-10.871 4.603-21.106 12.179-28.819 1.668-1.697 4.395-1.722 6.092-.055s1.722 4.394.055 6.092c-6.042 6.151-9.492 14.32-9.713 23.002-.061 2.34-1.977 4.197-4.305 4.197z" fill="#fff"/></g><g><path d="m106.002 242.33c-8.306 8.456-16.59 16.935-24.918 25.369-3.504 3.548-7.587 6.458-12.228 8.336-3.067 1.241-6.352 2.098-9.644 2.444-1.539.162-3.092.227-4.639.2-1.59-.027-3.421-.519-4.975-.308-1.641.222-2.7 2.152-3.741 3.27-.795.854-1.638 1.667-2.455 2.499-1.359 1.384-2.718 2.768-4.078 4.151-.935.952-1.858 2.181-3.206 2.516-2.365.588-4.044-1.735-5.529-3.193-2.502-2.457-5.003-4.914-7.505-7.372-4.713-4.629-9.497-9.196-14.144-13.892-2.492-2.518-.802-4.696 1.168-6.702 2.184-2.223 4.43-4.4 6.558-6.676.956-1.023 2.402-2.257 2.953-3.563.554-1.315-.056-3.242-.123-4.651-.085-1.778-.047-3.561.112-5.334.595-6.621 3.169-13.108 7.218-18.374 3.58-4.656 8.208-8.699 12.309-12.874 4.934-5.023 9.868-10.046 14.801-15.069.309-.314.617-.628.926-.942 2.333-2.375-1.319-6.033-3.655-3.655-4.948 5.038-9.897 10.076-14.845 15.114-5.761 5.865-12.551 11.655-16.666 18.855-4.471 7.822-6.22 17.018-5.023 25.936.252-.609.505-1.218.757-1.828-3.359 3.794-7.081 7.226-10.5 10.959-3.267 3.567-3.24 8.676.086 12.196 1.185 1.254 2.47 2.426 3.701 3.635 4.999 4.91 9.999 9.821 14.998 14.731 3.855 3.787 8.136 9.632 14.331 7.516 3.283-1.122 5.806-4.564 8.159-6.96 1.909-1.943 3.762-3.883 5.564-5.926-.609.252-1.218.505-1.828.757 13.412 1.72 26.123-3.309 35.492-12.848 6.072-6.181 12.143-12.363 18.215-18.544 2.003-2.039 4.006-4.079 6.009-6.118 2.333-2.375-1.32-6.033-3.655-3.655z" fill="#142e59"/></g><g><path d="m79.73 254.539c2.307-2.355 4.615-4.71 6.922-7.065.947-.967 1.036-2.704 0-3.655-1.023-.939-2.644-1.032-3.655 0-2.307 2.355-4.615 4.71-6.922 7.065-.947.967-1.036 2.704 0 3.655 1.022.939 2.644 1.032 3.655 0z" fill="#142e59"/></g><g><path d="m83.191 229.167c2.307-2.355 4.615-4.71 6.922-7.065.947-.967 1.036-2.704 0-3.655-1.023-.939-2.644-1.032-3.655 0-2.307 2.355-4.615 4.71-6.922 7.065-.947.967-1.036 2.704 0 3.655 1.023.94 2.644 1.032 3.655 0z" fill="#142e59"/></g><g><path d="m72.114 218.524c2.307-2.355 4.615-4.71 6.922-7.065.947-.967 1.036-2.704 0-3.655-1.023-.939-2.644-1.032-3.655 0-2.307 2.355-4.615 4.71-6.922 7.065-.947.967-1.036 2.704 0 3.655 1.022.939 2.644 1.032 3.655 0z" fill="#142e59"/></g></g></g></svg>