<?xml version="1.0" encoding="iso-8859-1"?>
<!-- Generator: Adobe Illustrator 19.0.0, SVG Export Plug-In . SVG Version: 6.00 Build 0)  -->
<svg version="1.1" id="Capa_1" xmlns="http://www.w3.org/2000/svg" xmlns:xlink="http://www.w3.org/1999/xlink" x="0px" y="0px"
	 viewBox="0 0 512 512" style="enable-background:new 0 0 512 512;" xml:space="preserve">
<path style="fill:#D94C36;" d="M137,60h-30V14c0-2.209,1.791-4,4-4h22c2.209,0,4,1.791,4,4V60z"/>
<path style="fill:#BC7458;" d="M462.036,229H49.964V57c0-2.209,1.791-4,4-4h404.072c2.209,0,4,1.791,4,4L462.036,229L462.036,229z"
	/>
<path style="fill:#9B6656;" d="M431.131,53v176h30.905V57c0-2.209-1.791-4-4-4H431.131z"/>
<g>
	<rect x="49.964" y="85.84" style="fill:#85574A;" width="412.07" height="15"/>
	<rect x="49.964" y="168.19" style="fill:#85574A;" width="412.07" height="15"/>
	<rect x="49.964" y="127.02" style="fill:#85574A;" width="412.07" height="15"/>
</g>
<rect x="71" y="296" style="fill:#FC5D44;" width="370" height="186"/>
<rect x="410.17" y="296" style="fill:#D94C36;" width="30.833" height="186"/>
<g>
	<rect x="101.47" y="358.9" style="fill:#FFD237;" width="61.811" height="61.757"/>
	<rect x="348.72" y="358.9" style="fill:#FFD237;" width="61.811" height="61.757"/>
</g>
<path style="fill:#BFE250;" d="M497,502H15c-8.284,0-15-6.716-15-15l0,0c0-8.284,6.716-15,15-15h482c8.284,0,15,6.716,15,15l0,0
	C512,495.284,505.284,502,497,502z"/>
<path style="fill:#90D861;" d="M496.609,472h-30.905c8.5,0,15.391,6.689,15.391,14.94v0.119c0,8.251-6.891,14.94-15.391,14.94
	h30.905c8.5,0,15.391-6.689,15.391-14.94v-0.119C512,478.689,505.109,472,496.609,472z"/>
<path style="fill:#FFD237;" d="M288.056,189.067h-64.113c-2.209,0-4-1.791-4-4v-68.05h72.113v68.05
	C292.056,187.276,290.265,189.067,288.056,189.067z"/>
<path style="fill:#FC5D44;" d="M215.274,117.017h81.453c3.506,0,4.906-4.544,2.01-6.527l-40.663-27.846
	c-1.211-0.829-2.804-0.83-4.016-0.003l-40.79,27.846C210.367,112.467,211.764,117.017,215.274,117.017z"/>
<g>
	<path style="fill:#FFD237;" d="M297,472h-82V366.002c0-2.209,1.791-4,4-4h74c2.209,0,4,1.791,4,4V472z"/>
	<path style="fill:#FFD237;" d="M410.648,189.067h-64.113c-2.209,0-4-1.791-4-4v-68.05h72.113v68.05
		C414.648,187.276,412.857,189.067,410.648,189.067z"/>
</g>
<path style="fill:#FC5D44;" d="M337.865,117.017h81.453c3.506,0,4.906-4.544,2.01-6.527l-40.663-27.846
	c-1.211-0.829-2.804-0.83-4.016-0.003l-40.79,27.846C332.958,112.467,334.356,117.017,337.865,117.017z"/>
<path style="fill:#FFD237;" d="M170.616,189.067h-64.113c-2.209,0-4-1.791-4-4v-68.05h72.113v68.05
	C174.616,187.276,172.825,189.067,170.616,189.067z"/>
<path style="fill:#FC5D44;" d="M97.833,117.017h81.453c3.506,0,4.906-4.544,2.01-6.527l-40.663-27.846
	c-1.211-0.829-2.804-0.83-4.016-0.003l-40.79,27.846C92.926,112.467,94.324,117.017,97.833,117.017z"/>
<g>
	<rect x="124.88" y="358.9" style="fill:#85574A;" width="15" height="61.758"/>
	
		<rect x="124.88" y="358.877" transform="matrix(-0.0017 -1 1 -0.0017 -257.1775 522.8246)" style="fill:#85574A;" width="15" height="61.811"/>
	<rect x="372.12" y="358.9" style="fill:#85574A;" width="15" height="61.758"/>
	
		<rect x="372.13" y="358.874" transform="matrix(-0.0017 -1 1 -0.0017 -9.5038 770.0715)" style="fill:#85574A;" width="15" height="61.811"/>
</g>
<g>
	<rect x="248.5" y="117.02" style="fill:#FC5D44;" width="15" height="72.05"/>
	<rect x="219.94" y="144.44" style="fill:#FC5D44;" width="72.11" height="15"/>
	<rect x="371.09" y="117.02" style="fill:#FC5D44;" width="15" height="72.05"/>
	<rect x="342.54" y="144.44" style="fill:#FC5D44;" width="72.11" height="15"/>
	<rect x="131.06" y="117.02" style="fill:#FC5D44;" width="15" height="72.05"/>
	<rect x="102.5" y="144.44" style="fill:#FC5D44;" width="72.11" height="15"/>
</g>
<path style="fill:#9B6656;" d="M458.036,309.494H53.964c-2.209,0-4-1.791-4-4v-88.636h412.072v88.636
	C462.036,307.703,460.245,309.494,458.036,309.494z"/>
<g>
	<path style="fill:#85574A;" d="M431.131,216.858v92.636h26.905c2.209,0,4-1.791,4-4v-88.636L431.131,216.858L431.131,216.858z"/>
	<rect x="93.97" y="216.86" style="fill:#85574A;" width="15" height="92.64"/>
	<rect x="145.48" y="216.86" style="fill:#85574A;" width="15" height="92.64"/>
	<rect x="196.99" y="216.86" style="fill:#85574A;" width="15" height="92.64"/>
	<rect x="248.5" y="216.86" style="fill:#85574A;" width="15" height="92.64"/>
	<rect x="300.01" y="216.86" style="fill:#85574A;" width="15" height="92.64"/>
	<rect x="351.52" y="216.86" style="fill:#85574A;" width="15" height="92.64"/>
	<rect x="403.03" y="216.86" style="fill:#85574A;" width="15" height="92.64"/>
</g>
<g>
</g>
<g>
</g>
<g>
</g>
<g>
</g>
<g>
</g>
<g>
</g>
<g>
</g>
<g>
</g>
<g>
</g>
<g>
</g>
<g>
</g>
<g>
</g>
<g>
</g>
<g>
</g>
<g>
</g>
</svg>
