<svg width="26" height="32" viewBox="0 0 26 32" fill="none" xmlns="http://www.w3.org/2000/svg">
<path d="M22.5871 16C20.2174 18.6476 16.7738 20.3137 12.9411 20.3137C9.10833 20.3137 5.66473 18.6475 3.2951 16C5.66473 13.3525 9.10833 11.6863 12.9411 11.6863C16.7738 11.6863 20.2174 13.3525 22.5871 16Z" fill="white"/>
<path fill-rule="evenodd" clip-rule="evenodd" d="M-0.00012207 24.6275C-0.00012207 17.4802 5.79386 11.6863 12.9411 11.6863C9.10834 11.6863 5.66476 13.3525 3.29514 16C5.66476 18.6475 9.10836 20.3137 12.9411 20.3137C16.7739 20.3137 20.2175 18.6476 22.5871 16C24.6363 18.2896 25.8823 21.313 25.8823 24.6275V29.5163C25.8823 30.1516 25.3673 30.6667 24.732 30.6667H1.15021C0.514898 30.6667 -0.00012207 30.1516 -0.00012207 29.5163V24.6275ZM22.5871 16C22.5871 16 22.5871 16 22.5871 16V16Z" fill="#7CD4FD"/>
<path fill-rule="evenodd" clip-rule="evenodd" d="M8.08699 19.3726C6.23917 18.6244 4.60346 17.4618 3.29514 16C5.66476 13.3525 9.10836 11.6863 12.9411 11.6863C16.7739 11.6863 20.2175 13.3525 22.5871 16C22.5871 16 22.5871 16 22.5871 16C24.6363 13.7105 25.8823 10.687 25.8823 7.37256V2.48367C25.8823 1.84837 25.3673 1.33335 24.732 1.33335L1.15021 1.33334C0.514899 1.33334 -0.000121587 1.84836 -0.000121643 2.48367L-0.00012207 7.37256C-0.00012293 12.8032 3.34492 17.4525 8.08699 19.3726Z" fill="#0BA5EC"/>
</svg>
