<svg width="195" height="48" viewBox="0 0 195 48" fill="none" xmlns="http://www.w3.org/2000/svg">
<path d="M34.3807 24C30.8263 27.9713 25.6609 30.4706 19.9118 30.4706C14.1627 30.4706 8.99731 27.9713 5.44289 24C8.99731 20.0287 14.1627 17.5294 19.9118 17.5294C25.6609 17.5294 30.8263 20.0287 34.3807 24Z" fill="white"/>
<path fill-rule="evenodd" clip-rule="evenodd" d="M0.500008 36.9412C0.500008 26.2203 9.19095 17.5294 19.9118 17.5294C14.1626 17.5294 8.99731 20.0287 5.44289 24C8.99731 27.9713 14.1627 30.4706 19.9118 30.4706C25.6609 30.4706 30.8263 27.9713 34.3807 24C37.4545 27.4343 39.3235 31.9695 39.3235 36.9412V44.2745C39.3235 45.2275 38.551 46 37.598 46H2.2255C1.27254 46 0.500008 45.2275 0.500008 44.2745V36.9412ZM34.3807 24C34.3807 24 34.3807 24 34.3807 24V24Z" fill="#7CD4FD"/>
<path fill-rule="evenodd" clip-rule="evenodd" d="M12.6306 29.0589C9.85892 27.9366 7.40536 26.1926 5.44289 24C8.99732 20.0287 14.1627 17.5294 19.9118 17.5294C25.6609 17.5294 30.8263 20.0287 34.3807 24C34.3807 24 34.3807 24 34.3807 24C37.4545 20.5657 39.3235 16.0305 39.3235 11.0588V3.72549C39.3235 2.77253 38.551 2 37.598 2L2.22551 2C1.27254 2 0.500016 2.77253 0.500016 3.72549L0.500015 11.0588C0.500014 19.2047 5.51756 26.1788 12.6306 29.0589Z" fill="#0BA5EC"/>
<path d="M69.6441 14.456V34H65.7241V25.684H57.3521V34H53.4321V14.456H57.3521V22.492H65.7241V14.456H69.6441Z" fill="#163E58"/>
<path d="M80.3904 34.252C78.8971 34.252 77.5531 33.9254 76.3584 33.272C75.1638 32.6 74.2211 31.6574 73.5304 30.444C72.8584 29.2307 72.5224 27.8307 72.5224 26.244C72.5224 24.6574 72.8678 23.2574 73.5584 22.044C74.2678 20.8307 75.2291 19.8974 76.4424 19.244C77.6558 18.572 79.0091 18.236 80.5024 18.236C81.9958 18.236 83.3491 18.572 84.5624 19.244C85.7758 19.8974 86.7278 20.8307 87.4184 22.044C88.1278 23.2574 88.4824 24.6574 88.4824 26.244C88.4824 27.8307 88.1184 29.2307 87.3904 30.444C86.6811 31.6574 85.7104 32.6 84.4784 33.272C83.2651 33.9254 81.9024 34.252 80.3904 34.252ZM80.3904 30.836C81.0998 30.836 81.7624 30.668 82.3784 30.332C83.0131 29.9774 83.5171 29.4547 83.8904 28.764C84.2638 28.0734 84.4504 27.2334 84.4504 26.244C84.4504 24.7694 84.0584 23.64 83.2744 22.856C82.5091 22.0534 81.5664 21.652 80.4464 21.652C79.3264 21.652 78.3838 22.0534 77.6184 22.856C76.8718 23.64 76.4984 24.7694 76.4984 26.244C76.4984 27.7187 76.8624 28.8574 77.5904 29.66C78.3371 30.444 79.2704 30.836 80.3904 30.836Z" fill="#163E58"/>
<path d="M106.002 18.488V34H102.054V32.04C101.55 32.712 100.887 33.244 100.066 33.636C99.2632 34.0094 98.3859 34.196 97.4339 34.196C96.2206 34.196 95.1472 33.944 94.2139 33.44C93.2806 32.9174 92.5432 32.1614 92.0019 31.172C91.4792 30.164 91.2179 28.9694 91.2179 27.588V18.488H95.1379V27.028C95.1379 28.26 95.4459 29.212 96.0619 29.884C96.6779 30.5374 97.5179 30.864 98.5819 30.864C99.6646 30.864 100.514 30.5374 101.13 29.884C101.746 29.212 102.054 28.26 102.054 27.028V18.488H106.002Z" fill="#163E58"/>
<path d="M113.79 20.896C114.294 20.0747 114.947 19.4307 115.75 18.964C116.571 18.4974 117.504 18.264 118.55 18.264V22.38H117.514C116.282 22.38 115.348 22.6694 114.714 23.248C114.098 23.8267 113.79 24.8347 113.79 26.272V34H109.87V18.488H113.79V20.896Z" fill="#163E58"/>
<path d="M127.266 18.236C128.423 18.236 129.441 18.4694 130.318 18.936C131.195 19.384 131.886 19.972 132.39 20.7V18.488H136.338V34.112C136.338 35.5494 136.049 36.828 135.47 37.948C134.891 39.0867 134.023 39.9827 132.866 40.636C131.709 41.308 130.309 41.644 128.666 41.644C126.463 41.644 124.653 41.1307 123.234 40.104C121.834 39.0774 121.041 37.6774 120.854 35.904H124.746C124.951 36.6134 125.39 37.1734 126.062 37.584C126.753 38.0134 127.583 38.228 128.554 38.228C129.693 38.228 130.617 37.8827 131.326 37.192C132.035 36.52 132.39 35.4934 132.39 34.112V31.704C131.886 32.432 131.186 33.0387 130.29 33.524C129.413 34.0094 128.405 34.252 127.266 34.252C125.959 34.252 124.765 33.916 123.682 33.244C122.599 32.572 121.741 31.6294 121.106 30.416C120.49 29.184 120.182 27.7747 120.182 26.188C120.182 24.62 120.49 23.2294 121.106 22.016C121.741 20.8027 122.59 19.8694 123.654 19.216C124.737 18.5627 125.941 18.236 127.266 18.236ZM132.39 26.244C132.39 25.292 132.203 24.48 131.83 23.808C131.457 23.1174 130.953 22.5947 130.318 22.24C129.683 21.8667 129.002 21.68 128.274 21.68C127.546 21.68 126.874 21.8574 126.258 22.212C125.642 22.5667 125.138 23.0894 124.746 23.78C124.373 24.452 124.186 25.2547 124.186 26.188C124.186 27.1214 124.373 27.9427 124.746 28.652C125.138 29.3427 125.642 29.8747 126.258 30.248C126.893 30.6214 127.565 30.808 128.274 30.808C129.002 30.808 129.683 30.6307 130.318 30.276C130.953 29.9027 131.457 29.38 131.83 28.708C132.203 28.0174 132.39 27.196 132.39 26.244Z" fill="#163E58"/>
<path d="M144.086 13.28V34H140.166V13.28H144.086Z" fill="#163E58"/>
<path d="M146.951 26.188C146.951 24.62 147.259 23.2294 147.875 22.016C148.51 20.8027 149.359 19.8694 150.423 19.216C151.506 18.5627 152.71 18.236 154.035 18.236C155.193 18.236 156.201 18.4694 157.059 18.936C157.937 19.4027 158.637 19.9907 159.159 20.7V18.488H163.107V34H159.159V31.732C158.655 32.46 157.955 33.0667 157.059 33.552C156.182 34.0187 155.165 34.252 154.007 34.252C152.701 34.252 151.506 33.916 150.423 33.244C149.359 32.572 148.51 31.6294 147.875 30.416C147.259 29.184 146.951 27.7747 146.951 26.188ZM159.159 26.244C159.159 25.292 158.973 24.48 158.599 23.808C158.226 23.1174 157.722 22.5947 157.087 22.24C156.453 21.8667 155.771 21.68 155.043 21.68C154.315 21.68 153.643 21.8574 153.027 22.212C152.411 22.5667 151.907 23.0894 151.515 23.78C151.142 24.452 150.955 25.2547 150.955 26.188C150.955 27.1214 151.142 27.9427 151.515 28.652C151.907 29.3427 152.411 29.8747 153.027 30.248C153.662 30.6214 154.334 30.808 155.043 30.808C155.771 30.808 156.453 30.6307 157.087 30.276C157.722 29.9027 158.226 29.38 158.599 28.708C158.973 28.0174 159.159 27.196 159.159 26.244Z" fill="#163E58"/>
<path d="M172.872 34.252C171.603 34.252 170.464 34.028 169.456 33.58C168.448 33.1134 167.645 32.488 167.048 31.704C166.469 30.92 166.152 30.052 166.096 29.1H170.044C170.119 29.6974 170.408 30.192 170.912 30.584C171.435 30.976 172.079 31.172 172.844 31.172C173.591 31.172 174.169 31.0227 174.58 30.724C175.009 30.4254 175.224 30.0427 175.224 29.576C175.224 29.072 174.963 28.6987 174.44 28.456C173.936 28.1947 173.124 27.9147 172.004 27.616C170.847 27.336 169.895 27.0467 169.148 26.748C168.42 26.4494 167.785 25.992 167.244 25.376C166.721 24.76 166.46 23.9294 166.46 22.884C166.46 22.0254 166.703 21.2414 167.188 20.532C167.692 19.8227 168.401 19.2627 169.316 18.852C170.249 18.4414 171.341 18.236 172.592 18.236C174.44 18.236 175.915 18.7027 177.016 19.636C178.117 20.5507 178.724 21.792 178.836 23.36H175.084C175.028 22.744 174.767 22.2587 174.3 21.904C173.852 21.5307 173.245 21.344 172.48 21.344C171.771 21.344 171.22 21.4747 170.828 21.736C170.455 21.9974 170.268 22.3614 170.268 22.828C170.268 23.3507 170.529 23.752 171.052 24.032C171.575 24.2934 172.387 24.564 173.488 24.844C174.608 25.124 175.532 25.4134 176.26 25.712C176.988 26.0107 177.613 26.4774 178.136 27.112C178.677 27.728 178.957 28.5494 178.976 29.576C178.976 30.472 178.724 31.2747 178.22 31.984C177.735 32.6934 177.025 33.2534 176.092 33.664C175.177 34.056 174.104 34.252 172.872 34.252Z" fill="#163E58"/>
<path d="M188.13 34.252C186.86 34.252 185.722 34.028 184.714 33.58C183.706 33.1134 182.903 32.488 182.306 31.704C181.727 30.92 181.41 30.052 181.354 29.1H185.302C185.376 29.6974 185.666 30.192 186.17 30.584C186.692 30.976 187.336 31.172 188.102 31.172C188.848 31.172 189.427 31.0227 189.838 30.724C190.267 30.4254 190.482 30.0427 190.482 29.576C190.482 29.072 190.22 28.6987 189.698 28.456C189.194 28.1947 188.382 27.9147 187.262 27.616C186.104 27.336 185.152 27.0467 184.406 26.748C183.678 26.4494 183.043 25.992 182.502 25.376C181.979 24.76 181.718 23.9294 181.718 22.884C181.718 22.0254 181.96 21.2414 182.446 20.532C182.95 19.8227 183.659 19.2627 184.574 18.852C185.507 18.4414 186.599 18.236 187.85 18.236C189.698 18.236 191.172 18.7027 192.274 19.636C193.375 20.5507 193.982 21.792 194.094 23.36H190.342C190.286 22.744 190.024 22.2587 189.558 21.904C189.11 21.5307 188.503 21.344 187.738 21.344C187.028 21.344 186.478 21.4747 186.086 21.736C185.712 21.9974 185.526 22.3614 185.526 22.828C185.526 23.3507 185.787 23.752 186.31 24.032C186.832 24.2934 187.644 24.564 188.746 24.844C189.866 25.124 190.79 25.4134 191.518 25.712C192.246 26.0107 192.871 26.4774 193.394 27.112C193.935 27.728 194.215 28.5494 194.234 29.576C194.234 30.472 193.982 31.2747 193.478 31.984C192.992 32.6934 192.283 33.2534 191.35 33.664C190.435 34.056 189.362 34.252 188.13 34.252Z" fill="#163E58"/>
</svg>
