<svg width="40" height="40" viewBox="0 0 40 40" fill="none" xmlns="http://www.w3.org/2000/svg">
<rect width="40" height="40" rx="20" fill="#F7F9FF"/>
<g clip-path="url(#clip0_4365_9281)">
<path fill-rule="evenodd" clip-rule="evenodd" d="M12.287 29.9133L9.70748 26.6999C9.08685 25.9267 8.75 24.976 8.75 23.9974V12.3612C8.75 10.8955 9.92269 9.67923 11.4355 9.57594L23.3991 8.75914C24.2682 8.6998 25.1321 8.93082 25.8461 9.41353L30.0494 12.2554C30.8018 12.7641 31.25 13.5957 31.25 14.4832V27.7124C31.25 29.1468 30.0969 30.3345 28.6157 30.4256L15.3375 31.243C14.1555 31.3158 13.013 30.8178 12.287 29.9133Z" fill="white"/>
<path d="M16.4361 18.184V18.0317C16.4361 17.6455 16.7454 17.3252 17.144 17.2986L20.0475 17.1048L24.0628 23.0176V17.8281L23.0293 17.6903V17.618C23.0293 17.2273 23.3456 16.9049 23.7493 16.8842L26.3912 16.7489V17.1291C26.3912 17.3075 26.2585 17.4602 26.0766 17.491L25.4408 17.5985V26.0028L24.6429 26.2772C23.9764 26.5064 23.2343 26.261 22.8527 25.6852L18.9545 19.8029V25.4172L20.1544 25.6468L20.1377 25.7581C20.0853 26.1067 19.7843 26.3704 19.4202 26.3866L16.4361 26.5194C16.3966 26.1446 16.6776 25.8092 17.0652 25.7685L17.4577 25.7272V18.2414L16.4361 18.184Z" fill="black"/>
<path fill-rule="evenodd" clip-rule="evenodd" d="M23.5062 10.2251L11.5426 11.0419C10.826 11.0908 10.2705 11.6669 10.2705 12.3612V23.9974C10.2705 24.6498 10.4951 25.2836 10.9088 25.799L13.4883 29.0125C13.9054 29.5321 14.5617 29.8182 15.2408 29.7764L28.519 28.959C29.1995 28.9171 29.7293 28.3714 29.7293 27.7124V14.4832C29.7293 14.0754 29.5234 13.6934 29.1777 13.4596L24.9743 10.6177C24.546 10.3281 24.0277 10.1895 23.5062 10.2251ZM12.1359 12.5427C11.9695 12.4196 12.0486 12.1629 12.2577 12.1479L23.5866 11.3353C23.9476 11.3094 24.3063 11.4088 24.5982 11.6157L26.8713 13.2261C26.9576 13.2872 26.9171 13.4192 26.8102 13.425L14.8129 14.0775C14.4498 14.0973 14.0914 13.9906 13.8028 13.7769L12.1359 12.5427ZM14.2502 16.123C14.2502 15.7333 14.5651 15.4113 14.9677 15.3894L27.6523 14.6986C28.0447 14.6772 28.375 14.979 28.375 15.3589V26.8139C28.375 27.203 28.0613 27.5246 27.6594 27.5475L15.0552 28.2646C14.6184 28.2895 14.2502 27.9539 14.2502 27.5311V16.123Z" fill="black"/>
</g>
<defs>
<clipPath id="clip0_4365_9281">
<rect width="24" height="24" fill="white" transform="translate(8 8)"/>
</clipPath>
</defs>
</svg>
