<svg width="40" height="40" viewBox="0 0 40 40" fill="none" xmlns="http://www.w3.org/2000/svg">
<rect width="40" height="40" rx="20" fill="#F7F9FF"/>
<circle cx="20" cy="20" r="10.5" fill="#028CB0"/>
<path d="M12.8415 20C12.8415 22.8367 14.4915 25.28 16.8777 26.4413L13.4635 17.0871C13.0535 18.0035 12.8416 18.9961 12.8415 20ZM20 27.1585C20.8313 27.1585 21.631 27.0125 22.3798 26.7523L22.329 26.6571L20.1269 20.6283L17.9819 26.8665C18.6165 27.0569 19.2956 27.1585 20 27.1585ZM20.9837 16.6429L23.5729 24.3408L24.29 21.9546C24.5946 20.9646 24.8294 20.2538 24.8294 19.6383C24.8294 18.7498 24.5121 18.1406 24.2456 17.671C23.8775 17.0744 23.5412 16.5731 23.5412 15.9892C23.5412 15.3292 24.0362 14.72 24.7469 14.72H24.8358C23.5167 13.5091 21.7906 12.8386 20 12.8415C18.8144 12.8413 17.6474 13.1358 16.6039 13.6986C15.5604 14.2613 14.6731 15.0746 14.0219 16.0654L14.4788 16.0781C15.2277 16.0781 16.3827 15.9829 16.3827 15.9829C16.7762 15.9638 16.8206 16.5287 16.4335 16.5731C16.4335 16.5731 16.0463 16.6238 15.6085 16.6429L18.2231 24.3979L19.7906 19.7017L18.6737 16.6429C18.4235 16.6291 18.1737 16.6079 17.9248 16.5794C17.5377 16.554 17.5821 15.9638 17.9692 15.9829C17.9692 15.9829 19.1496 16.0781 19.854 16.0781C20.6029 16.0781 21.7579 15.9829 21.7579 15.9829C22.145 15.9638 22.1958 16.5287 21.8087 16.5731C21.8087 16.5731 21.4215 16.6175 20.9837 16.6429ZM23.5983 26.1875C24.6812 25.5578 25.5799 24.655 26.2047 23.5692C26.8294 22.4834 27.1583 21.2527 27.1585 20C27.1585 18.7562 26.8412 17.5885 26.2827 16.5667C26.3961 17.6908 26.2259 18.8254 25.7877 19.8667L23.5983 26.1875ZM20 28.25C17.812 28.25 15.7135 27.3808 14.1664 25.8336C12.6192 24.2865 11.75 22.188 11.75 20C11.75 17.812 12.6192 15.7135 14.1664 14.1664C15.7135 12.6192 17.812 11.75 20 11.75C22.188 11.75 24.2865 12.6192 25.8336 14.1664C27.3808 15.7135 28.25 17.812 28.25 20C28.25 22.188 27.3808 24.2865 25.8336 25.8336C24.2865 27.3808 22.188 28.25 20 28.25Z" fill="white"/>
</svg>
