<svg width="33" height="32" viewBox="0 0 33 32" fill="none" xmlns="http://www.w3.org/2000/svg">
<rect x="0.375" width="32" height="32" rx="16" fill="#F7F9FF"/>
<g clip-path="url(#clip0_3533_961)">
<path fill-rule="evenodd" clip-rule="evenodd" d="M10.2918 19.6104V23.158H11.1877C11.3199 23.158 11.429 23.2389 11.429 23.3382V24.4743H14.6116V23.3382C14.6116 23.2389 14.7207 23.158 14.8544 23.158H15.7504V19.6104H14.8544C14.7207 19.6104 14.6116 19.5294 14.6116 19.4312V18.2939H11.429V19.4312C11.429 19.5293 11.3199 19.6104 11.1877 19.6104H10.2918Z" fill="#B6B1B7"/>
<path fill-rule="evenodd" clip-rule="evenodd" d="M16.8721 19.6104V23.158H17.8096C17.9495 23.158 18.0636 23.2389 18.0636 23.3382V24.4743H21.394V23.3382C21.394 23.2389 21.5082 23.158 21.648 23.158H22.5855V19.6104H21.648C21.5081 19.6104 21.394 19.5294 21.394 19.4312V18.2939H18.0636V19.4312C18.0636 19.5293 17.9495 19.6104 17.8096 19.6104H16.8721Z" fill="#B6B1B7"/>
<path fill-rule="evenodd" clip-rule="evenodd" d="M7.73169 11.9231V17.0616H25.0187V11.9231L16.3746 6.9325L7.73169 11.9231Z" fill="#ECEAEC"/>
<path fill-rule="evenodd" clip-rule="evenodd" d="M6.48038 12.5357C6.69823 12.9132 7.18417 13.0433 7.56175 12.8254L7.73171 12.7273L16.3746 7.73668L25.0187 12.7273L25.1887 12.8254C25.5651 13.0433 26.0521 12.9132 26.2689 12.5357C26.4867 12.1592 26.3567 11.6722 25.9792 11.4543L16.8092 6.16024C16.6838 6.08723 16.5298 6.05188 16.3746 6.05188C16.2207 6.05188 16.0655 6.08723 15.94 6.16024L6.77011 11.4543C6.3937 11.6722 6.26253 12.1592 6.48038 12.5357Z" fill="#9FD4FE"/>
<path fill-rule="evenodd" clip-rule="evenodd" d="M21.7552 19.0001H24.4108V23.7682H21.7552V19.0001Z" fill="#FFE07D"/>
<path fill-rule="evenodd" clip-rule="evenodd" d="M15.0469 19.0001H17.7024V23.7682H15.0469V19.0001Z" fill="#FFE07D"/>
<path fill-rule="evenodd" clip-rule="evenodd" d="M8.33856 19.0001H10.9952V23.7682H8.33856V19.0001Z" fill="#FFE07D"/>
<path fill-rule="evenodd" clip-rule="evenodd" d="M7.49445 24.4743L9.44003 25.2113L11.8393 24.4743V23.3382C11.8393 23.239 11.7583 23.158 11.6602 23.158H10.9952H8.33855H7.67355C7.57546 23.158 7.49445 23.239 7.49445 23.3382V24.4743Z" fill="#ECEAEC"/>
<path fill-rule="evenodd" clip-rule="evenodd" d="M20.91 24.4743L23.2563 25.2113L25.2559 24.4743V23.3382C25.2559 23.239 25.175 23.158 25.0757 23.158H24.4107H21.7552H21.0902C20.991 23.158 20.91 23.239 20.91 23.3382V24.4743Z" fill="#ECEAEC"/>
<path fill-rule="evenodd" clip-rule="evenodd" d="M14.2017 24.4743L16.3752 25.0007L18.5476 24.4743V23.3382C18.5476 23.239 18.4667 23.158 18.3674 23.158H17.7024H15.0469H14.3819C14.2826 23.158 14.2017 23.239 14.2017 23.3382V24.4743Z" fill="#ECEAEC"/>
<path fill-rule="evenodd" clip-rule="evenodd" d="M6.56023 25.9481H26.1902C26.2917 25.9481 26.375 25.8649 26.375 25.7633V24.6591C26.375 24.5576 26.2917 24.4743 26.1902 24.4743H25.256H20.91H18.5477H14.2016H11.8393H7.49445H6.56023C6.45871 24.4743 6.37543 24.5576 6.37543 24.6591V25.7633C6.37543 25.8649 6.45871 25.9481 6.56023 25.9481Z" fill="#9FD4FE"/>
<path fill-rule="evenodd" clip-rule="evenodd" d="M15.4529 10.487C15.4529 11.0208 15.8852 11.4531 16.4191 11.4531C16.9518 11.4531 17.3853 11.0208 17.3853 10.487C17.3853 9.95313 16.9518 9.52078 16.4191 9.52078C15.8853 9.52074 15.4529 9.95309 15.4529 10.487Z" fill="#FFE07D"/>
<path fill-rule="evenodd" clip-rule="evenodd" d="M16.3746 7.73668L7.73169 12.7273V13.8498L16.3746 8.85914L25.0187 13.8498V12.7273L16.3746 7.73668Z" fill="#DAD8DB"/>
<path fill-rule="evenodd" clip-rule="evenodd" d="M16.4191 9.52074C15.8853 9.52074 15.4529 9.95308 15.4529 10.4869C15.4529 10.5976 15.4712 10.7025 15.5054 10.8018C15.648 10.447 15.9959 10.1972 16.4008 10.1972C16.824 10.1972 17.1845 10.4698 17.3145 10.8485C17.3601 10.7367 17.3852 10.6147 17.3852 10.4869C17.3853 9.95308 16.9518 9.52074 16.4191 9.52074Z" fill="#FFC269"/>
<path fill-rule="evenodd" clip-rule="evenodd" d="M8.33856 19.6104H10.9952V20.5754H8.33856V19.6104Z" fill="#FFC269"/>
<path fill-rule="evenodd" clip-rule="evenodd" d="M15.0469 19.6104H17.7024V20.5754H15.0469V19.6104Z" fill="#FFC269"/>
<path fill-rule="evenodd" clip-rule="evenodd" d="M21.7552 19.6104H24.4108V20.5754H21.7552V19.6104Z" fill="#FFC269"/>
<path fill-rule="evenodd" clip-rule="evenodd" d="M8.33855 19.6104H10.9952H11.6602C11.7583 19.6104 11.8393 19.5294 11.8393 19.4313V18.0525H7.49445V19.4313C7.49445 19.5293 7.57542 19.6104 7.67355 19.6104H8.33855Z" fill="#ECEAEC"/>
<path fill-rule="evenodd" clip-rule="evenodd" d="M15.0469 19.6104H17.7024H18.3674C18.4667 19.6104 18.5477 19.5294 18.5477 19.4313V18.0525H14.2017V19.4313C14.2017 19.5293 14.2826 19.6104 14.3819 19.6104H15.0469Z" fill="#ECEAEC"/>
<path fill-rule="evenodd" clip-rule="evenodd" d="M21.0902 19.6104H21.7552H24.4107H25.0757C25.1749 19.6104 25.2559 19.5294 25.2559 19.4313V18.0525H20.91V19.4313C20.91 19.5294 20.9909 19.6104 21.0902 19.6104Z" fill="#ECEAEC"/>
<path fill-rule="evenodd" clip-rule="evenodd" d="M7.49445 18.294H11.8393V19.0001H7.49445V18.294Z" fill="#DAD8DB"/>
<path fill-rule="evenodd" clip-rule="evenodd" d="M14.2017 18.294H18.5476V19.0001H14.2017V18.294Z" fill="#DAD8DB"/>
<path fill-rule="evenodd" clip-rule="evenodd" d="M20.91 18.294H25.2559V19.0001H20.91V18.294Z" fill="#DAD8DB"/>
<path fill-rule="evenodd" clip-rule="evenodd" d="M7.49445 18.294H11.8393H14.2016H18.5477H20.91H25.256H26.1902C26.2917 18.294 26.375 18.2107 26.375 18.1092V17.005C26.375 16.9034 26.2917 16.8202 26.1902 16.8202H25.0187H7.73172H6.56023C6.45871 16.8202 6.37543 16.9034 6.37543 17.005V18.1092C6.37543 18.2107 6.45871 18.294 6.56023 18.294H7.49445Z" fill="#9FD4FE"/>
<path d="M12.7343 13.9579C12.8171 13.8277 12.8658 13.6737 12.8658 13.5083C12.8658 13.0445 12.4885 12.6671 12.0247 12.6671H11.3439C11.1771 12.6671 11.0421 12.8023 11.0421 12.9689V14.0482V14.05V15.3128C11.0421 15.393 11.074 15.47 11.131 15.5266C11.1875 15.583 11.264 15.6146 11.3439 15.6146H11.3452C11.3452 15.6146 11.9711 15.6118 12.1436 15.6118C12.6579 15.6118 13.0763 15.1934 13.0763 14.6791C13.0762 14.3888 12.9429 14.1291 12.7343 13.9579ZM12.0247 13.2708C12.1556 13.2708 12.2622 13.3773 12.2622 13.5083C12.2622 13.6393 12.1556 13.7458 12.0247 13.7458C11.9749 13.7458 11.6457 13.7464 11.6457 13.7464V13.2708H12.0247ZM12.1436 15.0082C12.0517 15.0082 11.8319 15.0089 11.6457 15.0097V14.3505C11.6902 14.3503 12.1436 14.35 12.1436 14.35C12.325 14.35 12.4726 14.4976 12.4726 14.6791C12.4726 14.8605 12.325 15.0082 12.1436 15.0082Z" fill="#6F6571"/>
<path d="M15.1706 12.8953C15.1696 12.8926 15.1685 12.8899 15.1675 12.8872C15.1125 12.7535 14.9837 12.6671 14.8392 12.6671C14.8391 12.6671 14.839 12.6671 14.839 12.6671C14.6943 12.6672 14.5655 12.7538 14.5107 12.8877C14.5097 12.8899 14.5088 12.8922 14.508 12.8946L13.6279 15.2053C13.5685 15.3611 13.6467 15.5355 13.8025 15.5948C13.9581 15.6541 14.1326 15.576 14.192 15.4202L14.3371 15.0391H15.3346L15.4781 15.4193C15.5237 15.5402 15.6385 15.6147 15.7605 15.6147C15.7958 15.6147 15.8319 15.6084 15.867 15.5952C16.0229 15.5363 16.1016 15.3622 16.0428 15.2062L15.1706 12.8953ZM14.5669 14.4354L14.838 13.7237L15.1067 14.4354H14.5669Z" fill="#6F6571"/>
<path d="M18.6124 12.6671C18.6115 12.6671 18.6105 12.6671 18.6095 12.6672C18.4428 12.6688 18.309 12.8052 18.3106 12.9719L18.3241 14.3714L17.2403 12.8018C17.1652 12.6931 17.0283 12.646 16.9021 12.6852C16.776 12.7245 16.6901 12.8412 16.6901 12.9733V15.3127C16.6901 15.4794 16.8252 15.6145 16.9919 15.6145C17.1585 15.6145 17.2937 15.4794 17.2937 15.3127V13.9414L18.3253 15.4354C18.4136 15.563 18.5612 15.6173 18.7011 15.5736C18.8438 15.529 18.936 15.3956 18.936 15.2308L18.9142 12.966C18.9126 12.8003 18.7778 12.6671 18.6124 12.6671Z" fill="#6F6571"/>
<path d="M21.6849 15.0956L20.6307 14.0785L21.5953 13.1918C21.7181 13.079 21.7261 12.8881 21.6133 12.7653C21.5006 12.6427 21.3095 12.6346 21.1868 12.7474L20.4163 13.4557V12.9396C20.4163 12.773 20.2812 12.6378 20.1145 12.6378C19.9479 12.6378 19.8127 12.773 19.8127 12.9396V15.3128C19.8127 15.4794 19.9479 15.6146 20.1145 15.6146C20.2812 15.6146 20.4163 15.4794 20.4163 15.3128V14.7104L21.2658 15.53C21.3243 15.5865 21.3999 15.6146 21.4753 15.6146C21.5543 15.6146 21.6333 15.5837 21.6925 15.5223C21.8083 15.4024 21.8049 15.2113 21.6849 15.0956Z" fill="#6F6571"/>
</g>
<defs>
<clipPath id="clip0_3533_961">
<rect width="20" height="20" fill="white" transform="translate(6.375 6)"/>
</clipPath>
</defs>
</svg>
