<svg width="33" height="32" viewBox="0 0 33 32" fill="none" xmlns="http://www.w3.org/2000/svg">
<rect x="0.625" width="32" height="32" rx="16" fill="#F7F9FF"/>
<g clip-path="url(#clip0_3533_1138)">
<path d="M16.625 6.15874C14.4335 6.15874 12.6567 7.93546 12.6567 10.127C12.6567 10.8828 12.8682 11.5892 13.2349 12.1905H20.0151C20.3818 11.5892 20.5932 10.8828 20.5932 10.127C20.5932 7.93546 18.8165 6.15874 16.625 6.15874Z" fill="#FECB66"/>
<path d="M20.0138 11.5556H13.2362C12.9213 11.0392 12.7211 10.4455 12.6705 9.80952C12.6622 9.91447 12.6567 10.02 12.6567 10.127C12.6567 10.8828 12.8682 11.5892 13.2349 12.1905H20.0152C20.3818 11.5892 20.5932 10.8828 20.5932 10.127C20.5932 10.02 20.5878 9.91447 20.5795 9.80952C20.5291 10.4455 20.3286 11.0392 20.0138 11.5556Z" fill="#FEBE40"/>
<path d="M22.4546 15.8452L21.2282 14.7302V14.0952H12.0218V14.7302L10.7954 15.8452C10.4646 16.1459 10.2758 16.5725 10.2758 17.0197V23.9365C10.2758 24.9884 11.1287 25.8413 12.1806 25.8413H21.0695C22.1214 25.8413 22.9742 24.9884 22.9742 23.9365V17.0197C22.9742 16.5725 22.7854 16.1459 22.4546 15.8452Z" fill="#6FC7C0"/>
<path d="M12.0219 13.9365H21.2282V14.5714H12.0219V13.9365Z" fill="#3FB4AB"/>
<path d="M21.2282 12.1905H12.0218C11.8463 12.1905 11.7043 12.3325 11.7043 12.5079V13.7778C11.7043 13.9532 11.8463 14.0952 12.0218 14.0952H21.2282C21.4036 14.0952 21.5456 13.9532 21.5456 13.7778V12.5079C21.5456 12.3325 21.4036 12.1905 21.2282 12.1905Z" fill="#866B4D"/>
<path d="M16.9424 22.0317C16.9424 23.6098 15.6633 24.8889 14.0853 24.8889C12.5073 24.8889 11.2281 23.6098 11.2281 22.0317C11.2281 20.4537 12.5073 19.1746 14.0853 19.1746C15.6633 19.1746 16.9424 20.4537 16.9424 22.0317Z" fill="#FECB66"/>
<path d="M14.0853 24.254C12.6149 24.254 11.4049 23.1427 11.2468 21.7143C11.2351 21.8186 11.2281 21.9243 11.2281 22.0317C11.2281 23.6097 12.5073 24.8889 14.0853 24.8889C15.6633 24.8889 16.9424 23.6097 16.9424 22.0317C16.9424 21.9243 16.9353 21.8186 16.9238 21.7143C16.7657 23.1427 15.5557 24.254 14.0853 24.254Z" fill="#FEBE40"/>
<path d="M22.0218 19.3333C22.0218 20.9113 20.7427 22.1905 19.1647 22.1905C17.5867 22.1905 16.3076 20.9113 16.3076 19.3333C16.3076 17.7553 17.5867 16.4762 19.1647 16.4762C20.7427 16.4762 22.0218 17.7553 22.0218 19.3333Z" fill="#FECB66"/>
<path d="M19.1647 21.5556C17.6943 21.5556 16.4843 20.4443 16.3262 19.0159C16.3147 19.1202 16.3076 19.2259 16.3076 19.3333C16.3076 20.9113 17.5867 22.1905 19.1647 22.1905C20.7427 22.1905 22.0218 20.9113 22.0218 19.3333C22.0218 19.2259 22.0147 19.1202 22.0032 19.0159C21.8451 20.4443 20.6351 21.5556 19.1647 21.5556Z" fill="#FEBE40"/>
<path d="M18.8472 9.96825H19.1647V10.2857H18.8472V9.96825Z" fill="#342311"/>
<path d="M14.244 9.96825H14.5615V10.2857H14.244V9.96825Z" fill="#342311"/>
<path d="M23.1329 23.9365V17.0197C23.1329 16.5289 22.9248 16.058 22.5614 15.7276L21.3869 14.6599V14.2248C21.5712 14.1591 21.7044 13.9844 21.7044 13.7778V12.5079C21.7044 12.2453 21.4908 12.0317 21.2282 12.0317H20.2867C20.5917 11.4458 20.752 10.7931 20.752 10.127C20.752 7.85128 18.9006 6 16.625 6C14.3495 6 12.498 7.85128 12.498 10.127C12.498 10.7931 12.6583 11.4458 12.9634 12.0317H12.0218C11.7592 12.0317 11.5456 12.2453 11.5456 12.5079V13.7778C11.5456 13.9844 11.6788 14.1591 11.8631 14.2248V14.6599L10.6886 15.7278C10.3253 16.058 10.1171 16.5289 10.1171 17.0197V23.9365C10.1171 24.6719 10.5051 25.317 11.0859 25.6825H7.57739V26H25.6726V25.6825H22.1641C22.745 25.317 23.1329 24.6719 23.1329 23.9365ZM12.8155 10.127C12.8155 8.02644 14.5245 6.31746 16.625 6.31746C18.7256 6.31746 20.4345 8.02644 20.4345 10.127C20.4345 10.7982 20.2566 11.4543 19.9225 12.0317H18.0536V11.1587C18.0536 10.5023 17.5196 9.96825 16.8631 9.96825H16.3869C15.9055 9.96825 15.5139 9.57654 15.5139 9.09524V8.22222H16.8631C17.3446 8.22222 17.7361 8.61393 17.7361 9.09524V9.33333H18.0536V9.09524C18.0536 8.43877 17.5196 7.90476 16.8631 7.90476H16.7837V7.26984H16.4663V7.90476H15.1964V9.09524C15.1964 9.75171 15.7304 10.2857 16.3869 10.2857H16.8631C17.3446 10.2857 17.7361 10.6774 17.7361 11.1587V12.0317H16.3869C15.9055 12.0317 15.5139 11.64 15.5139 11.1587V10.9206H15.1964V11.1587C15.1964 11.5038 15.3448 11.8141 15.5802 12.0317H13.3275C12.9934 11.4543 12.8155 10.7982 12.8155 10.127ZM12.0218 12.3492H21.2282C21.3156 12.3492 21.3869 12.4204 21.3869 12.5079V12.9841H20.752V13.3016H21.3869V13.7778C21.3869 13.8654 21.3156 13.9365 21.2282 13.9365H12.0218C11.9344 13.9365 11.8631 13.8654 11.8631 13.7778V13.3016H20.1171V12.9841H11.8631V12.5079C11.8631 12.4204 11.9344 12.3492 12.0218 12.3492ZM12.1806 25.6825C11.2178 25.6825 10.4345 24.8993 10.4345 23.9365V17.0197C10.4345 16.618 10.605 16.2328 10.9022 15.9626L12.1806 14.8004V14.254H21.0695V14.8004L22.3478 15.9625C22.6451 16.2327 22.8155 16.6179 22.8155 17.0195V23.9365C22.8155 24.8993 22.0322 25.6825 21.0695 25.6825H12.1806Z" fill="#342311"/>
<path d="M21.8631 21.5556H22.1806V21.873H21.8631V21.5556Z" fill="#342311"/>
<path d="M22.1806 23.9365V22.5079H21.8631V23.9365C21.8631 24.3741 21.5071 24.7302 21.0695 24.7302H20.2758V25.0476H21.0695C21.6822 25.0476 22.1806 24.5491 22.1806 23.9365Z" fill="#342311"/>
<path d="M11.0695 18.8571H11.3869V19.1746H11.0695V18.8571Z" fill="#342311"/>
<path d="M11.3869 17.0197C11.3869 16.8859 11.4438 16.7575 11.5429 16.6673L13.0809 15.2688L12.8673 15.034L11.3291 16.4325C11.1642 16.5825 11.0695 16.7966 11.0695 17.0197V18.2222H11.3869V17.0197Z" fill="#342311"/>
<path d="M14.244 20.4485V19.8095H13.9266V20.4444H13.1329V21.3175C13.1329 21.7988 13.5245 22.1905 14.006 22.1905H14.1647C14.471 22.1905 14.7202 22.4397 14.7202 22.746V23.3016H14.006C13.6997 23.3016 13.4504 23.0523 13.4504 22.746V22.6667H13.1329V22.746C13.1329 23.2005 13.4823 23.5747 13.9266 23.615V24.254H14.244V23.619H15.0377V22.746C15.0377 22.2647 14.6461 21.873 14.1647 21.873H14.006C13.6997 21.873 13.4504 21.6238 13.4504 21.3175V20.7619H14.1647C14.471 20.7619 14.7202 21.0112 14.7202 21.3175V21.3968H15.0377V21.3175C15.0377 20.863 14.6883 20.4888 14.244 20.4485Z" fill="#342311"/>
<path d="M15.6726 21.873H15.9901V22.1905H15.6726V21.873Z" fill="#342311"/>
<path d="M12.1805 21.873H12.498V22.1905H12.1805V21.873Z" fill="#342311"/>
<path d="M22.1806 19.3333C22.1806 17.6704 20.8276 16.3175 19.1647 16.3175C17.5017 16.3175 16.1488 17.6704 16.1488 19.3333C16.1488 19.5226 16.1685 19.7069 16.202 19.8867C15.6571 19.3488 14.9097 19.0159 14.0853 19.0159C12.4224 19.0159 11.0695 20.3688 11.0695 22.0317C11.0695 23.6947 12.4224 25.0476 14.0853 25.0476C15.7483 25.0476 17.1012 23.6947 17.1012 22.0317C17.1012 21.8425 17.0815 21.6582 17.048 21.4784C17.5929 22.0162 18.3404 22.3492 19.1647 22.3492C20.8276 22.3492 22.1806 20.9963 22.1806 19.3333ZM14.0853 24.7302C12.5974 24.7302 11.3869 23.5197 11.3869 22.0317C11.3869 20.5438 12.5974 19.3333 14.0853 19.3333C15.5733 19.3333 16.7837 20.5438 16.7837 22.0317C16.7837 23.5197 15.5733 24.7302 14.0853 24.7302ZM16.4663 19.3333C16.4663 17.8454 17.6768 16.6349 19.1647 16.6349C20.6526 16.6349 21.8631 17.8454 21.8631 19.3333C21.8631 20.8213 20.6526 22.0317 19.1647 22.0317C17.6768 22.0317 16.4663 20.8213 16.4663 19.3333Z" fill="#342311"/>
<path d="M19.3234 21.5556V20.9206H20.117V20.0476C20.117 19.5663 19.7255 19.1746 19.244 19.1746H19.0853C18.779 19.1746 18.5297 18.9254 18.5297 18.6191V18.0635H19.244C19.5503 18.0635 19.7996 18.3128 19.7996 18.6191V18.6984H20.117V18.6191C20.117 18.1646 19.7676 17.7904 19.3234 17.7501V17.1111H19.0059V17.746H18.2123V18.6191C18.2123 19.1004 18.6038 19.4921 19.0853 19.4921H19.244C19.5503 19.4921 19.7996 19.7413 19.7996 20.0476V20.6032H19.0853C18.779 20.6032 18.5297 20.3539 18.5297 20.0476V19.9683H18.2123V20.0476C18.2123 20.5021 18.5617 20.8763 19.0059 20.9166V21.5556H19.3234Z" fill="#342311"/>
<path d="M20.752 19.1746H21.0694V19.4921H20.752V19.1746Z" fill="#342311"/>
<path d="M17.2599 19.1746H17.5774V19.4921H17.2599V19.1746Z" fill="#342311"/>
<path d="M22.0219 6H22.3393V6.63492H22.0219V6Z" fill="#342311"/>
<path d="M21.1699 6.48395L21.3945 6.25949L21.8433 6.7084L21.6188 6.93285L21.1699 6.48395Z" fill="#342311"/>
<path d="M20.9107 7.11111H21.5456V7.42857H20.9107V7.11111Z" fill="#342311"/>
<path d="M21.1703 8.05574L21.6193 7.60667L21.8437 7.83113L21.3948 8.28019L21.1703 8.05574Z" fill="#342311"/>
<path d="M22.0219 7.90475H22.3393V8.53968H22.0219V7.90475Z" fill="#342311"/>
<path d="M22.5169 7.83067L22.7414 7.60622L23.1903 8.05528L22.9658 8.27973L22.5169 7.83067Z" fill="#342311"/>
<path d="M22.8155 7.11111H23.4504V7.42857H22.8155V7.11111Z" fill="#342311"/>
<path d="M22.5171 6.7087L22.9662 6.2598L23.1906 6.48425L22.7417 6.93316L22.5171 6.7087Z" fill="#342311"/>
<path d="M24.0853 12.5079H24.4028V13.1429H24.0853V12.5079Z" fill="#342311"/>
<path d="M23.2337 12.9922L23.4582 12.7677L23.9071 13.2166L23.6826 13.4411L23.2337 12.9922Z" fill="#342311"/>
<path d="M22.9742 13.619H23.6091V13.9365H22.9742V13.619Z" fill="#342311"/>
<path d="M23.2337 14.5635L23.6826 14.1146L23.9072 14.3391L23.4582 14.7881L23.2337 14.5635Z" fill="#342311"/>
<path d="M24.0853 14.4127H24.4028V15.0476H24.0853V14.4127Z" fill="#342311"/>
<path d="M24.5804 14.3385L24.8051 14.114L25.254 14.5629L25.0294 14.7874L24.5804 14.3385Z" fill="#342311"/>
<path d="M24.879 13.619H25.5139V13.9365H24.879V13.619Z" fill="#342311"/>
<path d="M24.5806 13.2166L25.0295 12.7676L25.2541 12.992L24.805 13.4411L24.5806 13.2166Z" fill="#342311"/>
<path d="M9.48212 6H9.79958V6.63492H9.48212V6Z" fill="#342311"/>
<path d="M8.63049 6.4841L8.8551 6.25964L9.30401 6.70855L9.0794 6.93301L8.63049 6.4841Z" fill="#342311"/>
<path d="M8.37103 7.11111H9.00595V7.42857H8.37103V7.11111Z" fill="#342311"/>
<path d="M8.63068 8.05558L9.07959 7.60667L9.30404 7.83113L8.85513 8.28004L8.63068 8.05558Z" fill="#342311"/>
<path d="M9.48212 7.90475H9.79958V8.53968H9.48212V7.90475Z" fill="#342311"/>
<path d="M9.97754 7.83082L10.2021 7.60637L10.6511 8.05543L10.4264 8.27989L9.97754 7.83082Z" fill="#342311"/>
<path d="M10.2758 7.11111H10.9107V7.42857H10.2758V7.11111Z" fill="#342311"/>
<path d="M9.97754 6.70855L10.4264 6.25964L10.6511 6.4841L10.202 6.93301L9.97754 6.70855Z" fill="#342311"/>
<path d="M7.73608 12.5079H8.05354V13.1429H7.73608V12.5079Z" fill="#342311"/>
<path d="M6.88477 12.9919L7.10922 12.7674L7.55813 13.2163L7.33352 13.4408L6.88477 12.9919Z" fill="#342311"/>
<path d="M6.625 13.619H7.25992V13.9365H6.625V13.619Z" fill="#342311"/>
<path d="M6.88464 14.5635L7.33355 14.1145L7.55801 14.3391L7.1091 14.788L6.88464 14.5635Z" fill="#342311"/>
<path d="M7.73608 14.4127H8.05354V15.0476H7.73608V14.4127Z" fill="#342311"/>
<path d="M8.23169 14.3386L8.4563 14.1142L8.90521 14.5632L8.6806 14.7877L8.23169 14.3386Z" fill="#342311"/>
<path d="M8.52979 13.619H9.16471V13.9365H8.52979V13.619Z" fill="#342311"/>
<path d="M8.23151 13.2165L8.68042 12.7676L8.90487 12.992L8.45596 13.4409L8.23151 13.2165Z" fill="#342311"/>
<path d="M24.879 8.38095H25.1964V9.01587H24.879V8.38095Z" fill="#342311"/>
<path d="M24.879 9.65079H25.1964V10.2857H24.879V9.65079Z" fill="#342311"/>
<path d="M25.3552 9.17461H25.9901V9.49207H25.3552V9.17461Z" fill="#342311"/>
<path d="M24.0853 9.17461H24.7202V9.49207H24.0853V9.17461Z" fill="#342311"/>
<path d="M10.1171 9.49207H10.4345V10.127H10.1171V9.49207Z" fill="#342311"/>
<path d="M10.1171 10.7619H10.4345V11.3968H10.1171V10.7619Z" fill="#342311"/>
<path d="M10.5933 10.2857H11.2282V10.6032H10.5933V10.2857Z" fill="#342311"/>
<path d="M9.32343 10.2857H9.95835V10.6032H9.32343V10.2857Z" fill="#342311"/>
<path d="M6.625 25.6825H6.94246V26H6.625V25.6825Z" fill="#342311"/>
<path d="M26.3076 25.6825H26.625V26H26.3076V25.6825Z" fill="#342311"/>
</g>
<defs>
<clipPath id="clip0_3533_1138">
<rect width="20" height="20" fill="white" transform="translate(6.625 6)"/>
</clipPath>
</defs>
</svg>
