<svg width="33" height="32" viewBox="0 0 33 32" fill="none" xmlns="http://www.w3.org/2000/svg">
<rect x="0.875" width="32" height="32" rx="16" fill="#F7F9FF"/>
<g clip-path="url(#clip0_3533_1079)">
<path d="M16.875 25.947C22.3686 25.947 26.822 21.4936 26.822 16C26.822 10.5064 22.3686 6.05298 16.875 6.05298C11.3814 6.05298 6.92798 10.5064 6.92798 16C6.92798 21.4936 11.3814 25.947 16.875 25.947Z" fill="#4B5AA7"/>
<path d="M10.0406 12.4901H23.7095V19.5232H10.0406V12.4901Z" fill="#71D456"/>
<path d="M21.7889 18.8742H11.9611C11.9611 18.2252 11.4445 17.7086 10.7955 17.7086V14.2914C11.4445 14.2914 11.9611 13.7748 11.9611 13.1258H21.7889C21.7889 13.7748 22.3055 14.2914 22.9545 14.2914V17.6954C22.3187 17.7086 21.7889 18.2252 21.7889 18.8742Z" fill="#FCFCFD"/>
<path d="M16.875 18.3576C18.1771 18.3576 19.2326 17.3021 19.2326 16C19.2326 14.6979 18.1771 13.6424 16.875 13.6424C15.5729 13.6424 14.5174 14.6979 14.5174 16C14.5174 17.3021 15.5729 18.3576 16.875 18.3576Z" fill="#71D456"/>
<path d="M12.4909 16.5563C12.7982 16.5563 13.0472 16.3072 13.0472 16C13.0472 15.6928 12.7982 15.4437 12.4909 15.4437C12.1837 15.4437 11.9346 15.6928 11.9346 16C11.9346 16.3072 12.1837 16.5563 12.4909 16.5563Z" fill="#71D456"/>
<path d="M21.2591 16.5563C21.5663 16.5563 21.8154 16.3072 21.8154 16C21.8154 15.6928 21.5663 15.4437 21.2591 15.4437C20.9519 15.4437 20.7028 15.6928 20.7028 16C20.7028 16.3072 20.9519 16.5563 21.2591 16.5563Z" fill="#71D456"/>
<path d="M17.8419 16.6887C17.8419 16.1589 17.4048 15.7219 16.875 15.7219C16.6499 15.7219 16.4644 15.5364 16.4644 15.3113C16.4644 15.0861 16.6499 14.9007 16.875 14.9007C16.9942 14.9007 17.1002 14.9404 17.1797 15.0331C17.2856 15.1391 17.4578 15.1523 17.577 15.0464C17.683 14.9404 17.6962 14.7682 17.5903 14.649C17.4711 14.5298 17.3254 14.4371 17.1664 14.3841V14.1854C17.1664 14.0265 17.0472 13.9073 16.8883 13.9073C16.7293 13.9073 16.6101 14.0265 16.6101 14.1854V14.3709C16.2128 14.4901 15.9214 14.8609 15.9214 15.298C15.9214 15.8278 16.3585 16.2649 16.8883 16.2649C17.1134 16.2649 17.2989 16.4503 17.2989 16.6755C17.2989 16.9007 17.1134 17.0861 16.8883 17.0861C16.7691 17.0861 16.6631 17.0464 16.5836 16.9536C16.4777 16.8477 16.3055 16.8344 16.1863 16.9404C16.0803 17.0464 16.0671 17.2185 16.173 17.3378C16.2922 17.457 16.4379 17.5497 16.5969 17.6027V17.8013C16.5969 17.9603 16.7161 18.0795 16.875 18.0795C17.034 18.0795 17.1532 17.9603 17.1532 17.8013V17.6159C17.5505 17.4967 17.8419 17.1258 17.8419 16.6887Z" fill="#FCFCFD"/>
<path d="M19.3253 6.95364L19.2989 6.96689V7.98676H10.5439V10.4371H19.2989V11.457L19.3253 11.4702L23.2061 9.2053L19.3253 6.95364Z" fill="#FBD303"/>
<path d="M23.2061 21.5629H14.4512V20.543L14.4247 20.5298L10.5439 22.7947L14.4247 25.0464L14.4512 25.0331V24.0132H23.2061V21.5629Z" fill="#F0582F"/>
</g>
<defs>
<clipPath id="clip0_3533_1079">
<rect width="20" height="20" fill="white" transform="translate(6.875 6)"/>
</clipPath>
</defs>
</svg>
