<svg width="33" height="32" viewBox="0 0 33 32" fill="none" xmlns="http://www.w3.org/2000/svg">
<rect x="0.375" width="32" height="32" rx="16" fill="#F7F9FF"/>
<path d="M16.375 11C16.7202 11 17 11.2798 17 11.625V15.375H20.75C21.0952 15.375 21.375 15.6548 21.375 16C21.375 16.3452 21.0952 16.625 20.75 16.625H17V20.375C17 20.7202 16.7202 21 16.375 21C16.0298 21 15.75 20.7202 15.75 20.375V16.625H12C11.6548 16.625 11.375 16.3452 11.375 16C11.375 15.6548 11.6548 15.375 12 15.375H15.75V11.625C15.75 11.2798 16.0298 11 16.375 11Z" fill="#0781FF"/>
</svg>
