<svg width="33" height="32" viewBox="0 0 33 32" fill="none" xmlns="http://www.w3.org/2000/svg">
<rect x="0.125" width="32" height="32" rx="16" fill="#F7F9FF"/>
<path d="M8.52804 14.1834H12.9707C13.745 14.1834 14.375 13.5573 14.375 12.7877V8.37223C14.375 7.60266 13.745 6.97656 12.9707 6.97656H8.52804C7.7537 6.97656 7.12378 7.60266 7.12378 8.37223V12.7877C7.12378 13.5573 7.7537 14.1834 8.52804 14.1834Z" fill="#79B2FF"/>
<path d="M19.2793 14.1834H23.722C24.4963 14.1834 25.1263 13.5573 25.1263 12.7877V8.37223C25.1263 7.60266 24.4963 6.97656 23.722 6.97656H19.2793C18.505 6.97656 17.875 7.60266 17.875 8.37223V12.7877C17.875 13.5573 18.505 14.1834 19.2793 14.1834Z" fill="#79B2FF"/>
<path d="M12.9485 17.7945H8.50582C7.73152 17.7945 7.10156 18.4206 7.10156 19.1902V23.6057C7.10156 24.3753 7.73152 25.0014 8.50582 25.0014H12.9485C13.7228 25.0014 14.3527 24.3753 14.3527 23.6057V19.1902C14.3528 18.4206 13.7228 17.7945 12.9485 17.7945Z" fill="#79B2FF"/>
<path d="M23.7442 17.7945H19.3015C18.5272 17.7945 17.8972 18.4206 17.8972 19.1902V23.6057C17.8972 24.3753 18.5272 25.0014 19.3015 25.0014H23.7442C24.5185 25.0014 25.1484 24.3753 25.1484 23.6057V19.1902C25.1484 18.4206 24.5185 17.7945 23.7442 17.7945Z" fill="#FFD7AC"/>
<path d="M16.125 14.2055C16.2872 14.2055 16.4186 14.0748 16.4186 13.9137V7.26836C16.4186 7.10719 16.2872 6.97656 16.125 6.97656C15.9629 6.97656 15.8314 7.10723 15.8314 7.26836V13.9137C15.8314 14.0748 15.9629 14.2055 16.125 14.2055Z" fill="#636F80"/>
<path d="M16.125 17.7945C15.9629 17.7945 15.8314 17.9251 15.8314 18.0863V24.7316C15.8314 24.8928 15.9629 25.0234 16.125 25.0234C16.2872 25.0234 16.4186 24.8928 16.4186 24.7316V18.0863C16.4186 17.9251 16.2872 17.7945 16.125 17.7945Z" fill="#636F80"/>
<path d="M14.1036 15.6971H7.41737C7.25522 15.6971 7.12378 15.8278 7.12378 15.9889C7.12378 16.1501 7.25522 16.2808 7.41737 16.2808H14.1036C14.2657 16.2808 14.3972 16.1501 14.3972 15.9889C14.3972 15.8278 14.2657 15.6971 14.1036 15.6971Z" fill="#636F80"/>
<path d="M18.1464 16.2366H24.8326C24.9948 16.2366 25.1262 16.106 25.1262 15.9448C25.1262 15.7836 24.9947 15.653 24.8326 15.653H18.1464C17.9842 15.653 17.8528 15.7837 17.8528 15.9448C17.8528 16.1059 17.9842 16.2366 18.1464 16.2366Z" fill="#636F80"/>
<path d="M16.148 15.6751H16.1476C15.9855 15.6751 15.8542 15.8057 15.8542 15.9669C15.8542 16.128 15.9859 16.2587 16.148 16.2587C16.3102 16.2587 16.4416 16.128 16.4416 15.9669C16.4416 15.8057 16.3102 15.6751 16.148 15.6751Z" fill="#636F80"/>
</svg>
