<svg width="92" height="85" viewBox="0 0 92 85" fill="none" xmlns="http://www.w3.org/2000/svg">
<path d="M80.4611 52.197C80.4611 54.958 78.2221 57.197 75.4611 57.197H16.2051C13.4441 57.197 11.2051 54.958 11.2051 52.197V8C11.2051 5.239 13.4441 3 16.2051 3H75.4611C78.2221 3 80.4611 5.239 80.4611 8V52.197Z" stroke="#C7CED8" stroke-width="6" stroke-miterlimit="10"/>
<path d="M86.666 63.4268H5C2.239 63.4268 0 65.6658 0 68.4268V79.4427C0 82.2037 2.239 84.4427 5 84.4427H86.666C89.427 84.4427 91.666 82.2037 91.666 79.4427V68.4268C91.666 65.6658 89.427 63.4268 86.666 63.4268ZM45.833 79.1508C42.952 79.1508 40.617 76.8158 40.617 73.9348C40.617 71.0538 42.952 68.7188 45.833 68.7188C48.713 68.7188 51.049 71.0538 51.049 73.9348C51.049 76.8158 48.713 79.1508 45.833 79.1508Z" fill="#C7CED8"/>
<path d="M51.3113 26.6443L50.4099 28.6038H37.6339L38.3393 26.6443H51.3113ZM49.6261 30.5633L48.7247 32.5228H37.6339L38.3393 30.5633H49.6261ZM53.6235 21.3536L52.6829 23.3915C52.2649 23.0126 51.824 22.686 51.3603 22.4117C50.8965 22.1374 50.4099 21.9251 49.9004 21.7749C49.3909 21.6246 48.8554 21.5495 48.2936 21.5495C47.1832 21.5495 46.1839 21.8565 45.2956 22.4705C44.4073 23.0845 43.7051 23.9891 43.1891 25.1844C42.6731 26.3797 42.4151 27.8461 42.4151 29.5835C42.4151 31.321 42.6731 32.7873 43.1891 33.9826C43.7051 35.1779 44.4073 36.0826 45.2956 36.6965C46.1839 37.3105 47.1832 37.6175 48.2936 37.6175C48.8684 37.6175 49.4105 37.5424 49.92 37.3922C50.436 37.2419 50.9161 37.0362 51.3603 36.7749C51.8109 36.5137 52.2257 36.2197 52.6045 35.8931L53.5843 37.931C52.8985 38.5777 52.0951 39.0675 51.1741 39.4007C50.2531 39.7272 49.293 39.8905 48.2936 39.8905C46.6868 39.8905 45.2629 39.4725 44.0219 38.6365C42.7874 37.8004 41.8174 36.6116 41.112 35.0701C40.4131 33.5287 40.0637 31.6998 40.0637 29.5835C40.0637 27.4672 40.4131 25.6384 41.112 24.0969C41.8174 22.5554 42.7874 21.3666 44.0219 20.5306C45.2629 19.6945 46.6868 19.2765 48.2936 19.2765C49.3322 19.2765 50.3021 19.4561 51.2035 19.8154C52.1114 20.1746 52.9181 20.6873 53.6235 21.3536Z" fill="#3CD1E5"/>
<path d="M45.8331 46.9762C55.1545 46.9762 62.7111 39.4197 62.7111 30.0982C62.7111 20.7767 55.1545 13.2202 45.8331 13.2202C36.5116 13.2202 28.9551 20.7767 28.9551 30.0982C28.9551 39.4197 36.5116 46.9762 45.8331 46.9762Z" stroke="#3CD1E5" stroke-width="3" stroke-miterlimit="10"/>
</svg>
