<svg width="68" height="93" viewBox="0 0 68 93" fill="none" xmlns="http://www.w3.org/2000/svg">
<path d="M16.917 34.448V22.812C16.917 15.296 23.0089 9.20499 30.5229 9.20499C38.0389 9.20499 44.1299 15.297 44.1299 22.812V34.448H52.774V22.251C52.774 9.96201 42.8119 0 30.5229 0C18.2339 0 8.27295 9.96201 8.27295 22.251V34.448H16.917Z" fill="#C7CED8"/>
<path d="M52.095 38.9468H8.95102C4.00802 38.9468 0 42.9538 0 47.8978V83.3738C0 88.3168 4.00702 92.3248 8.95102 92.3248H52.095C57.038 92.3248 61.046 88.3178 61.046 83.3738V47.8978C61.046 42.9538 57.039 38.9468 52.095 38.9468ZM35.789 77.5378H25.258L28.031 63.6718C26.361 62.7798 25.223 61.0198 25.223 58.9938C25.223 56.0658 27.596 53.6928 30.523 53.6928C33.451 53.6928 35.824 56.0658 35.824 58.9938C35.824 61.0198 34.686 62.7788 33.016 63.6718L35.789 77.5378Z" fill="#C7CED8"/>
<path d="M58.2453 37.5249H57.6973C61.3113 38.9179 63.8813 42.4139 63.8813 46.5199V84.7499C63.8813 86.6369 63.3313 88.3909 62.3953 89.8779C65.2483 88.3819 67.1963 85.3959 67.1963 81.9509V46.4749C67.1963 41.5329 63.1893 37.5249 58.2453 37.5249Z" fill="#3CD1E5"/>
</svg>
