<svg width="85" height="75" viewBox="0 0 85 75" fill="none" xmlns="http://www.w3.org/2000/svg">
<path d="M82.553 64.791C82.553 69.064 79.088 72.529 74.815 72.529H9.73801C5.46501 72.529 2 69.064 2 64.791V9.73801C2 5.46501 5.46501 2 9.73801 2H74.815C79.088 2 82.553 5.46501 82.553 9.73801V64.791Z" stroke="#C7CED8" stroke-width="3" stroke-miterlimit="10"/>
<path d="M74.815 2H9.73801C5.46501 2 2 5.46501 2 9.73801V24.089H82.554V9.73801C82.553 5.46501 79.088 2 74.815 2ZM44.043 16.982H12.853C10.929 16.982 9.37 15.424 9.37 13.5C9.37 11.576 10.93 10.017 12.853 10.017H44.043C45.968 10.017 47.526 11.577 47.526 13.5C47.527 15.424 45.968 16.982 44.043 16.982ZM70.866 16.982C68.69 16.982 66.928 15.219 66.928 13.044C66.928 10.868 68.69 9.10501 70.866 9.10501C73.042 9.10501 74.804 10.869 74.804 13.044C74.803 15.22 73.041 16.982 70.866 16.982Z" fill="#C7CED8"/>
<path d="M26.8449 60.0389V34.9572H28.4517V60.0389H26.8449ZM32.2531 42.4817C32.1356 41.4889 31.6588 40.7182 30.8227 40.1695C29.9866 39.6208 28.9612 39.3465 27.7463 39.3465C26.858 39.3465 26.0807 39.4902 25.4145 39.7776C24.7548 40.065 24.2388 40.4602 23.8664 40.9631C23.5007 41.466 23.3178 42.0376 23.3178 42.6777C23.3178 43.2133 23.4451 43.6738 23.6999 44.0591C23.9612 44.438 24.2943 44.7548 24.6992 45.0095C25.1042 45.2577 25.5288 45.4634 25.9729 45.6267C26.4171 45.7835 26.8253 45.9109 27.1976 46.0088L29.2355 46.5575C29.758 46.6947 30.3394 46.8841 30.9795 47.1258C31.6261 47.3674 32.2433 47.6973 32.8312 48.1153C33.4256 48.5268 33.9155 49.0559 34.3008 49.7025C34.6862 50.3492 34.8789 51.1428 34.8789 52.0833C34.8789 53.1676 34.5948 54.1473 34.0265 55.0226C33.4648 55.8978 32.6418 56.5935 31.5575 57.1095C30.4798 57.6255 29.1702 57.8835 27.6287 57.8835C26.1917 57.8835 24.9474 57.6516 23.8958 57.1878C22.8508 56.7241 22.0278 56.0775 21.4269 55.2479C20.8325 54.4184 20.4961 53.455 20.4177 52.3577H22.9259C22.9912 53.1153 23.2459 53.7424 23.6901 54.2388C24.1408 54.7287 24.709 55.0944 25.3949 55.3361C26.0872 55.5713 26.8318 55.6888 27.6287 55.6888C28.5562 55.6888 29.389 55.5386 30.1271 55.2381C30.8652 54.9311 31.4497 54.5066 31.8808 53.9645C32.3119 53.4158 32.5275 52.7757 32.5275 52.0441C32.5275 51.3779 32.3413 50.8358 31.969 50.4177C31.5967 49.9997 31.1068 49.6601 30.4994 49.3988C29.8919 49.1375 29.2355 48.9089 28.5301 48.713L26.0611 48.0075C24.4935 47.5569 23.2525 46.9135 22.338 46.0774C21.4236 45.2414 20.9664 44.1473 20.9664 42.7952C20.9664 41.6718 21.2701 40.692 21.8775 39.856C22.4915 39.0134 23.3145 38.3602 24.3465 37.8965C25.3851 37.4262 26.5444 37.191 27.8247 37.191C29.1179 37.191 30.2675 37.4229 31.2734 37.8867C32.2793 38.3439 33.0761 38.9709 33.664 39.7678C34.2584 40.5647 34.5719 41.4693 34.6046 42.4817H32.2531Z" fill="#3CD1E5"/>
<path d="M43.2396 51.8791C45.3658 42.8038 39.7324 33.7231 30.6571 31.5968C21.5817 29.4706 12.501 35.104 10.3748 44.1794C8.24855 53.2548 13.8819 62.3355 22.9573 64.4617C32.0327 66.5879 41.1134 60.9545 43.2396 51.8791Z" stroke="#3CD1E5" stroke-width="2.3216" stroke-miterlimit="10"/>
<path d="M74.8032 37.2651C74.8032 38.6341 73.6942 39.7441 72.3242 39.7441H54.1152C52.7472 39.7441 51.6372 38.6341 51.6372 37.2651C51.6372 35.8961 52.7472 34.7861 54.1152 34.7861H72.3242C73.6942 34.7851 74.8032 35.8961 74.8032 37.2651Z" fill="#3CD1E5"/>
<path d="M74.8032 48.0449C74.8032 49.4139 73.6942 50.5249 72.3242 50.5249H54.1152C52.7472 50.5249 51.6372 49.4149 51.6372 48.0449C51.6372 46.6759 52.7472 45.5669 54.1152 45.5669H72.3242C73.6942 45.5669 74.8032 46.6759 74.8032 48.0449Z" fill="#3CD1E5"/>
<path d="M74.8032 58.8262C74.8032 60.1952 73.6942 61.3052 72.3242 61.3052H54.1152C52.7472 61.3052 51.6372 60.1962 51.6372 58.8262C51.6372 57.4572 52.7472 56.3472 54.1152 56.3472H72.3242C73.6942 56.3472 74.8032 57.4572 74.8032 58.8262Z" fill="#3CD1E5"/>
</svg>
