<svg height="512" viewBox="0 0 128 128" width="512" xmlns="http://www.w3.org/2000/svg"><g id="_18._Office" data-name="18. Office"><circle cx="64" cy="66" fill="#e7efff" r="62"/><path d="m109.6 108a62 62 0 0 1 -91.2 0z" fill="#7f96d1"/><path d="m92 108h-56v-106a2 2 0 0 1 2-2h52a2 2 0 0 1 2 2z" fill="#4e6aff"/><path d="m36 68v40h-17.6a62.33 62.33 0 0 1 -10.4-15.36v-22.64a2 2 0 0 1 2-2z" fill="#323fd4"/><g fill="#e7efff"><path d="m44 8h8v8h-8z"/><path d="m60 8h8v8h-8z"/><path d="m76 8h8v8h-8z"/><path d="m44 24h8v8h-8z"/><path d="m60 24h8v8h-8z"/><path d="m76 24h8v8h-8z"/><path d="m44 40h8v8h-8z"/><path d="m60 40h8v8h-8z"/><path d="m76 40h8v8h-8z"/><path d="m44 56h8v8h-8z"/><path d="m60 56h8v8h-8z"/><path d="m76 52h8v8h-8z"/><path d="m44 72h8v8h-8z"/><path d="m60 72h8v8h-8z"/><path d="m76 72h8v8h-8z"/><path d="m54 88h20v20h-20z"/></g><circle cx="22" cy="36" fill="#ffa100" r="18"/><path d="m22 46h-4a2 2 0 0 1 0-4h4a2 2 0 0 0 0-4 6 6 0 0 1 0-12h4a2 2 0 0 1 0 4h-4a2 2 0 0 0 0 4 6 6 0 0 1 0 12z" fill="#fff"/><path d="m22 30a2 2 0 0 1 -2-2v-4a2 2 0 0 1 4 0v4a2 2 0 0 1 -2 2z" fill="#fff"/><path d="m22 50a2 2 0 0 1 -2-2v-4a2 2 0 0 1 4 0v4a2 2 0 0 1 -2 2z" fill="#fff"/><path d="m120 64.82v27.82a62.33 62.33 0 0 1 -10.4 15.36h-17.6v-56l25.35 9a4 4 0 0 1 2.65 3.82z" fill="#323fd4"/><path d="m16 76h20v8h-20z" fill="#e7efff"/><path d="m92 72h20v8h-20z" fill="#e7efff"/><path d="m92 88h20v8h-20z" fill="#e7efff"/><path d="m16 90h20v4h-20z" fill="#e7efff"/><path d="m12 58h4v10h-4z" fill="#4e6aff"/><path d="m20 64h4v4h-4z" fill="#4e6aff"/><path d="m62 88h4v20h-4z" fill="#4e6aff"/><circle cx="15" cy="119" fill="#ffa100" r="3"/><circle cx="109" cy="45" fill="#ffa100" r="3"/><circle cx="125" cy="109.86" fill="#00c99f" r="3"/><circle cx="27" cy="9" fill="#00c99f" r="3"/></g></svg>