<svg width="75" height="83" viewBox="0 0 75 83" fill="none" xmlns="http://www.w3.org/2000/svg">
<path d="M43.4178 59.7991C43.4178 62.5611 41.1798 64.7991 38.4178 64.7991H36.2188C33.4567 64.7991 31.2188 62.5611 31.2188 59.7991V45.2461C31.2188 42.4841 33.4567 40.2461 36.2188 40.2461H38.4178C41.1798 40.2461 43.4178 42.4841 43.4178 45.2461V59.7991Z" fill="#3CD1E5"/>
<path d="M69.637 21.6172H5C2.238 21.6172 0 23.8552 0 26.6172V48.2982H29.203V43.9212C29.203 40.2462 32.181 37.2692 35.855 37.2692H38.781C42.456 37.2692 45.433 40.2462 45.433 43.9212V48.2982H74.636V26.6172C74.637 23.8562 72.398 21.6172 69.637 21.6172Z" fill="#C7CED8"/>
<path d="M45.434 52.9858V59.9698C45.434 63.6448 42.456 66.6218 38.782 66.6218H35.856C32.181 66.6218 29.2039 63.6438 29.2039 59.9698V52.9858H0.000976562V77.2739C0.000976562 80.0359 2.23898 82.2739 5.00098 82.2739H69.6379C72.3989 82.2739 74.6379 80.0359 74.6379 77.2739V52.9858H45.434Z" fill="#C7CED8"/>
<path d="M24.3399 17.006C25.6439 11.024 30.9639 6.54095 37.3359 6.54095C43.7089 6.54095 49.0289 11.023 50.3329 17.006H56.9799C55.5989 7.39198 47.3329 0 37.3349 0C27.3389 0 19.0719 7.39198 17.6919 17.006H24.3399Z" fill="#C7CED8"/>
<path d="M25.926 17.0059C25.926 17.7779 25.3 18.4039 24.528 18.4039H17.44C16.668 18.4039 16.042 17.7779 16.042 17.0059C16.042 16.2339 16.668 15.6079 17.44 15.6079H24.528C25.3 15.6079 25.926 16.2339 25.926 17.0059Z" fill="#C7CED8"/>
<path d="M58.7688 17.0059C58.7688 17.7779 58.1428 18.4039 57.3708 18.4039H50.2828C49.5118 18.4039 48.8848 17.7779 48.8848 17.0059C48.8848 16.2339 49.5118 15.6079 50.2828 15.6079H57.3708C58.1428 15.6079 58.7688 16.2339 58.7688 17.0059Z" fill="#C7CED8"/>
</svg>
