<svg width="85" height="86" viewBox="0 0 85 86" fill="none" xmlns="http://www.w3.org/2000/svg">
<path d="M43.1529 5.79401L3.29187 37.89L0.566895 34.506L42.5459 0.416016L43.1529 5.79401Z" fill="#3CD1E5"/>
<path d="M41.9399 5.79401L81.801 37.89L84.525 34.506L42.546 0.416016L41.9399 5.79401Z" fill="#3CD1E5"/>
<path d="M42.7479 10.1401L10.9819 34.8931V40.2161H74.515V34.8931L42.7479 10.1401ZM42.7479 28.8751C40.7929 28.8751 39.2059 27.2881 39.2059 25.3321C39.2059 23.3771 40.7929 21.7911 42.7479 21.7911C44.7049 21.7911 46.291 23.3771 46.291 25.3321C46.291 27.2881 44.7049 28.8751 42.7479 28.8751Z" fill="#C7CED8"/>
<path d="M74.515 69.5469H10.9819V74.0279H74.515V69.5469Z" fill="#C7CED8"/>
<path d="M78.9919 75.917H6.50391V85.59H78.9919V75.917Z" fill="#3CD1E5"/>
<path d="M21.252 43.4399H15.354V66.0519H21.252V43.4399Z" fill="#C7CED8"/>
<path d="M33.7999 43.4399H27.9009V66.0519H33.7999V43.4399Z" fill="#C7CED8"/>
<path d="M46.3467 43.4399H40.4487V66.0519H46.3467V43.4399Z" fill="#C7CED8"/>
<path d="M58.8948 43.4399H52.9968V66.0519H58.8948V43.4399Z" fill="#C7CED8"/>
<path d="M71.442 43.4399H65.5439V66.0519H71.442V43.4399Z" fill="#C7CED8"/>
</svg>
