<svg width="65" height="83" viewBox="0 0 65 83" fill="none" xmlns="http://www.w3.org/2000/svg">
<path d="M45.054 3H3V79.949H62V19.945C56.351 14.297 50.703 8.649 45.054 3Z" stroke="#C7CED8" stroke-width="5" stroke-miterlimit="10" stroke-linecap="round" stroke-linejoin="round"/>
<path d="M62.0012 19.946H45.0542V19.219V3" stroke="#C7CED8" stroke-width="5" stroke-miterlimit="10" stroke-linecap="round" stroke-linejoin="round"/>
<path d="M18.2824 32.9365V11.3305H19.6666V32.9365H18.2824ZM22.9412 17.8123C22.8399 16.957 22.4292 16.2931 21.709 15.8205C20.9888 15.3478 20.1054 15.1115 19.0589 15.1115C18.2937 15.1115 17.6241 15.2353 17.0502 15.4829C16.4819 15.7305 16.0374 16.0709 15.7167 16.5041C15.4016 16.9373 15.2441 17.4297 15.2441 17.9811C15.2441 18.4425 15.3538 18.8391 15.5732 19.1711C15.7983 19.4974 16.0852 19.7703 16.4341 19.9898C16.7829 20.2036 17.1487 20.3808 17.5313 20.5215C17.9139 20.6565 18.2655 20.7662 18.5863 20.8506L20.3417 21.3233C20.7919 21.4414 21.2926 21.6046 21.844 21.8128C22.4011 22.0209 22.9328 22.3051 23.4392 22.6652C23.9512 23.0197 24.3732 23.4754 24.7051 24.0324C25.0371 24.5895 25.2031 25.2731 25.2031 26.0833C25.2031 27.0173 24.9583 27.8613 24.4688 28.6153C23.9849 29.3692 23.276 29.9685 22.342 30.413C21.4136 30.8575 20.2855 31.0797 18.9576 31.0797C17.7198 31.0797 16.6479 30.88 15.742 30.4805C14.8418 30.081 14.1328 29.524 13.6152 28.8094C13.1032 28.0948 12.8134 27.2649 12.7459 26.3196H14.9065C14.9627 26.9723 15.1822 27.5125 15.5648 27.9401C15.953 28.3621 16.4425 28.6772 17.0333 28.8854C17.6297 29.0879 18.2712 29.1892 18.9576 29.1892C19.7566 29.1892 20.474 29.0598 21.1098 28.801C21.7456 28.5365 22.2491 28.1708 22.6205 27.7038C22.9919 27.2311 23.1775 26.6797 23.1775 26.0496C23.1775 25.4757 23.0172 25.0087 22.6965 24.6486C22.3757 24.2885 21.9538 23.9959 21.4305 23.7708C20.9072 23.5457 20.3417 23.3488 19.7341 23.18L17.6072 22.5724C16.2569 22.1841 15.1878 21.6299 14.4001 20.9097C13.6124 20.1895 13.2185 19.2471 13.2185 18.0824C13.2185 17.1146 13.4801 16.2706 14.0034 15.5504C14.5323 14.8246 15.2413 14.2619 16.1303 13.8624C17.0249 13.4573 18.0236 13.2548 19.1264 13.2548C20.2405 13.2548 21.2307 13.4545 22.0972 13.854C22.9637 14.2479 23.6502 14.788 24.1566 15.4744C24.6686 16.1609 24.9386 16.9402 24.9668 17.8123H22.9412Z" fill="#3CD1E5"/>
<path d="M53.0941 37.7661H10.8311V41.4751H53.0941V37.7661Z" fill="#3CD1E5"/>
<path d="M53.0941 56.9458H10.8311V60.6548H53.0941V56.9458Z" fill="#3CD1E5"/>
<path d="M49.4841 47.356H10.8311V51.065H49.4841V47.356Z" fill="#3CD1E5"/>
<path d="M43.6511 66.5361H10.8311V70.2451H43.6511V66.5361Z" fill="#3CD1E5"/>
</svg>
