<svg width="74" height="75" viewBox="0 0 74 75" fill="none" xmlns="http://www.w3.org/2000/svg">
<path d="M37.7983 33.37L64.1253 12.616C58.5423 5.548 50.2273 0.881 41.0143 0L37.7983 33.37Z" fill="#3CD1E5"/>
<path d="M68.7772 54.7892C72.7872 48.3642 74.6562 40.5532 73.5372 32.4642C72.6892 26.3362 70.2292 20.8312 66.6532 16.3042L40.3262 37.0582L68.7772 54.7892Z" fill="#3CD1E5"/>
<path d="M37.9043 41.4312L41.1223 74.7951C41.5803 74.7511 42.0383 74.7041 42.4983 74.6411C52.7503 73.2221 61.2723 67.3061 66.3543 59.1631L37.9043 41.4312Z" fill="#C7CED8"/>
<path d="M36.7463 5.6368C34.1973 5.3938 31.5833 5.4308 28.9363 5.7968C10.5953 8.3338 -2.21672 25.2588 0.320276 43.6018C2.79428 61.4828 18.9443 74.0938 36.7483 72.3658L33.5303 39.0078L36.7463 5.6368Z" fill="#C7CED8"/>
</svg>
