<svg width="64" height="62" viewBox="0 0 64 62" fill="none" xmlns="http://www.w3.org/2000/svg">
<g clip-path="url(#clip0_231_413)">
<path d="M53.2988 19.3256L50.4104 15.8113C50.0133 15.3299 49.7725 14.7522 49.7123 14.1264L49.2791 9.60111C49.0504 7.25427 47.185 5.37676 44.826 5.14809L40.3008 4.71482C39.6749 4.65464 39.0972 4.41394 38.6158 4.01678L35.1015 1.12831C33.2721 -0.376102 30.6364 -0.376102 28.8071 1.12831L25.2928 4.01678C24.8113 4.41394 24.2337 4.65464 23.6078 4.71482L19.0826 5.14809C16.7357 5.37676 14.8582 7.24222 14.6296 9.60111L14.1963 14.1264C14.1361 14.7522 13.8954 15.3299 13.4982 15.8113L10.6097 19.3256C9.10535 21.155 9.10535 23.7907 10.6097 25.6201L13.4982 29.1344C13.8954 29.6158 14.1361 30.1935 14.1963 30.8193L14.6296 35.3446C14.8582 37.6915 16.7236 39.569 19.0826 39.7976L21.8507 40.0624L15.2674 55.7805C15.0869 56.2137 15.1711 56.6951 15.472 57.0321C15.7849 57.3812 16.2423 57.5136 16.6875 57.3932L22.3923 55.7805C22.4163 55.7685 22.4404 55.7805 22.4524 55.8046L25.3049 61.0038C25.5214 61.389 25.9186 61.6296 26.3519 61.6296C26.3759 61.6296 26.388 61.6296 26.4121 61.6296C26.8694 61.6055 27.2786 61.3288 27.4591 60.8955L34.4155 44.2868C34.6562 44.1544 34.8729 43.9979 35.0895 43.8174L38.6038 40.9289C39.0491 40.5679 39.5787 40.3272 40.1443 40.255L46.4267 55.275L41.9737 54.0233C41.1312 53.7826 40.2406 54.1557 39.8193 54.926L37.5929 58.9698L34.6442 51.9172C34.4516 51.4478 33.91 51.2311 33.4527 51.4238C32.9834 51.6163 32.7667 52.1579 32.9593 52.6152L36.4134 60.8834C36.5939 61.3047 36.9911 61.5935 37.4604 61.6176C37.4845 61.6176 37.4965 61.6176 37.5206 61.6176C37.9539 61.6176 38.3511 61.389 38.5677 60.9918L41.4201 55.7925C41.4321 55.7685 41.4562 55.7564 41.4803 55.7685L47.185 57.3812C47.6303 57.5016 48.0996 57.3691 48.4005 57.0201C48.7134 56.6711 48.7857 56.1897 48.6051 55.7685L42.0338 40.0504L44.8019 39.7856C47.1488 39.557 49.0263 37.6915 49.255 35.3326L49.6883 30.8073C49.7484 30.1815 49.9892 29.6038 50.3864 29.1224L53.2748 25.6081C54.7912 23.8028 54.7912 21.155 53.2988 19.3256ZM26.2917 58.9698L24.0652 54.914C23.6439 54.1437 22.7533 53.7706 21.9109 54.0113L17.4578 55.263L23.7403 40.243C24.3059 40.3272 24.8354 40.5559 25.2808 40.9169L28.7951 43.8054C29.7097 44.5516 30.829 44.9367 31.9483 44.9367C32.0205 44.9367 32.0927 44.9367 32.1649 44.9367L26.2917 58.9698ZM51.8787 24.4647L48.9902 27.979C48.3644 28.7373 47.9793 29.6639 47.883 30.6509L47.4497 35.1761C47.3053 36.6564 46.1259 37.8359 44.6455 37.9803L40.6739 38.3655C40.6619 38.3655 40.6378 38.3655 40.6257 38.3655L40.1202 38.4136C39.1334 38.5099 38.2066 38.895 37.4484 39.5209L33.9341 42.4093C32.7787 43.3601 31.1179 43.3601 29.9625 42.4093L26.4482 39.5209C25.69 38.895 24.7632 38.5099 23.7764 38.4136L23.2708 38.3655C23.2588 38.3655 23.2468 38.3655 23.2347 38.3655L19.2511 37.9803C17.7707 37.8359 16.5913 36.6564 16.4469 35.1761L16.0136 30.6509C15.9173 29.6639 15.5322 28.7373 14.9064 27.979L12.0179 24.4647C11.0671 23.3094 11.0671 21.6484 12.0179 20.493L14.9064 16.9788C15.5322 16.2205 15.9173 15.2938 16.0136 14.3069L16.4469 9.78165C16.5913 8.30135 17.7707 7.12187 19.2511 6.97745L23.7764 6.54418C24.7632 6.4479 25.69 6.06277 26.4482 5.43694L29.9625 2.54847C30.5401 2.07909 31.2382 1.83839 31.9483 1.83839C32.6584 1.83839 33.3564 2.07909 33.9341 2.54847L37.4484 5.43694C38.2066 6.06277 39.1334 6.4479 40.1202 6.54418L44.6455 6.97745C46.1259 7.12187 47.3053 8.30135 47.4497 9.78165L47.883 14.3069C47.9793 15.2938 48.3644 16.2205 48.9902 16.9788L51.8787 20.493C52.8295 21.6364 52.8295 23.3094 51.8787 24.4647Z" fill="#CBCBCB"/>
<path d="M31.9479 8.20508C31.3342 8.20508 30.7203 8.24119 30.1186 8.32541C29.6131 8.38562 29.264 8.84295 29.3243 9.34847C29.3845 9.85391 29.8418 10.203 30.3472 10.1428C30.8768 10.0706 31.4064 10.0465 31.9359 10.0465C38.796 10.0465 44.3804 15.6309 44.3804 22.491C44.3804 29.3511 38.796 34.9354 31.9359 34.9354C25.0758 34.9354 19.4915 29.3511 19.4915 22.491C19.4915 17.5926 22.3799 13.1396 26.845 11.1296C27.3023 10.9251 27.507 10.3834 27.3023 9.92613C27.0978 9.4688 26.5561 9.26424 26.0988 9.4688C20.9718 11.7675 17.6621 16.8825 17.6621 22.491C17.6621 30.362 24.0649 36.7648 31.9359 36.7648C39.807 36.7648 46.2097 30.362 46.2097 22.491C46.2218 14.6078 39.819 8.20508 31.9479 8.20508Z" fill="#20805C"/>
<path d="M22.8739 21.4201C21.7907 22.5153 21.7907 24.2845 22.8739 25.3677L26.8696 29.3634C27.3991 29.8929 28.0972 30.1818 28.8434 30.1818C29.5896 30.1818 30.2876 29.8929 30.8172 29.3634L39.5307 20.6498C40.6259 19.5547 40.6259 17.7855 39.5307 16.7023C38.4355 15.607 36.6663 15.607 35.5831 16.7023L28.8434 23.4421L26.8214 21.4201C25.7263 20.3249 23.9571 20.3249 22.8739 21.4201ZM28.8314 25.6324C29.072 25.6324 29.3007 25.5362 29.4812 25.3677L36.8589 17.9901C37.232 17.617 37.8458 17.617 38.2309 17.9901C38.604 18.3631 38.604 18.9769 38.2309 19.3621L29.5173 28.0756C29.3368 28.2561 29.0961 28.3645 28.8314 28.3645C28.5786 28.3645 28.3258 28.2682 28.1453 28.0756L24.1496 24.0799C23.7765 23.7068 23.7765 23.093 24.1496 22.7079C24.3422 22.5153 24.5829 22.419 24.8356 22.419C25.0884 22.419 25.3291 22.5153 25.5216 22.6959L28.1814 25.3557C28.3619 25.5362 28.5906 25.6324 28.8314 25.6324Z" fill="#20805C"/>
</g>
<defs>
<clipPath id="clip0_231_413">
<rect width="64" height="61.6296" fill="white"/>
</clipPath>
</defs>
</svg>
