<svg width="64" height="63" viewBox="0 0 64 63" fill="none" xmlns="http://www.w3.org/2000/svg">
<g clip-path="url(#clip0_231_423)">
<path d="M63.4344 24.2694C63.1028 23.8883 62.5059 23.8386 62.1246 24.1865L50.0546 34.7423C49.7562 35.0074 49.6567 35.4051 49.806 35.7697C50.6184 37.9073 50.3199 40.3267 49.0599 42.1826L46.7553 40.1444C45.86 39.349 44.6165 40.741 45.5118 41.5364L50.8836 46.3254C51.7457 47.0876 51.8121 48.4465 51.0328 49.3082C50.2868 50.1367 48.9936 50.203 48.1646 49.4573C46.7387 48.1648 45.3128 46.8557 43.8705 45.5632C42.9751 44.7512 41.7317 46.1265 42.6104 46.9385L46.5895 50.551C47.3024 51.3464 47.3024 52.5727 46.5895 53.3681C45.8434 54.1966 44.5502 54.2629 43.7212 53.5172C42.2788 52.2578 40.8861 50.9321 39.4934 49.6231C38.6147 48.7945 37.3381 50.1699 38.2168 50.9818L41.3503 53.8817C42.1793 54.6606 42.312 56.0194 41.5327 56.8811C40.7866 57.7097 39.4934 57.7759 38.6644 57.0302C37.4541 55.92 36.2106 54.8594 35.0335 53.7326C34.1714 52.904 32.8781 54.2463 33.7403 55.0749L35.4812 56.7486C36.3101 57.5606 36.4759 58.853 35.6635 59.7479C34.9174 60.5765 33.6242 60.6428 32.7952 59.897C32.7455 59.8473 32.3807 59.4994 31.9994 59.1348C32.845 57.7097 32.6461 55.8702 31.386 54.5281C30.7228 53.8155 29.8109 53.3681 28.8493 53.3018C29.1643 52.0258 28.8659 50.6007 27.9043 49.5899C27.1914 48.8276 26.2131 48.3802 25.1687 48.3471C25.4671 47.0876 25.1521 45.6957 24.207 44.7015C23.262 43.6906 21.8527 43.2598 20.5098 43.5415C20.4766 42.6135 20.1285 41.669 19.4487 40.9564C17.9565 39.3656 15.4198 39.2993 13.8614 40.8239C13.2479 39.2662 13.2147 37.5097 13.7785 35.9188C13.9111 35.5709 13.8116 35.1731 13.5297 34.9246L1.55927 24.0374C1.17794 23.6895 0.581079 23.7226 0.249487 24.1037C-0.0986845 24.4849 -0.0655254 25.0814 0.315806 25.4128L11.8386 35.8857C11.2584 37.957 11.4739 40.2273 12.4189 42.1495L11.4075 43.0775C9.84911 44.5026 9.8988 47.1374 11.3081 48.6288C12.021 49.391 12.9827 49.8219 14.0105 49.855C13.7287 51.0978 14.0603 52.4733 14.9888 53.4509C15.9173 54.4286 17.3596 54.876 18.6694 54.5944C18.686 55.5555 19.0342 56.5166 19.7471 57.2623C20.6755 58.2399 22.118 58.6874 23.4444 58.4057C23.461 59.3502 23.8257 60.3113 24.522 61.0404C26.0142 62.6147 28.5674 62.6644 30.1094 61.1398L30.7559 60.5268C31.3529 61.1067 31.502 61.2393 31.5352 61.289C33.0937 62.681 35.6138 62.565 37.0396 61.0073C37.5868 60.4108 37.9183 59.6651 38.0344 58.8862C39.5929 59.8141 41.6653 59.5491 42.9254 58.1571C43.5389 57.4777 43.887 56.6326 43.9368 55.7377C45.346 56.1686 46.9377 55.7874 47.9988 54.6275C48.7116 53.832 49.0599 52.8212 49.0102 51.8104C50.237 51.9761 51.5303 51.5453 52.4255 50.5676C53.8679 48.9767 53.7353 46.3751 52.1271 44.95L50.4525 43.4586C52.0441 41.2547 52.525 38.3713 51.7457 35.7532L63.3514 25.5951C63.7328 25.2471 63.7825 24.6506 63.4344 24.2694ZM12.651 47.386C11.8718 46.574 11.8883 45.2649 12.6676 44.4695C13.48 43.7238 14.2924 42.9615 15.1214 42.2158C15.9504 41.4535 17.2767 41.3873 18.0891 42.2489C18.7855 42.9946 18.8353 44.138 18.2549 44.9334C17.3762 45.762 16.4975 46.5906 15.6022 47.4025C14.7732 48.1648 13.48 48.2476 12.651 47.386ZM17.8073 52.8544C17.2436 52.8544 16.7296 52.6224 16.3483 52.2081C15.569 51.3961 15.5856 50.087 16.3815 49.2916C17.5586 48.1813 18.7855 47.0876 19.9295 45.9442C20.7419 45.1323 22.0848 45.1654 22.8641 46.0105C23.6267 46.8391 23.6101 48.1482 22.8309 48.9436L19.2829 52.2578C18.9016 52.6058 18.3544 52.8544 17.8073 52.8544ZM22.5657 56.6657C22.0019 56.6657 21.4879 56.4337 21.1066 56.0194C20.3274 55.2074 20.344 53.8983 21.1232 53.1029L23.577 50.8493C24.4059 50.087 25.7323 50.0207 26.5447 50.8824C27.4069 51.827 27.2245 53.2189 26.2961 53.9977C25.6826 54.4286 25.1521 55.0086 24.6215 55.5058C24.0246 56.0691 23.4776 56.6823 22.5657 56.6657ZM28.7996 59.8473C27.9872 60.6593 26.6608 60.6262 25.8816 59.7976C25.1355 59.0188 25.1189 57.7925 25.8152 56.9805L27.4566 55.4726C28.269 54.9589 29.3964 55.1412 30.043 55.8206C30.8554 56.6823 30.8886 57.8091 30.126 58.588C30.126 58.588 30.126 58.588 30.1094 58.6045L28.7996 59.8473C28.7996 59.8307 28.8162 59.8307 28.7996 59.8473Z" fill="#20805C"/>
<path d="M0.298999 2.24682L23.3613 23.1926C23.6597 23.4577 24.0907 23.5074 24.4389 23.3251C26.1632 22.364 28.2025 22.2315 30.0263 22.8777C27.9538 24.6673 25.384 26.3908 23.7592 28.6278C23.0628 29.5723 24.5384 30.7323 25.2679 29.7215C26.7932 27.6335 29.247 26.0925 31.1536 24.3691C33.2261 22.4966 36.3597 22.0989 38.83 23.3914C39.1782 23.5736 39.5927 23.5239 39.8911 23.2589L63.3512 2.44567C63.7326 2.09769 63.7657 1.5177 63.4342 1.13657C63.086 0.755435 62.5057 0.722293 62.1244 1.05371L39.0953 21.4857C36.7742 20.4915 34.0882 20.5577 31.8334 21.668C29.4625 20.3755 26.5943 20.2761 24.1239 21.3863L1.55905 0.871431C1.17772 0.523441 0.597431 0.556583 0.24926 0.937716C-0.0989123 1.31885 -0.0823332 1.89883 0.298999 2.24682Z" fill="#CBCBCB"/>
<path d="M23.9749 33.4829C24.0246 32.2732 22.1677 32.1904 22.1179 33.4L21.9024 38.0565C21.8195 40.1942 23.4775 42.0335 25.5997 42.1661C27.755 42.2987 29.645 40.5421 29.728 38.3879L30.0761 33.3006C30.4409 32.9692 33.0439 30.4338 33.1931 30.5664L41.3834 37.8576C42.2787 38.653 43.5388 37.2777 42.6269 36.4656L33.79 28.5447C33.4418 28.2299 32.8947 28.2299 32.5465 28.5447L28.5508 32.1572C28.3684 32.323 28.269 32.5383 28.2524 32.7869L27.8877 38.2719C27.8048 39.3822 26.8929 40.3599 25.7323 40.2936C24.6214 40.2273 23.7427 39.2496 23.7924 38.1228L23.9749 33.4829Z" fill="#20805C"/>
</g>
<defs>
<clipPath id="clip0_231_423">
<rect width="64" height="61.6296" fill="white" transform="translate(0 0.629883)"/>
</clipPath>
</defs>
</svg>
