<svg width="64" height="62" viewBox="0 0 64 62" fill="none" xmlns="http://www.w3.org/2000/svg">
<g clip-path="url(#clip0_231_375)">
<mask id="mask0_231_375" style="mask-type:luminance" maskUnits="userSpaceOnUse" x="0" y="0" width="64" height="62">
<path d="M64 0H0V61.6296H64V0Z" fill="white"/>
</mask>
<g mask="url(#mask0_231_375)">
<path d="M13.9667 52.1828C13.7833 52.0312 13.5834 51.8797 13.4001 51.7113C12.4667 50.9198 11.2667 52.368 12.1833 53.1594C12.3834 53.3278 12.5834 53.4962 12.7834 53.6646C13.7167 54.4223 14.9334 52.9741 13.9667 52.1828Z" fill="#CBCBCB"/>
<path d="M2.51634 31.2018C3.033 31.2018 3.44967 30.7808 3.44967 30.2588C3.44967 30.0231 3.44967 29.7705 3.46634 29.5179C3.49967 28.2887 1.61634 28.2381 1.59967 29.4674C1.59967 29.72 1.58301 29.9893 1.58301 30.2588C1.58301 30.764 1.99967 31.2018 2.51634 31.2018Z" fill="#CBCBCB"/>
<path d="M33.8501 1.98679C34.3502 2.02047 34.8502 2.07098 35.3335 2.1215C36.5002 2.25621 36.7335 0.370277 35.5501 0.235567C35.0335 0.168213 34.5002 0.134535 33.9668 0.100858C32.7668 0.0166645 32.6502 1.91944 33.8501 1.98679Z" fill="#CBCBCB"/>
<path d="M13.7165 8.2506C13.9165 8.2506 14.1165 8.18328 14.2999 8.04857C14.6832 7.74545 15.0999 7.44235 15.4998 7.15609C16.4998 6.44887 15.4165 4.8997 14.4332 5.60693C13.9999 5.91003 13.5665 6.22996 13.1498 6.56674C12.4831 7.05506 12.8498 8.2506 13.7165 8.2506Z" fill="#CBCBCB"/>
<path d="M18.2498 5.30406C18.3998 5.30406 18.5498 5.27038 18.6831 5.20303C19.1165 4.96729 19.5665 4.74839 20.0164 4.54632C21.1164 4.04116 20.3498 2.30677 19.2331 2.81194C18.7498 3.03084 18.2665 3.26658 17.7998 3.51916C17.0331 3.92329 17.2498 5.30406 18.2498 5.30406Z" fill="#CBCBCB"/>
<path d="M39.0167 2.79508C39.5001 2.91295 39.9834 3.04766 40.4501 3.19921C41.5667 3.53598 42.1501 1.73424 41.0001 1.38063C40.5 1.22908 39.9834 1.07754 39.4667 0.959665C38.3001 0.656566 37.8501 2.50882 39.0167 2.79508Z" fill="#CBCBCB"/>
<path d="M23.2497 3.24976C23.8331 3.16556 24.3831 2.92982 24.9664 2.81195C26.1497 2.50886 25.683 0.673437 24.5163 0.976532C23.9997 1.11124 23.483 1.24595 22.983 1.41434C21.9497 1.70059 22.2164 3.24976 23.2497 3.24976Z" fill="#CBCBCB"/>
<path d="M59.8997 24.2474C59.9997 24.7357 60.0997 25.2409 60.1831 25.7292C60.3664 26.9247 62.2331 26.6385 62.0331 25.4261C61.9497 24.9042 61.8497 24.3653 61.7331 23.8433C61.4831 22.6477 59.6331 23.0519 59.8997 24.2474Z" fill="#CBCBCB"/>
<path d="M56.6 15.8953C57.2667 17.0067 58.8167 15.929 58.2167 14.9186C57.95 14.464 57.65 14.0094 57.3666 13.5547C56.6833 12.5444 55.1334 13.6053 55.8167 14.6156C56.0833 15.0365 56.35 15.4575 56.6 15.8953Z" fill="#CBCBCB"/>
<path d="M58.2998 19.2463C58.4999 19.701 58.6832 20.1725 58.8498 20.644C59.3166 21.9238 60.9998 21.0481 60.6165 19.9872C60.4332 19.4821 60.2332 18.977 60.0332 18.4886C59.5499 17.3605 57.8332 18.1182 58.2998 19.2463Z" fill="#CBCBCB"/>
<path d="M9.14997 11.7364C9.59995 12.0731 10.05 12.0563 10.4833 11.6521C10.8167 11.2817 11.1499 10.9112 11.5 10.5576C12.35 9.68203 11.0166 8.35178 10.1666 9.22739C9.79993 9.61463 9.43331 10.002 9.08329 10.4061C8.73326 10.7765 8.76661 11.3828 9.14997 11.7364Z" fill="#CBCBCB"/>
<path d="M43.9499 4.52923C44.3999 4.73129 44.8498 4.9502 45.2998 5.18594C46.3331 5.72478 47.2665 4.07458 46.1665 3.50207C45.6998 3.24949 45.2165 3.01375 44.7332 2.79484C43.6332 2.28969 42.8499 4.02407 43.9499 4.52923Z" fill="#CBCBCB"/>
<path d="M53.5168 11.6353C54.3334 12.5614 55.7167 11.2817 54.9167 10.3724C54.5668 9.96826 54.2001 9.58094 53.8334 9.1937C52.9834 8.31809 51.6501 9.64834 52.5 10.524C52.8501 10.8944 53.1834 11.2649 53.5168 11.6353Z" fill="#CBCBCB"/>
<path d="M48.5 7.13911C48.9 7.42537 49.3166 7.72847 49.7 8.03153C50.6333 8.77242 51.8334 7.29066 50.85 6.53291C50.4333 6.21298 50 5.8762 49.5666 5.57311C48.5833 4.88273 47.5 6.43188 48.5 7.13911Z" fill="#CBCBCB"/>
<path d="M28.5165 2.13813C29.0499 2.08761 29.5832 2.02026 30.1165 2.00342C31.3332 1.91922 31.1999 0.0332889 29.9999 0.117483C29.4666 0.15116 28.9332 0.201676 28.4166 0.252192C27.2666 0.386901 27.3833 2.13813 28.5165 2.13813Z" fill="#CBCBCB"/>
<path d="M2.73305 26.5377C3.19971 26.6219 3.73305 26.2178 3.81638 25.7463C3.89972 25.258 3.98305 24.7528 4.09972 24.2645C4.36639 23.069 2.51638 22.6648 2.26638 23.8604C2.14972 24.3824 2.04972 24.9212 1.96639 25.4432C1.88305 25.9821 2.23305 26.4535 2.73305 26.5377Z" fill="#CBCBCB"/>
<path d="M3.93318 21.2332C4.41651 21.4016 4.81651 21.2164 5.13318 20.6607C5.29985 20.1892 5.48318 19.7177 5.68318 19.2631C6.16652 18.1349 4.43318 17.394 3.94985 18.5222C3.73318 19.0105 3.54985 19.5157 3.36652 20.0208C3.19985 20.4923 3.44984 21.048 3.93318 21.2332Z" fill="#CBCBCB"/>
<path d="M6.09974 16.2323C6.56641 16.4849 6.99974 16.3839 7.38308 15.9124C7.63307 15.4746 7.89974 15.0536 8.1831 14.6326C8.8664 13.6224 7.29974 12.5615 6.63308 13.5718C6.33307 14.0096 6.04974 14.4643 5.78308 14.9358C5.51641 15.3735 5.64974 15.963 6.09974 16.2323Z" fill="#CBCBCB"/>
<path d="M60.5332 29.5178C60.5332 29.7704 60.5498 30.0062 60.5498 30.2587C60.5832 31.5048 62.3831 31.5048 62.4332 30.2587C62.4332 30.0062 62.4332 29.7368 62.4165 29.4674C62.3831 28.2382 60.4998 28.2886 60.5332 29.5178Z" fill="#CBCBCB"/>
<path d="M50.483 51.8291C50.2997 51.9806 50.0996 52.149 49.9163 52.3006C48.9497 53.0752 50.0996 54.4728 51.083 53.7824C51.283 53.614 51.483 53.4624 51.683 53.2941C52.6163 52.5027 51.4163 51.0377 50.483 51.8291Z" fill="#CBCBCB"/>
<path d="M37.633 58.009C37.1664 58.11 36.683 58.1773 36.2163 58.2616C35.033 58.4299 35.333 60.3158 36.483 60.1474C36.983 60.0801 37.4997 59.9791 37.983 59.8949C39.1997 59.6255 38.833 57.7732 37.633 58.009Z" fill="#CBCBCB"/>
<path d="M42.4667 56.5945C42.0167 56.7629 41.5667 56.9313 41.1167 57.0828C39.9334 57.4701 40.6 59.255 41.7 58.8846C42.1834 58.7162 42.6667 58.5478 43.1333 58.3626C44.2667 57.9248 43.6 56.1567 42.4667 56.5945Z" fill="#CBCBCB"/>
<path d="M46.9668 54.355C46.5669 54.6076 46.1335 54.8434 45.7168 55.0791C44.6168 55.6852 45.5835 57.3018 46.6002 56.7461C47.0502 56.5104 47.5002 56.2409 47.9335 55.9715C48.9835 55.3485 48.0001 53.7151 46.9668 54.355Z" fill="#CBCBCB"/>
<path d="M22.75 57.0323C22.3001 56.8808 21.85 56.7124 21.4 56.5272C20.2667 56.0726 19.5834 57.8406 20.7167 58.2953C21.1834 58.4805 21.6667 58.6657 22.15 58.8172C23.25 59.2214 23.9167 57.4365 22.75 57.0323Z" fill="#CBCBCB"/>
<path d="M32.65 58.5478C32.1667 58.5646 31.6833 58.5646 31.2167 58.5478C30 58.5141 29.95 60.4169 31.1667 60.4506C31.6667 60.4674 32.1834 60.4674 32.7001 60.4506C33.9 60.4169 33.8667 58.5141 32.65 58.5478Z" fill="#CBCBCB"/>
<path d="M18.1499 55.0118C17.7333 54.776 17.3166 54.5403 16.9 54.2877C15.8666 53.6478 14.8833 55.2643 15.9167 55.9042C16.35 56.1736 16.7999 56.4262 17.2333 56.6788C18.2666 57.2345 19.25 55.618 18.1499 55.0118Z" fill="#CBCBCB"/>
<path d="M27.6332 58.2278C27.1665 58.1605 26.6832 58.0763 26.2165 57.9753C25.0332 57.7395 24.6499 59.5918 25.8498 59.8275C26.3499 59.9285 26.8499 60.0127 27.3499 60.0969C28.5165 60.2821 28.7998 58.4131 27.6332 58.2278Z" fill="#CBCBCB"/>
<path d="M54.8165 44.8412L60.2666 40.1432L62.3499 42.6185C62.6832 43.0226 63.2833 43.0562 63.6665 42.7195C64.0666 42.3827 64.1166 41.7765 63.7666 41.3892L57.3999 33.9971L51.7999 22.4457C51.4499 21.7385 50.8999 21.1491 50.2166 20.7787L42.1832 15.4914C41.1499 14.8178 39.6499 14.9188 38.6165 15.5082L34.2166 18.0003C33.3999 18.4549 32.7999 19.2127 32.4999 20.1051L31.9332 21.8395L31.3665 20.1051C31.0665 19.2127 30.4666 18.4718 29.6499 18.0003L25.2665 15.4914C24.2332 14.902 22.7333 14.8009 21.6999 15.4744L18.9999 17.2594C17.9833 17.9329 19.0166 19.5158 20.0332 18.8422L22.6832 17.091C23.2166 16.8384 23.8333 16.8553 24.3499 17.1415L28.7499 19.6337C29.1499 19.8525 29.4499 20.223 29.5999 20.6776L30.9832 24.921C31.0999 25.2746 30.5665 25.965 30.2666 25.4599L28.8499 23.0855C28.5332 22.5636 28.0166 22.1763 27.4332 22.0416L24.4165 21.3007C23.7832 21.1491 22.6332 21.3849 22.2166 21.9911C22.1832 22.0752 18.0499 28.154 18.0165 28.2382C17.2499 29.5685 17.2499 31.2187 18.0165 32.5489L20.2999 36.506C20.8332 37.4321 21.6999 38.1225 22.7166 38.4256C25.4666 39.2002 27.6832 39.8232 29.5832 42.1807C29.9833 42.669 30.4166 43.1405 30.8165 43.6119C31.0832 43.9656 30.6499 44.5886 30.2333 44.3023L27.4332 42.2312C27.3832 42.1975 27.3166 42.1638 27.2499 42.1301C27.0999 42.0628 26.2832 41.6755 26.1499 41.6587L17.7333 39.9748C17.5832 39.9411 17.4333 39.9579 17.2999 39.9917L12.7165 41.3051C11.6665 41.6082 10.7833 42.2817 10.1999 43.2079L4.98323 38.7119L7.98323 35.1421C8.03324 35.0747 8.08326 35.0242 8.1166 34.94L13.7832 23.2877C14.0165 22.9003 14.2999 22.6141 14.6666 22.412L15.9499 21.5701C16.9665 20.8965 15.9332 19.3137 14.9166 19.9872L13.6833 20.8124C12.9999 21.1828 12.4332 21.7721 12.0999 22.4625L6.48323 34.0139L0.233232 41.3724C-0.550101 42.2985 0.866568 43.5446 1.66657 42.6016L3.7499 40.1264L9.19994 44.8244L0.133232 60.0971C-0.133435 60.5517 0.0165656 61.1242 0.449899 61.3936C0.883232 61.663 1.46656 61.5283 1.73323 61.0737L10.8832 45.6662C11.3832 44.6897 12.0833 43.4436 13.1999 43.1236L17.5666 41.8775L25.6666 43.494L26.3832 43.814L29.1166 45.8346C29.9499 46.4577 31.1332 46.3903 31.9165 45.7505C32.6999 46.3903 33.8666 46.4745 34.7166 45.8346L37.5332 43.7466C37.6999 43.6288 37.8832 43.5446 38.0665 43.5109L46.2666 41.8775L50.6332 43.1236C51.5499 43.3762 52.2999 44.3866 52.7832 45.1779L62.2166 61.0737C62.3999 61.3767 62.6999 61.5283 63.0166 61.5283C63.7166 61.5451 64.1999 60.7032 63.8166 60.0971L54.8165 44.8412ZM51.1666 41.3051C50.9499 41.2882 46.2166 39.7727 46.1332 39.9748L37.7166 41.6587C37.2499 41.7429 36.8166 41.9449 36.4332 42.2312L33.6332 44.2855C33.1999 44.5718 32.7666 43.9488 33.0499 43.5951C33.4666 43.1236 33.8999 42.6522 34.2832 42.1638C36.1665 39.8232 38.3999 39.1834 41.1499 38.4088C42.1666 38.1057 43.0333 37.4153 43.5666 36.4892L45.8499 32.5321C46.6165 31.2019 46.6165 29.5516 45.8499 28.2213C45.5832 27.7667 45.0166 27.6152 44.5666 27.8678C44.1166 28.1372 43.9666 28.7097 44.2332 29.1644C44.6499 29.9053 44.6499 30.8145 44.2332 31.5554L41.9499 35.5125C41.6499 36.0346 41.1833 36.405 40.6166 36.5733C37.4832 37.4321 34.9832 38.2909 32.8499 40.9178L31.9332 41.9618L31.0166 40.9178C28.8833 38.2741 26.3832 37.4153 23.2499 36.5733C22.6832 36.405 22.2166 36.0346 21.9166 35.5125L19.6332 31.5554C19.2166 30.8314 19.1999 29.9221 19.6165 29.198L23.6832 23.1529C23.7666 23.1024 23.8666 23.0855 23.9666 23.1193L26.9832 23.8602C27.0832 23.877 27.1832 23.9443 27.2332 24.0454L28.6499 26.4196C29.3166 27.531 30.9499 27.7667 31.9332 27.009C32.9166 27.7667 34.5665 27.531 35.2166 26.4196L36.6333 24.0454C36.6832 23.9443 36.7832 23.8938 36.8833 23.8602L39.8999 23.1193C39.9999 23.1024 40.1166 23.1193 40.1999 23.1698L41.6833 25.1567C42.4666 26.1334 43.8999 25.0389 43.1832 24.0117L41.6166 21.9406C41.1833 21.3681 40.0833 21.1323 39.4499 21.2838L36.4332 22.0247C35.8499 22.1594 35.3333 22.5468 35.0166 23.0687L33.5999 25.443C33.3332 25.8977 32.7499 25.2914 32.8833 24.9042L34.2666 20.6608C34.4166 20.223 34.7166 19.8525 35.1165 19.6168L39.5166 17.1247C40.0332 16.8384 40.6499 16.8216 41.1833 17.0741L49.2165 22.3784C49.5832 22.5804 49.8832 22.8835 50.0999 23.254L55.7666 34.9063C55.7999 34.9737 55.8499 35.0579 55.8999 35.1084L58.9999 38.6614L53.7332 43.2752C53.1166 42.3659 52.2332 41.6082 51.1666 41.3051Z" fill="#20805C"/>
</g>
</g>
<defs>
<clipPath id="clip0_231_375">
<rect width="64" height="61.6296" fill="white"/>
</clipPath>
</defs>
</svg>
