<svg width="64" height="63" viewBox="0 0 64 63" fill="none" xmlns="http://www.w3.org/2000/svg">
<g clip-path="url(#clip0_231_432)">
<path d="M48.226 19.2632C47.7446 19.4077 47.4878 19.9213 47.6322 20.3866C48.1137 21.9274 48.3544 23.5484 48.3544 25.1855C48.3544 30.6101 45.6742 35.6657 41.1643 38.699C38.5964 40.4323 36.9594 43.257 36.7026 46.3546H35.1458V37.2546L39.2544 33.2743C39.6075 32.9212 39.6235 32.3595 39.2705 32.0064C38.9174 31.6533 38.3556 31.6373 38.0026 31.9904L37.3446 32.6324L36.0285 32.1348C35.8199 32.0545 35.5952 32.0545 35.4025 32.1348L33.894 32.6965L32.3853 32.1348C32.1766 32.0545 31.952 32.0545 31.7594 32.1348L30.2507 32.6965L28.7421 32.1348C28.5334 32.0545 28.3087 32.0545 28.1162 32.1348L26.8001 32.6324L26.1421 31.9904C25.789 31.6373 25.2112 31.6533 24.8741 32.0064C24.5211 32.3595 24.5372 32.9373 24.8903 33.2743L28.9989 37.2546V46.3546H27.4421C27.1692 43.2731 25.5161 40.4323 22.9001 38.6509C18.5186 35.6656 15.8544 30.7064 15.7903 25.4101C15.71 21.0126 17.4112 16.8398 20.5569 13.6941C23.7025 10.5324 27.8754 8.83108 32.289 8.89532C37.9704 8.97552 43.1062 11.9286 46.0273 16.8076C46.284 17.241 46.8458 17.3694 47.2631 17.1126C47.6964 16.8558 47.8248 16.3102 47.568 15.8768C46.0112 13.2768 43.7964 11.1101 41.1964 9.56937C38.5162 7.99654 35.4347 7.12987 32.305 7.09777C27.41 7.03357 22.7877 8.9274 19.289 12.4261C15.7903 15.925 13.8964 20.5472 13.9606 25.4422C14.0408 31.3163 16.9939 36.8212 21.8569 40.1434C23.9754 41.5879 25.3236 43.8669 25.5964 46.3546H23.3334C22.2902 46.3546 21.4236 47.2052 21.4236 48.2644V50.2064C21.4236 51.2496 22.2742 52.1163 23.3334 52.1163H23.7507C23.7507 52.1484 23.7507 52.1805 23.7507 52.2126V54.1545C23.7507 55.1977 24.6013 56.0484 25.6445 56.0644C25.6767 56.8508 25.8371 57.6212 26.1421 58.3435C26.3347 58.8089 26.8643 59.0175 27.3298 58.825C27.7952 58.6323 28.0038 58.1027 27.8112 57.6372C27.6026 57.1398 27.4742 56.594 27.4582 56.0484H36.6704C36.5582 58.5039 34.5359 60.4619 32.0643 60.4619C31.4063 60.4619 30.7803 60.3335 30.1865 60.0607C29.7371 59.8521 29.1915 60.0607 28.9989 60.5101C28.7902 60.9595 28.9989 61.4891 29.4482 61.6978C30.2667 62.0669 31.1495 62.2595 32.0643 62.2595C35.5309 62.2595 38.3556 59.499 38.468 56.0484C39.5112 56.0484 40.3618 55.1977 40.3618 54.1385V52.1965C40.3618 52.1645 40.3618 52.1324 40.3618 52.1002H40.7791C41.8223 52.1002 42.689 51.2497 42.689 50.1903V48.2484C42.689 47.2052 41.8384 46.3385 40.7791 46.3385H38.5162C38.773 43.8348 40.105 41.5718 42.1754 40.1755C47.1668 36.8052 50.1519 31.1879 50.1519 25.1694C50.1519 23.3558 49.8791 21.5582 49.3495 19.841C49.2211 19.3916 48.7075 19.1187 48.226 19.2632ZM28.2124 34.0126L28.4211 33.9324L29.9297 34.4941C30.1384 34.5743 30.3631 34.5743 30.5557 34.4941L32.0643 33.9324L33.5729 34.4941C33.7816 34.5743 34.0063 34.5743 34.1989 34.4941L35.7075 33.9324L35.9161 34.0126L33.6211 36.2274C33.4445 36.4039 33.3482 36.6287 33.3482 36.8694V46.3546H30.7803V36.8694C30.7803 36.6287 30.6841 36.3879 30.5075 36.2274L28.2124 34.0126ZM38.5483 54.1545C38.5483 54.2027 38.5001 54.2509 38.4519 54.2509H25.6606C25.5964 54.2509 25.5643 54.2027 25.5643 54.1545V52.2126C25.5643 52.1645 25.6124 52.1163 25.6606 52.1163H38.4519C38.5162 52.1163 38.5483 52.1645 38.5483 52.2126V54.1545ZM40.7791 48.1682C40.8273 48.1682 40.8754 48.2163 40.8754 48.2644V50.2064C40.8754 50.2706 40.8273 50.3027 40.7791 50.3027H23.3495C23.3013 50.3027 23.2532 50.2546 23.2532 50.2064V48.2644C23.2532 48.2163 23.3013 48.1682 23.3495 48.1682H40.7791Z" fill="#20805C"/>
<path d="M32.0638 4.38543C32.5613 4.38543 32.9626 3.9842 32.9626 3.48667V1.52865C32.9626 1.03112 32.5613 0.629883 32.0638 0.629883C31.5663 0.629883 31.165 1.03112 31.165 1.52865V3.48667C31.165 3.9842 31.5663 4.38543 32.0638 4.38543Z" fill="#CBCBCB"/>
<path d="M19.8342 7.00125C19.9947 7.29015 20.2997 7.45064 20.6206 7.45064C20.7812 7.45064 20.9256 7.41853 21.07 7.32224C21.5033 7.06545 21.6478 6.51977 21.4071 6.08644L20.4281 4.40125C20.1713 3.96792 19.6256 3.82347 19.1922 4.06422C18.7589 4.32101 18.6145 4.86669 18.8552 5.30002L19.8342 7.00125Z" fill="#CBCBCB"/>
<path d="M12.6926 14.1436L11.0073 13.1646C10.574 12.9078 10.0283 13.0684 9.77155 13.5017C9.51476 13.935 9.67523 14.4807 10.1085 14.7375L11.7938 15.7165C11.9382 15.7967 12.0827 15.8449 12.2431 15.8449C12.548 15.8449 12.853 15.6844 13.0295 15.3955C13.2703 14.9461 13.1259 14.4004 12.6926 14.1436Z" fill="#CBCBCB"/>
<path d="M54.0197 38.0088L52.3345 37.0298C51.9011 36.7731 51.3555 36.9335 51.0987 37.3668C50.8419 37.8002 51.0024 38.3459 51.4357 38.6027L53.1209 39.5816C53.2654 39.6619 53.4259 39.71 53.5703 39.71C53.8752 39.71 54.1802 39.5496 54.3567 39.2607C54.5974 38.8113 54.453 38.2496 54.0197 38.0088Z" fill="#CBCBCB"/>
<path d="M10.0768 26.3729C10.0768 25.8753 9.6756 25.4741 9.17806 25.4741H7.22005C6.72252 25.4741 6.32129 25.8753 6.32129 26.3729C6.32129 26.8704 6.72252 27.2717 7.22005 27.2717H9.17806C9.6756 27.2717 10.0768 26.8704 10.0768 26.3729Z" fill="#CBCBCB"/>
<path d="M56.8925 25.4741H54.9505C54.453 25.4741 54.0518 25.8753 54.0518 26.3729C54.0518 26.8704 54.453 27.2717 54.9505 27.2717H56.9085C57.4061 27.2717 57.8073 26.8704 57.8073 26.3729C57.7913 25.8753 57.39 25.4741 56.8925 25.4741Z" fill="#CBCBCB"/>
<path d="M11.7935 37.0296L10.1082 38.0087C9.67494 38.2655 9.53051 38.8111 9.77126 39.2444C9.93173 39.5334 10.2366 39.6938 10.5577 39.6938C10.7181 39.6938 10.8626 39.6618 11.007 39.5654L12.6923 38.5864C13.1256 38.3296 13.27 37.784 13.0293 37.3507C12.7725 36.9333 12.2108 36.7889 11.7935 37.0296Z" fill="#CBCBCB"/>
<path d="M51.8848 15.8285C52.0453 15.8285 52.1897 15.7964 52.3342 15.7001L54.0194 14.721C54.4527 14.4642 54.5972 13.9186 54.3564 13.4853C54.0996 13.0519 53.554 12.9075 53.1206 13.1482L51.4354 14.1272C51.0021 14.384 50.8577 14.9297 51.0984 15.363C51.2589 15.668 51.5638 15.8285 51.8848 15.8285Z" fill="#CBCBCB"/>
<path d="M43.0585 7.32259C43.2029 7.40284 43.3635 7.45099 43.5079 7.45099C43.8128 7.45099 44.1177 7.2905 44.2943 7.00161L45.2733 5.31642C45.5301 4.88309 45.3696 4.33741 44.9363 4.08062C44.5029 3.82383 43.9572 3.98432 43.7004 4.41766L42.7214 6.10284C42.4807 6.53618 42.6252 7.08185 43.0585 7.32259Z" fill="#CBCBCB"/>
</g>
<defs>
<clipPath id="clip0_231_432">
<rect width="64" height="61.6296" fill="white" transform="translate(0 0.629883)"/>
</clipPath>
</defs>
</svg>
