<svg width="65" height="65" viewBox="0 0 65 65" fill="none" xmlns="http://www.w3.org/2000/svg">
<g clip-path="url(#clip0_197_452)">
<path d="M51.14 34.9342C50.3563 34.9342 49.7207 34.284 49.7207 33.4822V29.1263C49.7207 28.3244 50.3563 27.6743 51.14 27.6743C51.9237 27.6743 52.5592 28.3244 52.5592 29.1263V33.4822C52.5592 34.284 51.9237 34.9342 51.14 34.9342Z" fill="#3C3B3D"/>
<path d="M60.3652 39.2903V52.358H60.246C59.5719 48.2373 56.0691 45.0982 51.8496 45.0982C47.6302 45.0982 44.1274 48.2373 43.4533 52.358H32.7492C33.1721 50.983 33.3992 49.5194 33.3992 48.0021C33.3992 39.9829 27.0451 33.4824 19.2065 33.4824H40.4955H51.14H55.0671C57.9936 33.4824 60.3652 35.9087 60.3652 38.9026V39.2903Z" fill="#80AF52"/>
<path d="M20.6257 24.9155V14.7518V13.2998H28.9909C33.2175 13.2998 36.8706 16.3213 37.7563 20.5495L38.6263 24.7036L20.6257 24.9155Z" fill="#D8F2F1"/>
<path d="M38.6263 24.7036L40.4955 33.6273H19.2065C16.0117 33.6273 13.0625 34.7076 10.6909 36.5313V13.2998H20.6258V14.7518V24.9155L38.6263 24.7036Z" fill="#6E8C61"/>
<path d="M56.8171 2.99085C57.9922 2.99085 58.946 3.96657 58.946 5.1688C58.946 6.37103 57.9922 7.34675 56.8171 7.34675H49.7208C48.5456 7.34675 47.5919 6.37103 47.5919 5.1688C47.5919 4.91325 47.6373 4.67078 47.7153 4.44282H44.0437C42.8685 4.44282 41.9148 3.46709 41.9148 2.26487C41.9148 1.06264 42.8685 0.0869141 44.0437 0.0869141H51.14C52.3152 0.0869141 53.2689 1.06264 53.2689 2.26487C53.2689 2.52041 53.2235 2.76289 53.1454 2.99085H56.8171Z" fill="#B9F3FF"/>
<path d="M53.2688 23.8991V27.5291C53.2688 28.7313 52.315 29.707 51.1399 29.707C49.9647 29.707 49.011 28.7313 49.011 27.5291V23.8991C49.011 23.298 49.2494 22.7535 49.6355 22.3601C50.0201 21.9651 50.5523 21.7212 51.1399 21.7212C52.315 21.7212 53.2688 22.6969 53.2688 23.8991Z" fill="#808080"/>
<path d="M4.30419 2.99072C5.47934 2.99072 6.43309 3.96644 6.43309 5.16867C6.43309 6.3709 5.47934 7.34662 4.30419 7.34662C3.12904 7.34662 2.17529 6.3709 2.17529 5.16867C2.17529 3.96644 3.12904 2.99072 4.30419 2.99072Z" fill="#74829C"/>
<path d="M61.7844 24.7705C62.9596 24.7705 63.9133 25.7462 63.9133 26.9485C63.9133 28.1507 62.9596 29.1264 61.7844 29.1264C60.6093 29.1264 59.6555 28.1507 59.6555 26.9485C59.6555 25.7462 60.6093 24.7705 61.7844 24.7705Z" fill="#74829C"/>
<path d="M44.7533 11.7026C46.3216 11.7026 47.5919 13.0021 47.5919 14.6066C47.5919 16.211 46.3216 17.5105 44.7533 17.5105C43.185 17.5105 41.9148 16.211 41.9148 14.6066C41.9148 13.0021 43.185 11.7026 44.7533 11.7026Z" fill="#74829C"/>
<path d="M58.9459 14.6064C59.7293 14.6064 60.3651 15.2569 60.3651 16.0584C60.3651 16.8599 59.7293 17.5104 58.9459 17.5104C58.1624 17.5104 57.5266 16.8599 57.5266 16.0584C57.5266 15.2569 58.1624 14.6064 58.9459 14.6064Z" fill="#74829C"/>
<path d="M33.399 0.0869141C34.1824 0.0869141 34.8183 0.737396 34.8183 1.53888C34.8183 2.34037 34.1824 2.99085 33.399 2.99085C32.6156 2.99085 31.9797 2.34037 31.9797 1.53888C31.9797 0.737396 32.6156 0.0869141 33.399 0.0869141Z" fill="#74829C"/>
<path d="M13.5294 2.99072C14.3128 2.99072 14.9486 3.6412 14.9486 4.44269C14.9486 5.24418 14.3128 5.89466 13.5294 5.89466C12.7459 5.89466 12.1101 5.24418 12.1101 4.44269C12.1101 3.6412 12.7459 2.99072 13.5294 2.99072Z" fill="#74829C"/>
<path d="M5.01375 21.8667C5.79718 21.8667 6.43301 22.5172 6.43301 23.3187C6.43301 24.1202 5.79718 24.7706 5.01375 24.7706C4.23031 24.7706 3.59448 24.1202 3.59448 23.3187C3.59448 22.5172 4.23031 21.8667 5.01375 21.8667Z" fill="#74829C"/>
<path d="M60.3652 38.9027C60.3652 38.5382 60.3294 38.1825 60.2624 37.8384H40.4954C39.7117 37.8384 39.0762 38.4886 39.0762 39.2903C39.0762 40.0921 39.7117 40.7423 40.4954 40.7423H60.3652V39.2903V38.9027Z" fill="#70993F"/>
<path d="M63.2038 63.9738H2.17537C1.39151 63.9738 0.756104 63.3236 0.756104 62.5218C0.756104 61.72 1.39151 61.0698 2.17537 61.0698H63.2038C63.9875 61.0698 64.623 61.72 64.623 62.5218C64.623 63.3236 63.9875 63.9738 63.2038 63.9738Z" fill="#BEC3C7"/>
<path d="M49.011 53.8097C49.011 55.4141 50.2812 56.7136 51.8495 56.7136C53.4178 56.7136 54.688 55.4141 54.688 53.8097C54.688 52.2053 53.4178 50.9058 51.8495 50.9058C50.2812 50.9058 49.011 52.2053 49.011 53.8097Z" fill="#3C3B3D"/>
<path d="M43.3131 52.3334C43.9986 48.1441 47.5594 44.9526 51.8494 44.9526C56.1394 44.9526 59.7002 48.1441 60.3857 52.3334C60.4663 52.8133 60.5069 53.3062 60.5069 53.8096C60.5069 58.7016 56.6311 62.6666 51.8494 62.6666C47.0678 62.6666 43.1919 58.7016 43.1919 53.8096C43.1919 53.3062 43.2323 52.8133 43.3131 52.3334Z" fill="#3C3B3D"/>
<path d="M51.8496 50.8574C53.444 50.8574 54.7355 52.1786 54.7355 53.8097C54.7355 55.4408 53.444 56.762 51.8496 56.762C50.2552 56.762 48.9636 55.4408 48.9636 53.8097C48.9636 52.1786 50.2552 50.8574 51.8496 50.8574Z" fill="#AFB9D2"/>
<path d="M19.2065 33.1919C15.9479 33.1919 12.9396 34.2938 10.5206 36.1539C7.00421 38.8538 4.72998 43.1562 4.72998 48.002C4.72998 56.1816 11.2112 62.812 19.2065 62.812C25.689 62.812 31.1757 58.4534 33.0199 52.445C33.4514 51.0425 33.683 49.5498 33.683 48.002C33.683 39.8223 27.2018 33.1919 19.2065 33.1919Z" fill="#3C3B3D"/>
<path d="M19.2064 54.1007C15.9144 54.1007 13.2449 51.3699 13.2449 48.002C13.2449 44.6342 15.9144 41.9033 19.2064 41.9033C22.4983 41.9033 25.1678 44.6342 25.1678 48.002C25.1678 51.3699 22.4983 54.1007 19.2064 54.1007Z" fill="#AFB9D2"/>
</g>
<defs>
<clipPath id="clip0_197_452">
<rect width="64" height="64" fill="white" transform="translate(0.689453 0.0302734)"/>
</clipPath>
</defs>
</svg>
